<svg width="183" height="230" viewBox="0 0 183 230" fill="none" xmlns="http://www.w3.org/2000/svg">
<g clip-path="url(#clip0)">
<circle cx="95" cy="115" r="88" fill="#626BA6"/>
<path opacity="0.2" d="M178.022 213.977C178.022 222.863 142.447 230 98.5272 230C54.6072 230 19.032 222.863 19.032 213.977C19.032 205.092 54.6072 197.954 98.5272 197.954C142.447 197.954 178.022 205.092 178.022 213.977Z" fill="#1C1C1C"/>
<g filter="url(#filter0_d)">
<path d="M91.5 83.3186C88.8648 104.44 85.4976 123.813 85.4976 123.813L114.338 124.395C114.338 124.395 118.145 91.0387 117.12 62.052C110.825 71.2287 102.48 78.6575 91.5 83.3186Z" fill="#96D196"/>
<path d="M117.12 62.052C116.242 32.9196 110.825 -2.33054 102.919 0.145713C97.3559 1.89365 95.8919 23.1603 94.5743 50.399C94.1351 60.0127 92.8175 71.957 91.3535 83.3186C102.48 78.6574 110.825 71.2287 117.12 62.052Z" fill="#97DD97"/>
<path d="M29.28 66.2761C35.7216 93.8062 52.2648 127.163 52.2648 127.163L89.304 123.958C84.7656 118.569 76.86 104.877 68.5152 89.4363C53.8752 85.0665 40.26 77.4921 29.28 66.2761Z" fill="#96D196"/>
<path d="M26.7911 48.2142C26.7911 53.6037 27.8159 59.7215 29.4263 66.2762C40.4063 77.4922 53.8751 85.0666 68.6615 89.4365C56.2175 66.2762 43.0415 39.1831 39.6743 31.1717C33.9647 18.0622 26.4983 20.2471 26.7911 48.2142Z" fill="#97DD97"/>
<path d="M53.5823 38.1635C54.8999 47.1945 57.828 59.1388 61.3416 71.3744C73.7856 84.921 89.1576 95.5543 105.994 102.255C90.768 73.268 69.8328 25.9279 64.1231 15.8772C55.9247 1.45672 49.4831 9.61379 53.5823 38.1635Z" fill="#7DCC7D"/>
<path d="M61.3416 71.3744C68.808 97.5935 78.324 124.395 78.324 124.395L121.219 124.832C118.584 124.25 112.874 115.073 105.994 102.255C89.1576 95.5542 73.7856 84.9209 61.3416 71.3744Z" fill="#81C182"/>
<path d="M52.4113 127.308C57.6817 126.726 72.0289 123.521 85.6441 123.958C85.6441 123.958 77.8849 118.132 67.4905 110.12C50.2153 108.955 32.7937 105.751 19.6177 96.7195C33.2329 112.888 47.7265 124.395 52.4113 127.308Z" fill="#81C182"/>
<path d="M7.75918 80.6967C11.4192 86.3775 15.5184 91.767 19.6176 96.5738C32.7936 105.459 50.2152 108.809 67.4904 109.975C50.6544 97.0108 26.7912 78.3661 17.568 69.9177C2.78158 56.3711 -8.05202 56.0798 7.75918 80.6967Z" fill="#7DCC7D"/>
<path d="M102.041 110.266C98.3809 118.714 95.8921 124.395 95.8921 124.395L128.246 124.832C128.246 124.832 140.544 89.1451 145.375 64.2369C145.522 63.0716 145.814 61.9064 145.961 60.8867C135.274 81.2794 122.098 100.798 102.041 110.266Z" fill="#81C182"/>
<path d="M142.154 17.7708C137.03 17.7708 136.152 23.4516 129.857 42.6789C125.465 56.0798 110.532 90.7473 102.041 110.412C122.244 100.798 135.42 81.2793 145.961 61.0323C149.767 37.5808 146.986 17.7708 142.154 17.7708Z" fill="#7DCC7D"/>
<path d="M180.95 42.5333C178.462 40.3484 173.484 44.8639 165.578 58.9931C158.258 72.2484 141.715 95.9912 130.882 110.994C156.209 97.8848 171.288 71.3744 180.95 42.5333Z" fill="#97DD97"/>
<path d="M180.95 42.5333C171.288 71.52 156.209 97.8848 130.881 110.994C125.025 119.151 120.926 124.832 120.926 124.832L147.717 128.328C153.281 121.482 183.585 60.3041 182.853 49.3794C182.707 45.7379 182.121 43.553 180.95 42.5333Z" fill="#96D196"/>
<path d="M39.3816 153.819C39.3816 153.819 101.455 143.623 149.182 153.819C149.182 153.819 157.087 143.331 150.792 128.765C150.792 128.765 124.586 123.084 89.4504 123.958C74.0784 124.25 56.9496 125.852 39.528 129.785C39.3816 129.785 32.208 138.233 39.3816 153.819Z" fill="#E8988C"/>
<path d="M64.7087 213.54C79.7879 216.017 113.314 219.949 138.934 212.084L145.375 161.83C113.167 171.007 84.0335 187.175 64.7087 213.54Z" fill="#E8988C"/>
<path d="M45.0911 152.945L56.8031 212.084C56.8031 212.084 59.7311 212.666 64.7087 213.54C84.0335 187.175 113.167 171.007 145.375 161.83L146.546 153.236C146.546 153.236 96.1847 142.894 45.0911 152.945Z" fill="#DB867D"/>
<path d="M83.448 171.881C82.5696 171.881 81.8376 171.153 81.8376 170.279C81.8376 167.657 81.252 161.539 75.1032 161.539C72.6144 161.539 69.2472 162.413 69.2472 170.279C69.2472 171.153 68.5152 171.881 67.6368 171.881C66.7584 171.881 66.0264 171.153 66.0264 170.279C66.0264 160.374 71.004 158.334 75.1032 158.334C81.252 158.334 85.0584 162.996 85.0584 170.279C85.0584 171.153 84.3264 171.881 83.448 171.881Z" fill="#2D2D2D"/>
<path d="M130.882 171.881C130.003 171.881 129.271 171.153 129.271 170.279C129.271 162.413 125.904 161.539 123.415 161.539C117.413 161.539 116.681 167.657 116.681 170.279C116.681 171.153 115.949 171.881 115.07 171.881C114.192 171.881 113.46 171.153 113.46 170.279C113.46 162.85 117.266 158.334 123.415 158.334C127.514 158.334 132.492 160.374 132.492 170.279C132.492 171.153 131.76 171.881 130.882 171.881Z" fill="#2D2D2D"/>
<path d="M90.6216 168.822H109.361C109.361 168.822 109.8 183.68 99.9912 183.68C90.1824 183.68 90.6216 168.822 90.6216 168.822Z" fill="#2D2D2D"/>
<path d="M82.1303 177.27C82.1303 179.164 76.5671 180.621 69.5399 180.621C62.6591 180.621 56.9495 179.164 56.9495 177.27C56.9495 175.377 62.5127 173.92 69.5399 173.92C76.5671 173.92 82.1303 175.377 82.1303 177.27Z" fill="#FEADB2"/>
<path d="M140.105 177.27C140.105 179.164 134.542 180.621 127.514 180.621C120.634 180.621 114.924 179.164 114.924 177.27C114.924 175.377 120.487 173.92 127.514 173.92C134.542 173.92 140.105 175.377 140.105 177.27Z" fill="#FEADB2"/>
<path d="M115.07 128.182C115.07 128.182 130.735 128.765 147.717 133.281" stroke="white" stroke-width="1.6104" stroke-miterlimit="10" stroke-linecap="round" stroke-linejoin="round"/>
<path d="M89.304 127.454C89.304 127.454 96.9168 126.289 105.994 127.309" stroke="white" stroke-width="1.6104" stroke-miterlimit="10" stroke-linecap="round" stroke-linejoin="round"/>
</g>
</g>
<defs>
<filter id="filter0_d" x="-4.02368" y="0.0222168" width="190.89" height="224.721" filterUnits="userSpaceOnUse" color-interpolation-filters="sRGB">
<feFlood flood-opacity="0" result="BackgroundImageFix"/>
<feColorMatrix in="SourceAlpha" type="matrix" values="0 0 0 0 0 0 0 0 0 0 0 0 0 0 0 0 0 0 127 0"/>
<feOffset dy="4"/>
<feGaussianBlur stdDeviation="2"/>
<feColorMatrix type="matrix" values="0 0 0 0 0 0 0 0 0 0 0 0 0 0 0 0 0 0 0.25 0"/>
<feBlend mode="normal" in2="BackgroundImageFix" result="effect1_dropShadow"/>
<feBlend mode="normal" in="SourceGraphic" in2="effect1_dropShadow" result="shape"/>
</filter>
<clipPath id="clip0">
<rect width="183" height="230" fill="white"/>
</clipPath>
</defs>
</svg>
