<?xml version="1.0" encoding="utf-8"?>
<!-- Generator: Adobe Illustrator 22.1.0, SVG Export Plug-In . SVG Version: 6.00 Build 0)  -->
<svg version="1.1" id="Warstwa_1" xmlns="http://www.w3.org/2000/svg" xmlns:xlink="http://www.w3.org/1999/xlink" x="0px" y="0px"
	 viewBox="0 0 97 135" style="enable-background:new 0 0 97 135;" xml:space="preserve">
<style type="text/css">
	.st0{clip-path:url(#SVGID_2_);}
	.st1{fill:#D3513C;}
	.st2{fill:#B73225;}
	.st3{fill:#F5CB3B;}
	.st4{fill:#DDAF2F;}
	.st5{fill:#C4AA90;}
	.st6{fill:#85674D;}
	.st7{fill:#A07C62;}
	.st8{fill:#B5947D;}
	.st9{fill:#A7D6D3;}
	.st10{fill:#C0E2DE;}
	.st11{opacity:0.3;fill:#DDAF2F;enable-background:new    ;}
	.st12{fill:#F37350;}
	.st13{fill:#497C54;}
	.st14{opacity:0.2;fill:#1C1C1C;enable-background:new    ;}
</style>
<g>
	<defs>
		<path id="SVGID_1_" d="M48.6,6.4h40.6v35.8H46.8L48.6,6.4z"/>
	</defs>
	<clipPath id="SVGID_2_">
		<use xlink:href="#SVGID_1_"  style="overflow:visible;"/>
	</clipPath>
	<g class="st0">
		<path class="st1" d="M41.1,42.8c0,0,0.8,3.4,3.5,3.4c2.7,0,3.7-2.1,3.9-3.4l-2.9-1.6L41.1,42.8z"/>
		<path class="st2" d="M44.7,46.4C44.6,46.4,44.6,46.4,44.7,46.4c-2.8-0.1-3.7-3.5-3.7-3.5v-0.1l4.7-1.6l3,1.6v0.1
			C48.3,44.6,47.1,46.4,44.7,46.4z M41.2,42.9c0.2,0.6,1.1,3.2,3.3,3.2h0.1c2.7,0,3.5-2.5,3.7-3.2l-2.8-1.5L41.2,42.9z"/>
		<path class="st1" d="M48.5,42.8c0,0,0.8,3.4,3.5,3.4s3.7-2.1,3.9-3.4L53,41.2L48.5,42.8z"/>
		<path class="st2" d="M52.1,46.4C52,46.4,52,46.4,52.1,46.4c-2.8-0.1-3.7-3.5-3.7-3.5v-0.1l4.7-1.6l3,1.6v0.1
			C55.7,44.6,54.5,46.4,52.1,46.4z M48.6,42.9c0.2,0.6,1.1,3.2,3.3,3.2H52c2.7,0,3.5-2.5,3.7-3.2l-2.8-1.5L48.6,42.9z"/>
		<path class="st1" d="M55.9,42.8c0,0,0.8,3.4,3.5,3.4c2.7,0,3.7-2.1,3.9-3.4l-2.9-1.6L55.9,42.8z"/>
		<path class="st2" d="M59.5,46.4C59.5,46.4,59.4,46.4,59.5,46.4c-2.8-0.1-3.7-3.5-3.7-3.5v-0.1l4.7-1.6l3,1.6v0.1
			C63.1,44.6,61.9,46.4,59.5,46.4z M56.1,42.9c0.2,0.6,1.1,3.2,3.3,3.2h0.1c2.7,0,3.5-2.5,3.7-3.2l-2.8-1.5L56.1,42.9z"/>
		<path class="st1" d="M63.3,42.8c0,0,0.8,3.4,3.5,3.4c2.7,0,3.7-2.1,3.9-3.4l-2.9-1.6L63.3,42.8z"/>
		<path class="st2" d="M66.9,46.4C66.9,46.4,66.8,46.4,66.9,46.4c-2.8-0.1-3.7-3.5-3.7-3.5v-0.1l4.7-1.6l3,1.6v0.1
			C70.5,44.6,69.3,46.4,66.9,46.4z M63.5,42.9c0.2,0.6,1.1,3.2,3.3,3.2h0.1c2.7,0,3.5-2.5,3.7-3.2l-2.8-1.5L63.5,42.9z"/>
		<path class="st1" d="M70.7,42.8c0,0,0.8,3.4,3.5,3.4c2.7,0,3.7-2.1,3.9-3.4l-2.9-1.6L70.7,42.8z"/>
		<path class="st2" d="M74.3,46.4c-2.8-0.1-3.7-3.5-3.7-3.5v-0.1l4.7-1.6l3,1.6v0.1C77.9,44.6,76.7,46.4,74.3,46.4z M70.9,42.9
			c0.2,0.6,1.1,3.2,3.3,3.2h0.1c2.7,0,3.5-2.5,3.7-3.2l-2.8-1.5L70.9,42.9z"/>
		<path class="st1" d="M78.1,42.8c0,0,0.8,3.4,3.5,3.4c2.7,0,3.7-2.1,3.9-3.4l-2.9-1.6L78.1,42.8z"/>
		<path class="st2" d="M81.7,46.4c-2.8-0.1-3.7-3.5-3.7-3.5v-0.1l4.7-1.6l3,1.6v0.1C85.3,44.6,84.1,46.4,81.7,46.4z M78.3,42.9
			c0.2,0.6,1.1,3.2,3.3,3.2h0.1c2.7,0,3.5-2.5,3.7-3.2l-2.8-1.5L78.3,42.9z"/>
		<path class="st1" d="M85.6,42.8c0,0,0.8,3.4,3.5,3.4c2.7,0,3.7-2.1,3.9-3.4l-2.9-1.6L85.6,42.8z"/>
		<path class="st2" d="M89.1,46.4c-2.8-0.1-3.7-3.5-3.7-3.5v-0.1l4.7-1.6l3,1.6v0.1C92.7,44.6,91.5,46.4,89.1,46.4z M85.7,42.9
			c0.2,0.6,1.1,3.2,3.3,3.2h0.1c2.7,0,3.5-2.5,3.7-3.2L90,41.4L85.7,42.9z"/>
		<path class="st1" d="M44.8,40.4c0,0,0.8,3.4,3.5,3.4s3.7-2.1,3.9-3.4l-2.9-1.6L44.8,40.4z"/>
		<path class="st2" d="M48.4,43.9C48.3,43.9,48.3,43.9,48.4,43.9c-2.8-0.1-3.7-3.5-3.7-3.5v-0.1l4.7-1.6l3,1.6v0.1
			C52,42.1,50.8,43.9,48.4,43.9z M44.9,40.5c0.2,0.6,1.1,3.2,3.3,3.2h0.1c2.7,0,3.5-2.5,3.7-3.2L49.2,39L44.9,40.5z"/>
		<path class="st1" d="M52.2,40.4c0,0,0.8,3.4,3.5,3.4s3.7-2.1,3.9-3.4l-2.9-1.6L52.2,40.4z"/>
		<path class="st2" d="M55.8,43.9C55.8,43.9,55.7,43.9,55.8,43.9c-2.8-0.1-3.7-3.5-3.7-3.5v-0.1l4.7-1.6l3,1.6v0.1
			C59.4,42.1,58.2,43.9,55.8,43.9z M52.4,40.5c0.2,0.6,1.1,3.2,3.3,3.2h0.1c2.7,0,3.5-2.5,3.7-3.2L56.7,39L52.4,40.5z"/>
		<path class="st1" d="M59.6,40.4c0,0,0.8,3.4,3.5,3.4s3.7-2.1,3.9-3.4l-2.9-1.6L59.6,40.4z"/>
		<path class="st2" d="M63.2,43.9C63.2,43.9,63.1,43.9,63.2,43.9c-2.8-0.1-3.7-3.5-3.7-3.5v-0.1l4.7-1.6l3,1.6v0.1
			C66.8,42.1,65.6,43.9,63.2,43.9z M59.8,40.5c0.2,0.6,1.1,3.2,3.3,3.2h0.1c2.7,0,3.5-2.5,3.7-3.2L64.1,39L59.8,40.5z"/>
		<path class="st1" d="M67,40.4c0,0,0.8,3.4,3.5,3.4c2.7,0,3.7-2.1,3.9-3.4l-2.9-1.6L67,40.4z"/>
		<path class="st2" d="M70.6,43.9C70.6,43.9,70.5,43.9,70.6,43.9c-2.8-0.1-3.7-3.5-3.7-3.5v-0.1l4.7-1.6l3,1.6v0.1
			C74.2,42.1,73,43.9,70.6,43.9z M67.2,40.5c0.2,0.6,1.1,3.2,3.3,3.2h0.1c2.7,0,3.5-2.5,3.7-3.2L71.5,39L67.2,40.5z"/>
		<path class="st1" d="M74.4,40.4c0,0,0.8,3.4,3.5,3.4c2.7,0,3.7-2.1,3.9-3.4l-2.9-1.6L74.4,40.4z"/>
		<path class="st2" d="M78,43.9c-2.8-0.1-3.7-3.5-3.7-3.5v-0.1l4.7-1.6l3,1.6v0.1C81.6,42.1,80.4,43.9,78,43.9z M74.6,40.5
			c0.2,0.6,1.1,3.2,3.3,3.2H78c2.7,0,3.5-2.5,3.7-3.2L78.9,39L74.6,40.5z"/>
		<path class="st1" d="M81.8,40.4c0,0,0.8,3.4,3.5,3.4c2.7,0,3.7-2.1,3.9-3.4l-2.9-1.6L81.8,40.4z"/>
		<path class="st2" d="M85.4,43.9c-2.8-0.1-3.7-3.5-3.7-3.5v-0.1l4.7-1.6l3,1.6v0.1C89,42.1,87.8,43.9,85.4,43.9z M82,40.5
			c0.2,0.6,1.1,3.2,3.3,3.2h0.1c2.7,0,3.5-2.5,3.7-3.2L86.3,39L82,40.5z"/>
		<path class="st2" d="M92.8,43.9c-2.8-0.1-3.7-3.5-3.7-3.5v-0.1l4.7-1.6l3,1.6v0.1C96.4,42.1,95.2,43.9,92.8,43.9z M89.4,40.5
			c0.2,0.6,1.1,3.2,3.3,3.2c2.8,0.1,3.6-2.5,3.8-3.2L93.7,39L89.4,40.5z"/>
		<path class="st1" d="M41.1,37.9c0,0,0.8,3.4,3.5,3.4c2.7,0,3.7-2.1,3.9-3.4l-2.9-1.6L41.1,37.9z"/>
		<path class="st2" d="M44.7,41.4C44.6,41.4,44.6,41.4,44.7,41.4c-2.8-0.1-3.7-3.5-3.7-3.5v-0.1l4.7-1.6l3,1.6v0.1
			C48.3,39.6,47.1,41.4,44.7,41.4z M41.2,38c0.2,0.6,1.1,3.2,3.3,3.2h0.1c2.7,0,3.5-2.5,3.7-3.2l-2.8-1.5L41.2,38z"/>
		<path class="st1" d="M48.5,37.9c0,0,0.8,3.4,3.5,3.4s3.7-2.1,3.9-3.4L53,36.3L48.5,37.9z"/>
		<path class="st2" d="M52.1,41.4C52,41.4,52,41.4,52.1,41.4c-2.8-0.1-3.7-3.5-3.7-3.5v-0.1l4.7-1.6l3,1.6v0.1
			C55.7,39.6,54.5,41.4,52.1,41.4z M48.6,38c0.2,0.6,1.1,3.2,3.3,3.2H52c2.7,0,3.5-2.5,3.7-3.2l-2.8-1.5L48.6,38z"/>
		<path class="st1" d="M55.9,37.9c0,0,0.8,3.4,3.5,3.4c2.7,0,3.7-2.1,3.9-3.4l-2.9-1.6L55.9,37.9z"/>
		<path class="st2" d="M59.5,41.4C59.5,41.4,59.4,41.4,59.5,41.4c-2.8-0.1-3.7-3.5-3.7-3.5v-0.1l4.7-1.6l3,1.6v0.1
			C63.1,39.6,61.9,41.4,59.5,41.4z M56.1,38c0.2,0.6,1.1,3.2,3.3,3.2h0.1c2.7,0,3.5-2.5,3.7-3.2l-2.8-1.5L56.1,38z"/>
		<path class="st1" d="M63.3,37.9c0,0,0.8,3.4,3.5,3.4c2.7,0,3.7-2.1,3.9-3.4l-2.9-1.6L63.3,37.9z"/>
		<path class="st2" d="M66.9,41.4C66.9,41.4,66.8,41.4,66.9,41.4c-2.8-0.1-3.7-3.5-3.7-3.5v-0.1l4.7-1.6l3,1.6v0.1
			C70.5,39.6,69.3,41.4,66.9,41.4z M63.5,38c0.2,0.6,1.1,3.2,3.3,3.2h0.1c2.7,0,3.5-2.5,3.7-3.2l-2.8-1.5L63.5,38z"/>
		<path class="st1" d="M70.7,37.9c0,0,0.8,3.4,3.5,3.4c2.7,0,3.7-2.1,3.9-3.4l-2.9-1.6L70.7,37.9z"/>
		<path class="st2" d="M74.3,41.4c-2.8-0.1-3.7-3.5-3.7-3.5v-0.1l4.7-1.6l3,1.6v0.1C77.9,39.6,76.7,41.4,74.3,41.4z M70.9,38
			c0.2,0.6,1.1,3.2,3.3,3.2h0.1c2.7,0,3.5-2.5,3.7-3.2l-2.8-1.5L70.9,38z"/>
		<path class="st1" d="M78.1,37.9c0,0,0.8,3.4,3.5,3.4c2.7,0,3.7-2.1,3.9-3.4l-2.9-1.6L78.1,37.9z"/>
		<path class="st2" d="M81.7,41.4c-2.8-0.1-3.7-3.5-3.7-3.5v-0.1l4.7-1.6l3,1.6v0.1C85.3,39.6,84.1,41.4,81.7,41.4z M78.3,38
			c0.2,0.6,1.1,3.2,3.3,3.2h0.1c2.7,0,3.5-2.5,3.7-3.2l-2.8-1.5L78.3,38z"/>
		<path class="st1" d="M85.6,37.9c0,0,0.8,3.4,3.5,3.4c2.7,0,3.7-2.1,3.9-3.4l-2.9-1.6L85.6,37.9z"/>
		<path class="st2" d="M89.1,41.4c-2.8-0.1-3.7-3.5-3.7-3.5v-0.1l4.7-1.6l3,1.6v0.1C92.7,39.6,91.5,41.4,89.1,41.4z M85.7,38
			c0.2,0.6,1.1,3.2,3.3,3.2h0.1c2.7,0,3.5-2.5,3.7-3.2L90,36.5L85.7,38z"/>
		<path class="st1" d="M44.8,35.4c0,0,0.8,3.4,3.5,3.4s3.7-2.1,3.9-3.4l-2.9-1.6L44.8,35.4z"/>
		<path class="st2" d="M48.4,39C48.3,39,48.3,39,48.4,39c-2.8-0.1-3.7-3.5-3.7-3.5v-0.1l4.7-1.6l3,1.6v0.1C52,37.2,50.8,39,48.4,39z
			 M44.9,35.5c0.2,0.6,1.1,3.2,3.3,3.2h0.1c2.7,0,3.5-2.5,3.7-3.2L49.2,34L44.9,35.5z"/>
		<path class="st1" d="M52.2,35.4c0,0,0.8,3.4,3.5,3.4s3.7-2.1,3.9-3.4l-2.9-1.6L52.2,35.4z"/>
		<path class="st2" d="M55.8,39C55.8,39,55.7,39,55.8,39c-2.8-0.1-3.7-3.5-3.7-3.5v-0.1l4.7-1.6l3,1.6v0.1
			C59.4,37.2,58.2,39,55.8,39z M52.4,35.5c0.2,0.6,1.1,3.2,3.3,3.2h0.1c2.7,0,3.5-2.5,3.7-3.2L56.7,34L52.4,35.5z"/>
		<path class="st1" d="M59.6,35.4c0,0,0.8,3.4,3.5,3.4s3.7-2.1,3.9-3.4l-2.9-1.6L59.6,35.4z"/>
		<path class="st2" d="M63.2,39C63.2,39,63.1,39,63.2,39c-2.8-0.1-3.7-3.5-3.7-3.5v-0.1l4.7-1.6l3,1.6v0.1
			C66.8,37.2,65.6,39,63.2,39z M59.8,35.5c0.2,0.6,1.1,3.2,3.3,3.2h0.1c2.7,0,3.5-2.5,3.7-3.2L64.1,34L59.8,35.5z"/>
		<path class="st1" d="M67,35.4c0,0,0.8,3.4,3.5,3.4c2.7,0,3.7-2.1,3.9-3.4l-2.9-1.6L67,35.4z"/>
		<path class="st2" d="M70.6,39C70.6,39,70.5,39,70.6,39c-2.8-0.1-3.7-3.5-3.7-3.5v-0.1l4.7-1.6l3,1.6v0.1C74.2,37.2,73,39,70.6,39z
			 M67.2,35.5c0.2,0.6,1.1,3.2,3.3,3.2h0.1c2.7,0,3.5-2.5,3.7-3.2L71.5,34L67.2,35.5z"/>
		<path class="st1" d="M74.4,35.4c0,0,0.8,3.4,3.5,3.4c2.7,0,3.7-2.1,3.9-3.4l-2.9-1.6L74.4,35.4z"/>
		<path class="st2" d="M78,39c-2.8-0.1-3.7-3.5-3.7-3.5v-0.1l4.7-1.6l3,1.6v0.1C81.6,37.2,80.4,39,78,39z M74.6,35.5
			c0.2,0.6,1.1,3.2,3.3,3.2H78c2.7,0,3.5-2.5,3.7-3.2L78.9,34L74.6,35.5z"/>
		<path class="st1" d="M81.8,35.4c0,0,0.8,3.4,3.5,3.4c2.7,0,3.7-2.1,3.9-3.4l-2.9-1.6L81.8,35.4z"/>
		<path class="st2" d="M85.4,39c-2.8-0.1-3.7-3.5-3.7-3.5v-0.1l4.7-1.6l3,1.6v0.1C89,37.2,87.8,39,85.4,39z M82,35.5
			c0.2,0.6,1.1,3.2,3.3,3.2h0.1c2.7,0,3.5-2.5,3.7-3.2L86.3,34L82,35.5z"/>
		<path class="st2" d="M92.8,39c-2.8-0.1-3.7-3.5-3.7-3.5v-0.1l4.7-1.6l3,1.6v0.1C96.4,37.2,95.2,39,92.8,39z M89.4,35.5
			c0.2,0.6,1.1,3.2,3.3,3.2c2.8,0.1,3.6-2.5,3.8-3.2L93.7,34L89.4,35.5z"/>
		<path class="st1" d="M41.1,33c0,0,0.8,3.4,3.5,3.4c2.7,0,3.7-2.1,3.9-3.4l-2.9-1.6L41.1,33z"/>
		<path class="st2" d="M44.7,36.5C44.6,36.5,44.6,36.5,44.7,36.5C41.9,36.4,41,33,41,33v-0.1l4.7-1.6l3,1.6V33
			C48.3,34.7,47.1,36.5,44.7,36.5z M41.2,33c0.2,0.6,1.1,3.2,3.3,3.2h0.1c2.7,0,3.5-2.5,3.7-3.2l-2.8-1.5L41.2,33z"/>
		<path class="st1" d="M48.5,33c0,0,0.8,3.4,3.5,3.4s3.7-2.1,3.9-3.4L53,31.4L48.5,33z"/>
		<path class="st2" d="M52.1,36.5C52,36.5,52,36.5,52.1,36.5c-2.8-0.1-3.7-3.5-3.7-3.5v-0.1l4.7-1.6l3,1.6V33
			C55.7,34.7,54.5,36.5,52.1,36.5z M48.6,33c0.2,0.6,1.1,3.2,3.3,3.2H52c2.7,0,3.5-2.5,3.7-3.2l-2.8-1.5L48.6,33z"/>
		<path class="st1" d="M55.9,33c0,0,0.8,3.4,3.5,3.4c2.7,0,3.7-2.1,3.9-3.4l-2.9-1.6L55.9,33z"/>
		<path class="st2" d="M59.5,36.5C59.5,36.5,59.4,36.5,59.5,36.5c-2.8-0.1-3.7-3.5-3.7-3.5v-0.1l4.7-1.6l3,1.6V33
			C63.1,34.7,61.9,36.5,59.5,36.5z M56.1,33c0.2,0.6,1.1,3.2,3.3,3.2h0.1c2.7,0,3.5-2.5,3.7-3.2l-2.8-1.5L56.1,33z"/>
		<path class="st1" d="M63.3,33c0,0,0.8,3.4,3.5,3.4c2.7,0,3.7-2.1,3.9-3.4l-2.9-1.6L63.3,33z"/>
		<path class="st2" d="M66.9,36.5C66.9,36.5,66.8,36.5,66.9,36.5c-2.8-0.1-3.7-3.5-3.7-3.5v-0.1l4.7-1.6l3,1.6V33
			C70.5,34.7,69.3,36.5,66.9,36.5z M63.5,33c0.2,0.6,1.1,3.2,3.3,3.2h0.1c2.7,0,3.5-2.5,3.7-3.2l-2.8-1.5L63.5,33z"/>
		<path class="st1" d="M70.7,33c0,0,0.8,3.4,3.5,3.4c2.7,0,3.7-2.1,3.9-3.4l-2.9-1.6L70.7,33z"/>
		<path class="st2" d="M74.3,36.5c-2.8-0.1-3.7-3.5-3.7-3.5v-0.1l4.7-1.6l3,1.6V33C77.9,34.7,76.7,36.5,74.3,36.5z M70.9,33
			c0.2,0.6,1.1,3.2,3.3,3.2h0.1c2.7,0,3.5-2.5,3.7-3.2l-2.8-1.5L70.9,33z"/>
		<path class="st1" d="M78.1,33c0,0,0.8,3.4,3.5,3.4c2.7,0,3.7-2.1,3.9-3.4l-2.9-1.6L78.1,33z"/>
		<path class="st2" d="M81.7,36.5C78.9,36.4,78,33,78,33v-0.1l4.7-1.6l3,1.6V33C85.3,34.7,84.1,36.5,81.7,36.5z M78.3,33
			c0.2,0.6,1.1,3.2,3.3,3.2h0.1c2.7,0,3.5-2.5,3.7-3.2l-2.8-1.5L78.3,33z"/>
		<path class="st1" d="M85.6,33c0,0,0.8,3.4,3.5,3.4c2.7,0,3.7-2.1,3.9-3.4l-2.9-1.6L85.6,33z"/>
		<path class="st2" d="M89.1,36.5c-2.8-0.1-3.7-3.5-3.7-3.5v-0.1l4.7-1.6l3,1.6V33C92.7,34.7,91.5,36.5,89.1,36.5z M85.7,33
			c0.2,0.6,1.1,3.2,3.3,3.2h0.1c2.7,0,3.5-2.5,3.7-3.2L90,31.5L85.7,33z"/>
		<path class="st1" d="M44.8,30.5c0,0,0.8,3.4,3.5,3.4s3.7-2.1,3.9-3.4l-2.9-1.6L44.8,30.5z"/>
		<path class="st2" d="M48.4,34C48.3,34,48.3,34,48.4,34c-2.8-0.1-3.7-3.5-3.7-3.5v-0.1l4.7-1.6l3,1.6v0.1C52,32.2,50.8,34,48.4,34z
			 M44.9,30.6c0.2,0.6,1.1,3.2,3.3,3.2h0.1c2.7,0,3.5-2.5,3.7-3.2l-2.8-1.5L44.9,30.6z"/>
		<path class="st1" d="M52.2,30.5c0,0,0.8,3.4,3.5,3.4s3.7-2.1,3.9-3.4l-2.9-1.6L52.2,30.5z"/>
		<path class="st2" d="M55.8,34C55.8,34,55.7,34,55.8,34c-2.8-0.1-3.7-3.5-3.7-3.5v-0.1l4.7-1.6l3,1.6v0.1
			C59.4,32.2,58.2,34,55.8,34z M52.4,30.6c0.2,0.6,1.1,3.2,3.3,3.2h0.1c2.7,0,3.5-2.5,3.7-3.2l-2.8-1.5L52.4,30.6z"/>
		<path class="st1" d="M59.6,30.5c0,0,0.8,3.4,3.5,3.4s3.7-2.1,3.9-3.4l-2.9-1.6L59.6,30.5z"/>
		<path class="st2" d="M63.2,34C63.2,34,63.1,34,63.2,34c-2.8-0.1-3.7-3.5-3.7-3.5v-0.1l4.7-1.6l3,1.6v0.1
			C66.8,32.2,65.6,34,63.2,34z M59.8,30.6c0.2,0.6,1.1,3.2,3.3,3.2h0.1c2.7,0,3.5-2.5,3.7-3.2l-2.8-1.5L59.8,30.6z"/>
		<path class="st1" d="M67,30.5c0,0,0.8,3.4,3.5,3.4c2.7,0,3.7-2.1,3.9-3.4l-2.9-1.6L67,30.5z"/>
		<path class="st2" d="M70.6,34C70.6,34,70.5,34,70.6,34c-2.8-0.1-3.7-3.5-3.7-3.5v-0.1l4.7-1.6l3,1.6v0.1C74.2,32.2,73,34,70.6,34z
			 M67.2,30.6c0.2,0.6,1.1,3.2,3.3,3.2h0.1c2.7,0,3.5-2.5,3.7-3.2l-2.8-1.5L67.2,30.6z"/>
		<path class="st1" d="M74.4,30.5c0,0,0.8,3.4,3.5,3.4c2.7,0,3.7-2.1,3.9-3.4l-2.9-1.6L74.4,30.5z"/>
		<path class="st2" d="M78,34c-2.8-0.1-3.7-3.5-3.7-3.5v-0.1l4.7-1.6l3,1.6v0.1C81.6,32.2,80.4,34,78,34z M74.6,30.6
			c0.2,0.6,1.1,3.2,3.3,3.2H78c2.7,0,3.5-2.5,3.7-3.2l-2.8-1.5L74.6,30.6z"/>
		<path class="st1" d="M81.8,30.5c0,0,0.8,3.4,3.5,3.4c2.7,0,3.7-2.1,3.9-3.4l-2.9-1.6L81.8,30.5z"/>
		<path class="st2" d="M85.4,34c-2.8-0.1-3.7-3.5-3.7-3.5v-0.1l4.7-1.6l3,1.6v0.1C89,32.2,87.8,34,85.4,34z M82,30.6
			c0.2,0.6,1.1,3.2,3.3,3.2h0.1c2.7,0,3.5-2.5,3.7-3.2l-2.8-1.5L82,30.6z"/>
		<path class="st2" d="M92.8,34c-2.8-0.1-3.7-3.5-3.7-3.5v-0.1l4.7-1.6l3,1.6v0.1C96.4,32.2,95.2,34,92.8,34z M89.4,30.6
			c0.2,0.6,1.1,3.2,3.3,3.2h0.1c2.7,0,3.5-2.5,3.7-3.2l-2.8-1.5L89.4,30.6z"/>
		<path class="st1" d="M41.1,28c0,0,0.8,3.4,3.5,3.4c2.7,0,3.7-2.1,3.9-3.4l-2.9-1.6L41.1,28z"/>
		<path class="st2" d="M44.7,31.6C44.6,31.6,44.6,31.6,44.7,31.6c-2.8-0.1-3.7-3.5-3.7-3.5V28l4.7-1.6l3,1.6v0.1
			C48.3,29.8,47.1,31.6,44.7,31.6z M41.2,28.1c0.2,0.6,1.1,3.2,3.3,3.2h0.1c2.7,0,3.5-2.5,3.7-3.2l-2.8-1.5L41.2,28.1z"/>
		<path class="st1" d="M48.5,28c0,0,0.8,3.4,3.5,3.4s3.7-2.1,3.9-3.4L53,26.4L48.5,28z"/>
		<path class="st2" d="M52.1,31.6C52,31.6,52,31.6,52.1,31.6c-2.8-0.1-3.7-3.5-3.7-3.5V28l4.7-1.6l3,1.6v0.1
			C55.7,29.8,54.5,31.6,52.1,31.6z M48.6,28.1c0.2,0.6,1.1,3.2,3.3,3.2H52c2.7,0,3.5-2.5,3.7-3.2l-2.8-1.5L48.6,28.1z"/>
		<path class="st1" d="M55.9,28c0,0,0.8,3.4,3.5,3.4c2.7,0,3.7-2.1,3.9-3.4l-2.9-1.6L55.9,28z"/>
		<path class="st2" d="M59.5,31.6C59.5,31.6,59.4,31.6,59.5,31.6c-2.8-0.1-3.7-3.5-3.7-3.5V28l4.7-1.6l3,1.6v0.1
			C63.1,29.8,61.9,31.6,59.5,31.6z M56.1,28.1c0.2,0.6,1.1,3.2,3.3,3.2h0.1c2.7,0,3.5-2.5,3.7-3.2l-2.8-1.5L56.1,28.1z"/>
		<path class="st1" d="M63.3,28c0,0,0.8,3.4,3.5,3.4c2.7,0,3.7-2.1,3.9-3.4l-2.9-1.6L63.3,28z"/>
		<path class="st2" d="M66.9,31.6C66.9,31.6,66.8,31.6,66.9,31.6c-2.8-0.1-3.7-3.5-3.7-3.5V28l4.7-1.6l3,1.6v0.1
			C70.5,29.8,69.3,31.6,66.9,31.6z M63.5,28.1c0.2,0.6,1.1,3.2,3.3,3.2h0.1c2.7,0,3.5-2.5,3.7-3.2l-2.8-1.5L63.5,28.1z"/>
		<path class="st1" d="M70.7,28c0,0,0.8,3.4,3.5,3.4c2.7,0,3.7-2.1,3.9-3.4l-2.9-1.6L70.7,28z"/>
		<path class="st2" d="M74.3,31.6c-2.8-0.1-3.7-3.5-3.7-3.5V28l4.7-1.6l3,1.6v0.1C77.9,29.8,76.7,31.6,74.3,31.6z M70.9,28.1
			c0.2,0.6,1.1,3.2,3.3,3.2h0.1c2.7,0,3.5-2.5,3.7-3.2l-2.8-1.5L70.9,28.1z"/>
		<path class="st1" d="M78.1,28c0,0,0.8,3.4,3.5,3.4c2.7,0,3.7-2.1,3.9-3.4l-2.9-1.6L78.1,28z"/>
		<path class="st2" d="M81.7,31.6c-2.8-0.1-3.7-3.5-3.7-3.5V28l4.7-1.6l3,1.6v0.1C85.3,29.8,84.1,31.6,81.7,31.6z M78.3,28.1
			c0.2,0.6,1.1,3.2,3.3,3.2h0.1c2.7,0,3.5-2.5,3.7-3.2l-2.8-1.5L78.3,28.1z"/>
		<path class="st1" d="M85.6,28c0,0,0.8,3.4,3.5,3.4c2.7,0,3.7-2.1,3.9-3.4l-2.9-1.6L85.6,28z"/>
		<path class="st2" d="M89.1,31.6c-2.8-0.1-3.7-3.5-3.7-3.5V28l4.7-1.6l3,1.6v0.1C92.7,29.8,91.5,31.6,89.1,31.6z M85.7,28.1
			c0.2,0.6,1.1,3.2,3.3,3.2h0.1c2.7,0,3.5-2.5,3.7-3.2L90,26.6L85.7,28.1z"/>
		<path class="st1" d="M44.8,25.5c0,0,0.8,3.4,3.5,3.4s3.7-2.1,3.9-3.4l-2.9-1.6L44.8,25.5z"/>
		<path class="st2" d="M48.4,29.1C48.3,29.1,48.3,29.1,48.4,29.1c-2.8-0.1-3.7-3.5-3.7-3.5v-0.1l4.7-1.6l3,1.6v0.1
			C52,27.3,50.8,29.1,48.4,29.1z M44.9,25.6c0.2,0.6,1.1,3.2,3.3,3.2h0.1c2.7,0,3.5-2.5,3.7-3.2l-2.8-1.5L44.9,25.6z"/>
		<path class="st1" d="M52.2,25.5c0,0,0.8,3.4,3.5,3.4s3.7-2.1,3.9-3.4l-2.9-1.6L52.2,25.5z"/>
		<path class="st2" d="M55.8,29.1C55.8,29.1,55.7,29.1,55.8,29.1c-2.8-0.1-3.7-3.5-3.7-3.5v-0.1l4.7-1.6l3,1.6v0.1
			C59.4,27.3,58.2,29.1,55.8,29.1z M52.4,25.6c0.2,0.6,1.1,3.2,3.3,3.2h0.1c2.7,0,3.5-2.5,3.7-3.2l-2.8-1.5L52.4,25.6z"/>
		<path class="st1" d="M59.6,25.5c0,0,0.8,3.4,3.5,3.4s3.7-2.1,3.9-3.4l-2.9-1.6L59.6,25.5z"/>
		<path class="st2" d="M63.2,29.1C63.2,29.1,63.1,29.1,63.2,29.1c-2.8-0.1-3.7-3.5-3.7-3.5v-0.1l4.7-1.6l3,1.6v0.1
			C66.8,27.3,65.6,29.1,63.2,29.1z M59.8,25.6c0.2,0.6,1.1,3.2,3.3,3.2h0.1c2.7,0,3.5-2.5,3.7-3.2l-2.8-1.5L59.8,25.6z"/>
		<path class="st1" d="M67,25.5c0,0,0.8,3.4,3.5,3.4c2.7,0,3.7-2.1,3.9-3.4l-2.9-1.6L67,25.5z"/>
		<path class="st2" d="M70.6,29.1C70.6,29.1,70.5,29.1,70.6,29.1c-2.8-0.1-3.7-3.5-3.7-3.5v-0.1l4.7-1.6l3,1.6v0.1
			C74.2,27.3,73,29.1,70.6,29.1z M67.2,25.6c0.2,0.6,1.1,3.2,3.3,3.2h0.1c2.7,0,3.5-2.5,3.7-3.2l-2.8-1.5L67.2,25.6z"/>
		<path class="st1" d="M74.4,25.5c0,0,0.8,3.4,3.5,3.4c2.7,0,3.7-2.1,3.9-3.4l-2.9-1.6L74.4,25.5z"/>
		<path class="st2" d="M78,29.1c-2.8-0.1-3.7-3.5-3.7-3.5v-0.1l4.7-1.6l3,1.6v0.1C81.6,27.3,80.4,29.1,78,29.1z M74.6,25.6
			c0.2,0.6,1.1,3.2,3.3,3.2H78c2.7,0,3.5-2.5,3.7-3.2l-2.8-1.5L74.6,25.6z"/>
		<path class="st1" d="M81.8,25.5c0,0,0.8,3.4,3.5,3.4c2.7,0,3.7-2.1,3.9-3.4l-2.9-1.6L81.8,25.5z"/>
		<path class="st2" d="M85.4,29.1c-2.8-0.1-3.7-3.5-3.7-3.5v-0.1l4.7-1.6l3,1.6v0.1C89,27.3,87.8,29.1,85.4,29.1z M82,25.6
			c0.2,0.6,1.1,3.2,3.3,3.2h0.1c2.7,0,3.5-2.5,3.7-3.2l-2.8-1.5L82,25.6z"/>
		<path class="st2" d="M92.8,29.1c-2.8-0.1-3.7-3.5-3.7-3.5v-0.1l4.7-1.6l3,1.6v0.1C96.4,27.3,95.2,29.1,92.8,29.1z M89.4,25.6
			c0.2,0.6,1.1,3.2,3.3,3.2c2.8,0,3.6-2.5,3.8-3.2l-2.8-1.5L89.4,25.6z"/>
		<path class="st1" d="M41.1,23.1c0,0,0.8,3.4,3.5,3.4c2.7,0,3.7-2.1,3.9-3.4l-2.9-1.6L41.1,23.1z"/>
		<path class="st2" d="M44.7,26.6C44.6,26.6,44.6,26.6,44.7,26.6c-2.8-0.1-3.7-3.5-3.7-3.5V23l4.7-1.6l3,1.6v0.1
			C48.3,24.8,47.1,26.6,44.7,26.6z M41.2,23.1c0.2,0.6,1.1,3.2,3.3,3.2h0.1c2.7,0,3.5-2.5,3.7-3.2l-2.8-1.5L41.2,23.1z"/>
		<path class="st1" d="M48.5,23.1c0,0,0.8,3.4,3.5,3.4s3.7-2.1,3.9-3.4L53,21.5L48.5,23.1z"/>
		<path class="st2" d="M52.1,26.6C52,26.6,52,26.6,52.1,26.6c-2.8-0.1-3.7-3.5-3.7-3.5V23l4.7-1.6l3,1.6v0.1
			C55.7,24.8,54.5,26.6,52.1,26.6z M48.6,23.1c0.2,0.6,1.1,3.2,3.3,3.2H52c2.7,0,3.5-2.5,3.7-3.2l-2.8-1.5L48.6,23.1z"/>
		<path class="st1" d="M55.9,23.1c0,0,0.8,3.4,3.5,3.4c2.7,0,3.7-2.1,3.9-3.4l-2.9-1.6L55.9,23.1z"/>
		<path class="st2" d="M59.5,26.6C59.5,26.6,59.4,26.6,59.5,26.6c-2.8-0.1-3.7-3.5-3.7-3.5V23l4.7-1.6l3,1.6v0.1
			C63.1,24.8,61.9,26.6,59.5,26.6z M56.1,23.1c0.2,0.6,1.1,3.2,3.3,3.2h0.1c2.7,0,3.5-2.5,3.7-3.2l-2.8-1.5L56.1,23.1z"/>
		<path class="st1" d="M63.3,23.1c0,0,0.8,3.4,3.5,3.4c2.7,0,3.7-2.1,3.9-3.4l-2.9-1.6L63.3,23.1z"/>
		<path class="st2" d="M66.9,26.6C66.9,26.6,66.8,26.6,66.9,26.6c-2.8-0.1-3.7-3.5-3.7-3.5V23l4.7-1.6l3,1.6v0.1
			C70.5,24.8,69.3,26.6,66.9,26.6z M63.5,23.1c0.2,0.6,1.1,3.2,3.3,3.2h0.1c2.7,0,3.5-2.5,3.7-3.2l-2.8-1.5L63.5,23.1z"/>
		<path class="st1" d="M70.7,23.1c0,0,0.8,3.4,3.5,3.4c2.7,0,3.7-2.1,3.9-3.4l-2.9-1.6L70.7,23.1z"/>
		<path class="st2" d="M74.3,26.6c-2.8-0.1-3.7-3.5-3.7-3.5V23l4.7-1.6l3,1.6v0.1C77.9,24.8,76.7,26.6,74.3,26.6z M70.9,23.1
			c0.2,0.6,1.1,3.2,3.3,3.2h0.1c2.7,0,3.5-2.5,3.7-3.2l-2.8-1.5L70.9,23.1z"/>
		<path class="st1" d="M78.1,23.1c0,0,0.8,3.4,3.5,3.4c2.7,0,3.7-2.1,3.9-3.4l-2.9-1.6L78.1,23.1z"/>
		<path class="st2" d="M81.7,26.6c-2.8-0.1-3.7-3.5-3.7-3.5V23l4.7-1.6l3,1.6v0.1C85.3,24.8,84.1,26.6,81.7,26.6z M78.3,23.1
			c0.2,0.6,1.1,3.2,3.3,3.2h0.1c2.7,0,3.5-2.5,3.7-3.2l-2.8-1.5L78.3,23.1z"/>
		<path class="st1" d="M85.6,23.1c0,0,0.8,3.4,3.5,3.4c2.7,0,3.7-2.1,3.9-3.4l-2.9-1.6L85.6,23.1z"/>
		<path class="st2" d="M89.1,26.6c-2.8-0.1-3.7-3.5-3.7-3.5V23l4.7-1.6l3,1.6v0.1C92.7,24.8,91.5,26.6,89.1,26.6z M85.7,23.1
			c0.2,0.6,1.1,3.2,3.3,3.2h0.1c2.7,0,3.5-2.5,3.7-3.2L90,21.6L85.7,23.1z"/>
		<path class="st1" d="M44.8,20.6c0,0,0.8,3.4,3.5,3.4s3.7-2.1,3.9-3.4L49.3,19L44.8,20.6z"/>
		<path class="st2" d="M48.4,24.1C48.3,24.1,48.3,24.1,48.4,24.1c-2.8-0.1-3.7-3.5-3.7-3.5v-0.1l4.7-1.6l3,1.6v0.1
			C52,22.3,50.8,24.1,48.4,24.1z M44.9,20.7c0.2,0.6,1.1,3.2,3.3,3.2h0.1c2.7,0,3.5-2.5,3.7-3.2l-2.8-1.5L44.9,20.7z"/>
		<path class="st1" d="M52.2,20.6c0,0,0.8,3.4,3.5,3.4s3.7-2.1,3.9-3.4L56.7,19L52.2,20.6z"/>
		<path class="st2" d="M55.8,24.1C55.8,24.1,55.7,24.1,55.8,24.1c-2.8-0.1-3.7-3.5-3.7-3.5v-0.1l4.7-1.6l3,1.6v0.1
			C59.4,22.3,58.2,24.1,55.8,24.1z M52.4,20.7c0.2,0.6,1.1,3.2,3.3,3.2h0.1c2.7,0,3.5-2.5,3.7-3.2l-2.8-1.5L52.4,20.7z"/>
		<path class="st1" d="M59.6,20.6c0,0,0.8,3.4,3.5,3.4s3.7-2.1,3.9-3.4L64.1,19L59.6,20.6z"/>
		<path class="st2" d="M63.2,24.1C63.2,24.1,63.1,24.1,63.2,24.1c-2.8-0.1-3.7-3.5-3.7-3.5v-0.1l4.7-1.6l3,1.6v0.1
			C66.8,22.3,65.6,24.1,63.2,24.1z M59.8,20.7c0.2,0.6,1.1,3.2,3.3,3.2h0.1c2.7,0,3.5-2.5,3.7-3.2l-2.8-1.5L59.8,20.7z"/>
		<path class="st1" d="M67,20.6c0,0,0.8,3.4,3.5,3.4c2.7,0,3.7-2.1,3.9-3.4L71.5,19L67,20.6z"/>
		<path class="st2" d="M70.6,24.1C70.6,24.1,70.5,24.1,70.6,24.1c-2.8-0.1-3.7-3.5-3.7-3.5v-0.1l4.7-1.6l3,1.6v0.1
			C74.2,22.3,73,24.1,70.6,24.1z M67.2,20.7c0.2,0.6,1.1,3.2,3.3,3.2h0.1c2.7,0,3.5-2.5,3.7-3.2l-2.8-1.5L67.2,20.7z"/>
		<path class="st1" d="M74.4,20.6c0,0,0.8,3.4,3.5,3.4c2.7,0,3.7-2.1,3.9-3.4L78.9,19L74.4,20.6z"/>
		<path class="st2" d="M78,24.1c-2.8-0.1-3.7-3.5-3.7-3.5v-0.1l4.7-1.6l3,1.6v0.1C81.6,22.3,80.4,24.1,78,24.1z M74.6,20.7
			c0.2,0.6,1.1,3.2,3.3,3.2H78c2.7,0,3.5-2.5,3.7-3.2l-2.8-1.5L74.6,20.7z"/>
		<path class="st1" d="M81.8,20.6c0,0,0.8,3.4,3.5,3.4c2.7,0,3.7-2.1,3.9-3.4L86.3,19L81.8,20.6z"/>
		<path class="st2" d="M85.4,24.1c-2.8-0.1-3.7-3.5-3.7-3.5v-0.1l4.7-1.6l3,1.6v0.1C89,22.3,87.8,24.1,85.4,24.1z M82,20.7
			c0.2,0.6,1.1,3.2,3.3,3.2h0.1c2.7,0,3.5-2.5,3.7-3.2l-2.8-1.5L82,20.7z"/>
		<path class="st2" d="M92.8,24.1c-2.8-0.1-3.7-3.5-3.7-3.5v-0.1l4.7-1.6l3,1.6v0.1C96.4,22.3,95.2,24.1,92.8,24.1z M89.4,20.7
			c0.2,0.6,1.1,3.2,3.3,3.2c2.8,0.1,3.6-2.5,3.8-3.2l-2.8-1.5L89.4,20.7z"/>
		<path class="st1" d="M41.1,18.1c0,0,0.8,3.4,3.5,3.4c2.7,0,3.7-2.1,3.9-3.4l-2.9-1.6L41.1,18.1z"/>
		<path class="st2" d="M44.7,21.7C44.6,21.7,44.6,21.7,44.7,21.7c-2.8-0.1-3.7-3.5-3.7-3.5v-0.1l4.7-1.6l3,1.6v0.1
			C48.3,19.9,47.1,21.7,44.7,21.7z M41.2,18.2c0.2,0.6,1.1,3.2,3.3,3.2h0.1c2.7,0,3.5-2.5,3.7-3.2l-2.8-1.5L41.2,18.2z"/>
		<path class="st1" d="M48.5,18.1c0,0,0.8,3.4,3.5,3.4s3.7-2.1,3.9-3.4L53,16.5L48.5,18.1z"/>
		<path class="st2" d="M52.1,21.7C52,21.7,52,21.7,52.1,21.7c-2.8-0.1-3.7-3.5-3.7-3.5v-0.1l4.7-1.6l3,1.6v0.1
			C55.7,19.9,54.5,21.7,52.1,21.7z M48.6,18.2c0.2,0.6,1.1,3.2,3.3,3.2H52c2.7,0,3.5-2.5,3.7-3.2l-2.8-1.5L48.6,18.2z"/>
		<path class="st1" d="M55.9,18.1c0,0,0.8,3.4,3.5,3.4c2.7,0,3.7-2.1,3.9-3.4l-2.9-1.6L55.9,18.1z"/>
		<path class="st2" d="M59.5,21.7C59.5,21.7,59.4,21.7,59.5,21.7c-2.8-0.1-3.7-3.5-3.7-3.5v-0.1l4.7-1.6l3,1.6v0.1
			C63.1,19.9,61.9,21.7,59.5,21.7z M56.1,18.2c0.2,0.6,1.1,3.2,3.3,3.2h0.1c2.7,0,3.5-2.5,3.7-3.2l-2.8-1.5L56.1,18.2z"/>
		<path class="st1" d="M63.3,18.1c0,0,0.8,3.4,3.5,3.4c2.7,0,3.7-2.1,3.9-3.4l-2.9-1.6L63.3,18.1z"/>
		<path class="st2" d="M66.9,21.7C66.9,21.7,66.8,21.7,66.9,21.7c-2.8-0.1-3.7-3.5-3.7-3.5v-0.1l4.7-1.6l3,1.6v0.1
			C70.5,19.9,69.3,21.7,66.9,21.7z M63.5,18.2c0.2,0.6,1.1,3.2,3.3,3.2h0.1c2.7,0,3.5-2.5,3.7-3.2l-2.8-1.5L63.5,18.2z"/>
		<path class="st1" d="M70.7,18.1c0,0,0.8,3.4,3.5,3.4c2.7,0,3.7-2.1,3.9-3.4l-2.9-1.6L70.7,18.1z"/>
		<path class="st2" d="M74.3,21.7c-2.8-0.1-3.7-3.5-3.7-3.5v-0.1l4.7-1.6l3,1.6v0.1C77.9,19.9,76.7,21.7,74.3,21.7z M70.9,18.2
			c0.2,0.6,1.1,3.2,3.3,3.2h0.1c2.7,0,3.5-2.5,3.7-3.2l-2.8-1.5L70.9,18.2z"/>
		<path class="st1" d="M78.1,18.1c0,0,0.8,3.4,3.5,3.4c2.7,0,3.7-2.1,3.9-3.4l-2.9-1.6L78.1,18.1z"/>
		<path class="st2" d="M81.7,21.7c-2.8-0.1-3.7-3.5-3.7-3.5v-0.1l4.7-1.6l3,1.6v0.1C85.3,19.9,84.1,21.7,81.7,21.7z M78.3,18.2
			c0.2,0.6,1.1,3.2,3.3,3.2h0.1c2.7,0,3.5-2.5,3.7-3.2l-2.8-1.5L78.3,18.2z"/>
		<path class="st1" d="M85.6,18.1c0,0,0.8,3.4,3.5,3.4c2.7,0,3.7-2.1,3.9-3.4l-2.9-1.6L85.6,18.1z"/>
		<path class="st2" d="M89.1,21.7c-2.8-0.1-3.7-3.5-3.7-3.5v-0.1l4.7-1.6l3,1.6v0.1C92.7,19.9,91.5,21.7,89.1,21.7z M85.7,18.2
			c0.2,0.6,1.1,3.2,3.3,3.2h0.1c2.7,0,3.5-2.5,3.7-3.2L90,16.7L85.7,18.2z"/>
		<path class="st1" d="M44.8,15.6c0,0,0.8,3.4,3.5,3.4s3.7-2.1,3.9-3.4L49.3,14L44.8,15.6z"/>
		<path class="st2" d="M48.4,19.2C48.3,19.2,48.3,19.2,48.4,19.2c-2.8-0.1-3.7-3.5-3.7-3.5v-0.1l4.7-1.6l3,1.6v0.1
			C52,17.4,50.8,19.2,48.4,19.2z M44.9,15.7c0.2,0.6,1.1,3.2,3.3,3.2h0.1c2.7,0,3.5-2.5,3.7-3.2l-2.8-1.5L44.9,15.7z"/>
		<path class="st1" d="M52.2,15.6c0,0,0.8,3.4,3.5,3.4s3.7-2.1,3.9-3.4L56.7,14L52.2,15.6z"/>
		<path class="st2" d="M55.8,19.2C55.8,19.2,55.7,19.2,55.8,19.2c-2.8-0.1-3.7-3.5-3.7-3.5v-0.1l4.7-1.6l3,1.6v0.1
			C59.4,17.4,58.2,19.2,55.8,19.2z M52.4,15.7c0.2,0.6,1.1,3.2,3.3,3.2h0.1c2.7,0,3.5-2.5,3.7-3.2l-2.8-1.5L52.4,15.7z"/>
		<path class="st1" d="M59.6,15.6c0,0,0.8,3.4,3.5,3.4s3.7-2.1,3.9-3.4L64.1,14L59.6,15.6z"/>
		<path class="st2" d="M63.2,19.2C63.2,19.2,63.1,19.2,63.2,19.2c-2.8-0.1-3.7-3.5-3.7-3.5v-0.1l4.7-1.6l3,1.6v0.1
			C66.8,17.4,65.6,19.2,63.2,19.2z M59.8,15.7c0.2,0.6,1.1,3.2,3.3,3.2h0.1c2.7,0,3.5-2.5,3.7-3.2l-2.8-1.5L59.8,15.7z"/>
		<path class="st1" d="M67,15.6c0,0,0.8,3.4,3.5,3.4c2.7,0,3.7-2.1,3.9-3.4L71.5,14L67,15.6z"/>
		<path class="st2" d="M70.6,19.2C70.6,19.2,70.5,19.2,70.6,19.2c-2.8-0.1-3.7-3.5-3.7-3.5v-0.1l4.7-1.6l3,1.6v0.1
			C74.2,17.4,73,19.2,70.6,19.2z M67.2,15.7c0.2,0.6,1.1,3.2,3.3,3.2h0.1c2.7,0,3.5-2.5,3.7-3.2l-2.8-1.5L67.2,15.7z"/>
		<path class="st1" d="M74.4,15.6c0,0,0.8,3.4,3.5,3.4c2.7,0,3.7-2.1,3.9-3.4L78.9,14L74.4,15.6z"/>
		<path class="st2" d="M78,19.2c-2.8-0.1-3.7-3.5-3.7-3.5v-0.1L79,14l3,1.6v0.1C81.6,17.4,80.4,19.2,78,19.2z M74.6,15.7
			c0.2,0.6,1.1,3.2,3.3,3.2H78c2.7,0,3.5-2.5,3.7-3.2l-2.8-1.5L74.6,15.7z"/>
		<path class="st1" d="M81.8,15.6c0,0,0.8,3.4,3.5,3.4c2.7,0,3.7-2.1,3.9-3.4L86.3,14L81.8,15.6z"/>
		<path class="st2" d="M85.4,19.2c-2.8-0.1-3.7-3.5-3.7-3.5v-0.1l4.7-1.6l3,1.6v0.1C89,17.4,87.8,19.2,85.4,19.2z M82,15.7
			c0.2,0.6,1.1,3.2,3.3,3.2h0.1c2.7,0,3.5-2.5,3.7-3.2l-2.8-1.5L82,15.7z"/>
		<path class="st2" d="M92.8,19.2c-2.8-0.1-3.7-3.5-3.7-3.5v-0.1l4.7-1.6l3,1.6v0.1C96.4,17.4,95.2,19.2,92.8,19.2z M89.4,15.7
			c0.2,0.6,1.1,3.2,3.3,3.2h0.1c2.7,0,3.5-2.5,3.7-3.2l-2.8-1.5L89.4,15.7z"/>
		<path class="st1" d="M41.1,13.2c0,0,0.8,3.4,3.5,3.4c2.7,0,3.7-2.1,3.9-3.4l-2.9-1.6L41.1,13.2z"/>
		<path class="st2" d="M44.7,16.7C44.6,16.7,44.6,16.7,44.7,16.7c-2.8-0.1-3.7-3.5-3.7-3.5v-0.1l4.7-1.6l3,1.6v0.1
			C48.3,14.9,47.1,16.7,44.7,16.7z M41.2,13.2c0.2,0.6,1.1,3.2,3.3,3.2h0.1c2.7,0,3.5-2.5,3.7-3.2l-2.8-1.5L41.2,13.2z"/>
		<path class="st1" d="M48.5,13.2c0,0,0.8,3.4,3.5,3.4s3.7-2.1,3.9-3.4L53,11.6L48.5,13.2z"/>
		<path class="st2" d="M52.1,16.7C52,16.7,52,16.7,52.1,16.7c-2.8-0.1-3.7-3.5-3.7-3.5v-0.1l4.7-1.6l3,1.6v0.1
			C55.7,14.9,54.5,16.7,52.1,16.7z M48.6,13.2c0.2,0.6,1.1,3.2,3.3,3.2H52c2.7,0,3.5-2.5,3.7-3.2l-2.8-1.5L48.6,13.2z"/>
		<path class="st1" d="M55.9,13.2c0,0,0.8,3.4,3.5,3.4c2.7,0,3.7-2.1,3.9-3.4l-2.9-1.6L55.9,13.2z"/>
		<path class="st2" d="M59.5,16.7C59.5,16.7,59.4,16.7,59.5,16.7c-2.8-0.1-3.7-3.5-3.7-3.5v-0.1l4.7-1.6l3,1.6v0.1
			C63.1,14.9,61.9,16.7,59.5,16.7z M56.1,13.2c0.2,0.6,1.1,3.2,3.3,3.2h0.1c2.7,0,3.5-2.5,3.7-3.2l-2.8-1.5L56.1,13.2z"/>
		<path class="st1" d="M63.3,13.2c0,0,0.8,3.4,3.5,3.4c2.7,0,3.7-2.1,3.9-3.4l-2.9-1.6L63.3,13.2z"/>
		<path class="st2" d="M66.9,16.7C66.9,16.7,66.8,16.7,66.9,16.7c-2.8-0.1-3.7-3.5-3.7-3.5v-0.1l4.7-1.6l3,1.6v0.1
			C70.5,14.9,69.3,16.7,66.9,16.7z M63.5,13.2c0.2,0.6,1.1,3.2,3.3,3.2h0.1c2.7,0,3.5-2.5,3.7-3.2l-2.8-1.5L63.5,13.2z"/>
		<path class="st1" d="M70.7,13.2c0,0,0.8,3.4,3.5,3.4c2.7,0,3.7-2.1,3.9-3.4l-2.9-1.6L70.7,13.2z"/>
		<path class="st2" d="M74.3,16.7c-2.8-0.1-3.7-3.5-3.7-3.5v-0.1l4.7-1.6l3,1.6v0.1C77.9,14.9,76.7,16.7,74.3,16.7z M70.9,13.2
			c0.2,0.6,1.1,3.2,3.3,3.2h0.1c2.7,0,3.5-2.5,3.7-3.2l-2.8-1.5L70.9,13.2z"/>
		<path class="st1" d="M78.1,13.2c0,0,0.8,3.4,3.5,3.4c2.7,0,3.7-2.1,3.9-3.4l-2.9-1.6L78.1,13.2z"/>
		<path class="st2" d="M81.7,16.7c-2.8-0.1-3.7-3.5-3.7-3.5v-0.1l4.7-1.6l3,1.6v0.1C85.3,14.9,84.1,16.7,81.7,16.7z M78.3,13.2
			c0.2,0.6,1.1,3.2,3.3,3.2h0.1c2.7,0,3.5-2.5,3.7-3.2l-2.8-1.5L78.3,13.2z"/>
		<path class="st1" d="M85.6,13.2c0,0,0.8,3.4,3.5,3.4c2.7,0,3.7-2.1,3.9-3.4l-2.9-1.6L85.6,13.2z"/>
		<path class="st2" d="M89.1,16.7c-2.8-0.1-3.7-3.5-3.7-3.5v-0.1l4.7-1.6l3,1.6v0.1C92.7,14.9,91.5,16.7,89.1,16.7z M85.7,13.2
			c0.2,0.6,1.1,3.2,3.3,3.2h0.1c2.7,0,3.5-2.5,3.7-3.2L90,11.7L85.7,13.2z"/>
		<path class="st1" d="M44.8,10.7c0,0,0.8,3.4,3.5,3.4s3.7-2.1,3.9-3.4l-2.9-1.6L44.8,10.7z"/>
		<path class="st2" d="M48.4,14.2C48.3,14.2,48.3,14.2,48.4,14.2c-2.8-0.1-3.7-3.5-3.7-3.5v-0.1L49.4,9l3,1.6v0.1
			C52,12.4,50.8,14.2,48.4,14.2z M44.9,10.8c0.2,0.6,1.1,3.2,3.3,3.2h0.1c2.7,0,3.5-2.5,3.7-3.2l-2.8-1.5L44.9,10.8z"/>
		<path class="st1" d="M52.2,10.7c0,0,0.8,3.4,3.5,3.4s3.7-2.1,3.9-3.4l-2.9-1.6L52.2,10.7z"/>
		<path class="st2" d="M55.8,14.2C55.8,14.2,55.7,14.2,55.8,14.2c-2.8-0.1-3.7-3.5-3.7-3.5v-0.1L56.8,9l3,1.6v0.1
			C59.4,12.4,58.2,14.2,55.8,14.2z M52.4,10.8c0.2,0.6,1.1,3.2,3.3,3.2h0.1c2.7,0,3.5-2.5,3.7-3.2l-2.8-1.5L52.4,10.8z"/>
		<path class="st1" d="M59.6,10.7c0,0,0.8,3.4,3.5,3.4s3.7-2.1,3.9-3.4l-2.9-1.6L59.6,10.7z"/>
		<path class="st2" d="M63.2,14.2C63.2,14.2,63.1,14.2,63.2,14.2c-2.8-0.1-3.7-3.5-3.7-3.5v-0.1L64.2,9l3,1.6v0.1
			C66.8,12.4,65.6,14.2,63.2,14.2z M59.8,10.8c0.2,0.6,1.1,3.2,3.3,3.2h0.1c2.7,0,3.5-2.5,3.7-3.2l-2.8-1.5L59.8,10.8z"/>
		<path class="st1" d="M67,10.7c0,0,0.8,3.4,3.5,3.4c2.7,0,3.7-2.1,3.9-3.4l-2.9-1.6L67,10.7z"/>
		<path class="st2" d="M70.6,14.2C70.6,14.2,70.5,14.2,70.6,14.2c-2.8-0.1-3.7-3.5-3.7-3.5v-0.1L71.6,9l3,1.6v0.1
			C74.2,12.4,73,14.2,70.6,14.2z M67.2,10.8c0.2,0.6,1.1,3.2,3.3,3.2h0.1c2.7,0,3.5-2.5,3.7-3.2l-2.8-1.5L67.2,10.8z"/>
		<path class="st1" d="M74.4,10.7c0,0,0.8,3.4,3.5,3.4c2.7,0,3.7-2.1,3.9-3.4l-2.9-1.6L74.4,10.7z"/>
		<path class="st2" d="M78,14.2c-2.8-0.1-3.7-3.5-3.7-3.5v-0.1L79,9l3,1.6v0.1C81.6,12.4,80.4,14.2,78,14.2z M74.6,10.8
			c0.2,0.6,1.1,3.2,3.3,3.2H78c2.7,0,3.5-2.5,3.7-3.2l-2.8-1.5L74.6,10.8z"/>
		<path class="st1" d="M81.8,10.7c0,0,0.8,3.4,3.5,3.4c2.7,0,3.7-2.1,3.9-3.4l-2.9-1.6L81.8,10.7z"/>
		<path class="st2" d="M85.4,14.2c-2.8-0.1-3.7-3.5-3.7-3.5v-0.1L86.4,9l3,1.6v0.1C89,12.4,87.8,14.2,85.4,14.2z M82,10.8
			c0.2,0.6,1.1,3.2,3.3,3.2h0.1c2.7,0,3.5-2.5,3.7-3.2l-2.8-1.5L82,10.8z"/>
		<path class="st2" d="M92.8,14.2c-2.8-0.1-3.7-3.5-3.7-3.5v-0.1L93.8,9l3,1.6v0.1C96.4,12.4,95.2,14.2,92.8,14.2z M89.4,10.8
			c0.2,0.6,1.1,3.2,3.3,3.2c2.8,0,3.6-2.5,3.8-3.2l-2.8-1.5L89.4,10.8z"/>
		<path class="st1" d="M41.1,8.2c0,0,0.8,3.4,3.5,3.4c2.7,0,3.7-2.1,3.9-3.4l-2.9-1.6L41.1,8.2z"/>
		<path class="st2" d="M44.7,11.8C44.6,11.8,44.6,11.8,44.7,11.8C41.9,11.7,41,8.3,41,8.3V8.2l4.7-1.6l3,1.6v0.1
			C48.3,10,47.1,11.8,44.7,11.8z M41.2,8.3c0.2,0.6,1.1,3.2,3.3,3.2h0.1c2.7,0,3.5-2.5,3.7-3.2l-2.8-1.5L41.2,8.3z"/>
		<path class="st1" d="M48.5,8.2c0,0,0.8,3.4,3.5,3.4s3.7-2.1,3.9-3.4L53,6.7L48.5,8.2z"/>
		<path class="st2" d="M52.1,11.8C52,11.8,52,11.8,52.1,11.8c-2.8-0.1-3.7-3.5-3.7-3.5V8.2l4.7-1.6l3,1.6v0.1
			C55.7,10,54.5,11.8,52.1,11.8z M48.6,8.3c0.2,0.6,1.1,3.2,3.3,3.2H52c2.7,0,3.5-2.5,3.7-3.2L53,6.8L48.6,8.3z"/>
		<path class="st1" d="M55.9,8.2c0,0,0.8,3.4,3.5,3.4c2.7,0,3.7-2.1,3.9-3.4l-2.9-1.6L55.9,8.2z"/>
		<path class="st2" d="M59.5,11.8C59.5,11.8,59.4,11.8,59.5,11.8c-2.8-0.1-3.7-3.5-3.7-3.5V8.2l4.7-1.6l3,1.6v0.1
			C63.1,10,61.9,11.8,59.5,11.8z M56.1,8.3c0.2,0.6,1.1,3.2,3.3,3.2h0.1c2.7,0,3.5-2.5,3.7-3.2l-2.8-1.5L56.1,8.3z"/>
		<path class="st1" d="M63.3,8.2c0,0,0.8,3.4,3.5,3.4c2.7,0,3.7-2.1,3.9-3.4l-2.9-1.6L63.3,8.2z"/>
		<path class="st2" d="M66.9,11.8C66.9,11.8,66.8,11.8,66.9,11.8c-2.8-0.1-3.7-3.5-3.7-3.5V8.2l4.7-1.6l3,1.6v0.1
			C70.5,10,69.3,11.8,66.9,11.8z M63.5,8.3c0.2,0.6,1.1,3.2,3.3,3.2h0.1c2.7,0,3.5-2.5,3.7-3.2l-2.8-1.5L63.5,8.3z"/>
		<path class="st1" d="M70.7,8.2c0,0,0.8,3.4,3.5,3.4c2.7,0,3.7-2.1,3.9-3.4l-2.9-1.6L70.7,8.2z"/>
		<path class="st2" d="M74.3,11.8c-2.8-0.1-3.7-3.5-3.7-3.5V8.2l4.7-1.6l3,1.6v0.1C77.9,10,76.7,11.8,74.3,11.8z M70.9,8.3
			c0.2,0.6,1.1,3.2,3.3,3.2h0.1c2.7,0,3.5-2.5,3.7-3.2l-2.8-1.5L70.9,8.3z"/>
		<path class="st1" d="M78.1,8.2c0,0,0.8,3.4,3.5,3.4c2.7,0,3.7-2.1,3.9-3.4l-2.9-1.6L78.1,8.2z"/>
		<path class="st2" d="M81.7,11.8C78.9,11.7,78,8.3,78,8.3V8.2l4.7-1.6l3,1.6v0.1C85.3,10,84.1,11.8,81.7,11.8z M78.3,8.3
			c0.2,0.6,1.1,3.2,3.3,3.2h0.1c2.7,0,3.5-2.5,3.7-3.2l-2.8-1.5L78.3,8.3z"/>
		<path class="st1" d="M85.6,8.2c0,0,0.8,3.4,3.5,3.4c2.7,0,3.7-2.1,3.9-3.4l-3-1.5L85.6,8.2z"/>
		<path class="st2" d="M89.1,11.8c-2.8-0.1-3.7-3.5-3.7-3.5V8.2l4.7-1.6l3,1.6v0.1C92.7,10,91.5,11.8,89.1,11.8z M85.7,8.3
			c0.2,0.6,1.1,3.2,3.3,3.2h0.1c2.7,0,3.5-2.5,3.7-3.2L90,6.8L85.7,8.3z"/>
		<path class="st1" d="M44.8,6.4c0,0,0.8,3.4,3.5,3.4s3.7-2.1,3.9-3.4l-2.9-1.6L44.8,6.4z"/>
		<path class="st2" d="M48.4,10C48.3,10,48.3,10,48.4,10c-2.8-0.1-3.7-3.5-3.7-3.5V6.4l4.7-1.6l3,1.6v0.1C52,8.2,50.8,10,48.4,10z
			 M44.9,6.5c0.2,0.6,1.1,3.2,3.3,3.2h0.1c2.7,0,3.5-2.5,3.7-3.2L49.3,5L44.9,6.5z"/>
		<path class="st1" d="M52.2,6.4c0,0,0.8,3.4,3.5,3.4s3.7-2.1,3.9-3.4l-2.9-1.6L52.2,6.4z"/>
		<path class="st2" d="M55.8,10C55.8,10,55.7,10,55.8,10c-2.8-0.1-3.7-3.5-3.7-3.5V6.4l4.7-1.6l3,1.6v0.1C59.4,8.2,58.2,10,55.8,10z
			 M52.4,6.5c0.2,0.6,1.1,3.2,3.3,3.2h0.1c2.7,0,3.5-2.5,3.7-3.2L56.7,5L52.4,6.5z"/>
		<path class="st1" d="M59.6,6.4c0,0,0.8,3.4,3.5,3.4s3.7-2.1,3.9-3.4l-2.9-1.6L59.6,6.4z"/>
		<path class="st2" d="M63.2,10C63.2,10,63.1,10,63.2,10c-2.8-0.1-3.7-3.5-3.7-3.5V6.4l4.7-1.6l3,1.6v0.1C66.8,8.2,65.6,10,63.2,10z
			 M59.8,6.5c0.2,0.6,1.1,3.2,3.3,3.2h0.1c2.7,0,3.5-2.5,3.7-3.2L64.1,5L59.8,6.5z"/>
		<path class="st1" d="M67,6.4c0,0,0.8,3.4,3.5,3.4c2.7,0,3.7-2.1,3.9-3.4l-2.9-1.6L67,6.4z"/>
		<path class="st2" d="M70.6,10C70.6,10,70.5,10,70.6,10c-2.8-0.1-3.7-3.5-3.7-3.5V6.4l4.7-1.6l3,1.6v0.1C74.2,8.2,73,10,70.6,10z
			 M67.2,6.5c0.2,0.6,1.1,3.2,3.3,3.2h0.1c2.7,0,3.5-2.5,3.7-3.2L71.5,5L67.2,6.5z"/>
		<path class="st1" d="M74.4,6.4c0,0,0.8,3.4,3.5,3.4c2.7,0,3.7-2.1,3.9-3.4l-2.9-1.6L74.4,6.4z"/>
		<path class="st2" d="M78,10c-2.8-0.1-3.7-3.5-3.7-3.5V6.4L79,4.8l3,1.6v0.1C81.6,8.2,80.4,10,78,10z M74.6,6.5
			c0.2,0.6,1.1,3.2,3.3,3.2H78c2.7,0,3.5-2.5,3.7-3.2L78.9,5L74.6,6.5z"/>
		<path class="st1" d="M81.8,6.4c0,0,0.8,3.4,3.5,3.4c2.7,0,3.7-2.1,3.9-3.4l-2.9-1.6L81.8,6.4z"/>
		<path class="st2" d="M85.4,10c-2.8-0.1-3.7-3.5-3.7-3.5V6.4l4.7-1.6l3,1.6v0.1C89,8.2,87.8,10,85.4,10z M82,6.5
			c0.2,0.6,1.1,3.2,3.3,3.2h0.1c2.7,0,3.5-2.5,3.7-3.2L86.3,5L82,6.5z"/>
		<path class="st2" d="M92.8,10c-2.8-0.1-3.7-3.5-3.7-3.5V6.4l4.7-1.6l3,1.6v0.1C96.4,8.2,95.2,10,92.8,10z M89.4,6.5
			c0.2,0.6,1.1,3.2,3.3,3.2c2.8,0,3.6-2.5,3.8-3.2L93.7,5L89.4,6.5z"/>
	</g>
</g>
<path class="st3" d="M27.8,10.7H17.6v25.5h10.2V10.7z"/>
<path class="st4" d="M28.7,11.9h-12c-0.7,0-1.2-0.5-1.2-1.2V8.2C15.5,7.5,16,7,16.7,7h12c0.7,0,1.2,0.5,1.2,1.2v2.5
	C29.9,11.4,29.4,11.9,28.7,11.9z"/>
<path class="st4" d="M27.8,16.1H17.6v1h10.2V16.1z"/>
<path class="st4" d="M23.2,10.6h-1v6h1V10.6z"/>
<path class="st4" d="M23.2,21.3h-1V27h1V21.3z"/>
<path class="st4" d="M27.8,21.2H17.6v1h10.2V21.2z"/>
<path class="st4" d="M27.8,26.2H17.6v1h10.2V26.2z"/>
<path class="st4" d="M27.8,30.7H17.6v1h10.2V30.7z"/>
<path class="st3" d="M89.8,130.6L8.9,131V42.3L49.4,3l40.4,40.7V130.6z"/>
<path class="st4" d="M89.9,83.6h-81v6.1h81V83.6z"/>
<path class="st5" d="M24.5,112.7C24.4,112.7,24.4,112.7,24.5,112.7c-0.2-0.2-0.2-0.3-0.1-0.4l5-4.9c0.1-0.1,0.2-0.1,0.3,0
	s0.1,0.2,0,0.3l-5,4.9C24.6,112.7,24.5,112.7,24.5,112.7z"/>
<path class="st5" d="M33,114.4C32.9,114.4,32.9,114.4,33,114.4c-0.2-0.2-0.2-0.3-0.1-0.4l5-4.9c0.1-0.1,0.2-0.1,0.3,0s0.1,0.2,0,0.3
	l-5,4.9C33.1,114.4,33,114.4,33,114.4z"/>
<path class="st6" d="M29.6,96.3h0.7c5.4,0,9.7,4.4,9.7,9.7v24.6H19.8V106C19.8,100.6,24.2,96.3,29.6,96.3z"/>
<path class="st7" d="M29.6,98.2h0.6c4.6,0,8.3,3.7,8.3,8.3v23.8c0,0.2-0.1,0.3-0.3,0.3H21.7c-0.2,0-0.3-0.1-0.3-0.3v-23.8
	C21.4,101.9,25.1,98.2,29.6,98.2z"/>
<path class="st8" d="M22.8,122.9L22.8,122.9c-0.2-0.1-0.2-0.1-0.1-0.2l11.9-11.8c0.1-0.1,0.1-0.1,0.2,0c0.1,0.1,0.1,0.1,0,0.2
	l-11.9,11.8C22.9,122.9,22.9,122.9,22.8,122.9z"/>
<path class="st8" d="M22.8,123C22.8,123,22.7,123,22.8,123c-0.2-0.2-0.2-0.3-0.1-0.3l11.9-11.8c0.1-0.1,0.2-0.1,0.2,0
	c0.1,0.1,0.1,0.2,0,0.2L23,122.9C22.9,123,22.9,123,22.8,123z M34.7,110.9l-12,11.8c0,0,0,0.1,0,0.2c0,0,0.1,0,0.2,0l11.9-11.8
	C34.9,111,34.9,111,34.7,110.9C34.8,110.9,34.8,110.9,34.7,110.9z"/>
<path class="st8" d="M29.7,120.3C29.7,120.3,29.6,120.3,29.7,120.3c-0.1,0-0.1-0.1-0.1-0.1l6.2-5.7h0.1v0.1L29.7,120.3z"/>
<path class="st8" d="M29.7,120.4h-0.1v-0.1v-0.1l6.2-5.7c0.1-0.1,0.2-0.1,0.2,0v0.1v0.1l-6.2,5.7H29.7z"/>
<path class="st8" d="M25.8,115.6c-0.1-0.1-0.1-0.1-0.1-0.2l8.9-8.5c0,0,0.1,0,0.2,0v0.1L25.8,115.6
	C25.9,115.6,25.9,115.6,25.8,115.6z"/>
<path class="st8" d="M25.8,115.7c0,0-0.1,0-0.1-0.1l-0.1-0.1c0,0,0-0.1,0.1-0.1l8.9-8.5c0.1-0.1,0.2-0.1,0.3,0L35,107
	c0,0,0,0.1-0.1,0.1l-8.9,8.5C25.9,115.7,25.9,115.7,25.8,115.7z M34.8,106.9l-9,8.5L34.8,106.9C34.8,107,34.8,107,34.8,106.9
	C34.8,107,34.8,107,34.8,106.9z"/>
<path class="st9" d="M77.2,99.6H58.3v18.1h18.9V99.6z"/>
<path class="st10" d="M64.2,106.2c-0.1-0.1-0.1-0.2-0.1-0.2l3.1-3.1c0.1-0.1,0.1,0,0.2,0c0.1,0.1,0,0.1,0,0.2L64.2,106.2
	C64.3,106.2,64.3,106.2,64.2,106.2z"/>
<path class="st10" d="M66.2,109.5C66.2,109.5,66.1,109.5,66.2,109.5c-0.1-0.1-0.1-0.2-0.1-0.2l3.1-3.1c0.1-0.1,0.1,0,0.2,0
	c0.1,0.1,0,0.1,0,0.2L66.2,109.5C66.2,109.5,66.3,109.5,66.2,109.5z"/>
<path class="st10" d="M62.8,109.3C62.7,109.3,62.7,109.3,62.8,109.3c-0.1-0.1-0.1-0.2-0.1-0.2l10-8.9c0.1,0,0.1,0,0.2,0
	c0,0.1,0,0.1,0,0.2L62.8,109.3z"/>
<path class="st6" d="M68.3,99.6h-1.1v18.7h1.1V99.6z"/>
<path class="st6" d="M77.2,104.6H58.3v1.1h18.9V104.6z"/>
<path class="st6" d="M77.2,110.7H58.3v1.1h18.9V110.7z"/>
<path class="st6" d="M79.3,96.1h-23v3.5h23V96.1z"/>
<path class="st6" d="M79.3,116.6h-23v3.5h23V116.6z"/>
<path class="st9" d="M37.2,47.6H17.4v24.6h19.8V47.6z"/>
<path class="st10" d="M23.4,60.3C23.4,60.3,23.3,60.2,23.4,60.3c-0.1-0.1-0.1-0.2-0.1-0.2l2.8-2.7c0,0,0.1,0,0.2,0c0,0,0,0.1,0,0.2
	L23.4,60.3C23.4,60.3,23.4,60.2,23.4,60.3z"/>
<path class="st10" d="M26.8,60.7c-0.1-0.1-0.1-0.2-0.1-0.2l2.8-2.7c0,0,0.1,0,0.2,0c0,0,0,0.1,0,0.2L26.8,60.7
	C26.9,60.7,26.9,60.7,26.8,60.7z"/>
<path class="st10" d="M22.1,63C22.1,63,22,63,22.1,63C22,62.9,22,62.8,22,62.8l8.9-7.9c0,0,0.1,0,0.2,0c0,0,0,0.1,0,0.2L22.1,63
	C22.1,63,22.2,63,22.1,63z"/>
<path class="st6" d="M27.8,47.6h-0.9v25.8h0.9V47.6z"/>
<path class="st6" d="M37.2,55.4H17.5v0.9h19.7V55.4z"/>
<path class="st6" d="M37.2,63.6H17.5v0.9h19.7V63.6z"/>
<path class="st6" d="M37,74.6H17.7c-0.6,0-1.2-0.5-1.2-1.2c0-0.6,0.5-1.2,1.2-1.2H37c0.6,0,1.2,0.5,1.2,1.2
	C38.1,74,37.6,74.6,37,74.6z"/>
<path class="st9" d="M81.3,47.6H61.5v24.6h19.8V47.6z"/>
<path class="st10" d="M67.5,60.3C67.4,60.3,67.4,60.2,67.5,60.3c-0.1-0.1-0.1-0.2-0.1-0.2l2.8-2.7c0,0,0.1,0,0.2,0c0,0,0,0.1,0,0.2
	L67.5,60.3C67.5,60.3,67.5,60.2,67.5,60.3z"/>
<path class="st10" d="M70.9,60.7C70.9,60.7,70.8,60.7,70.9,60.7c-0.1-0.1-0.1-0.2-0.1-0.2l2.8-2.7c0,0,0.1,0,0.2,0c0,0,0,0.1,0,0.2
	L70.9,60.7C70.9,60.7,71,60.7,70.9,60.7z"/>
<path class="st10" d="M66.2,63C66.2,63,66.1,63,66.2,63c-0.1-0.1-0.1-0.2-0.1-0.2l8.9-7.9c0,0,0.1,0,0.2,0c0,0,0,0.1,0,0.2L66.2,63z
	"/>
<path class="st6" d="M71.9,47.6H71v25.8h0.9V47.6z"/>
<path class="st6" d="M81.2,55.4H61.5v0.9h19.7V55.4z"/>
<path class="st6" d="M81.2,63.6H61.5v0.9h19.7V63.6z"/>
<path class="st6" d="M81,74.6H61.7c-0.6,0-1.2-0.5-1.2-1.2c0-0.6,0.5-1.2,1.2-1.2H81c0.6,0,1.2,0.5,1.2,1.2
	C82.2,74,81.7,74.6,81,74.6z"/>
<path class="st4" d="M75.2,37h-6.7v3.5h6.7V37z"/>
<path class="st4" d="M17.5,92.7h-6.7v3.5h6.7V92.7z"/>
<path class="st4" d="M12.7,97H8.9v3.5h3.8V97z"/>
<path class="st4" d="M89.8,109H86v3.5h3.8V109z"/>
<path class="st4" d="M81.9,41.8h-3.8v3.5h3.8V41.8z"/>
<path class="st4" d="M39.8,32.5h-5.3V36h5.3V32.5z"/>
<path class="st11" d="M8.9,42.3v6.4l38.8-36.4c1-0.9,2.5-0.9,3.4,0l38.8,36.4v-5L50.6,5.1L8.9,42.3z"/>
<path class="st12" d="M48.6,0.3l-46.2,45c-0.7,0.7-0.2,1.9,0.8,1.9h4.4c0.3,0,0.6-0.1,0.8-0.3L48.7,8.5c0.4-0.4,1.1-0.4,1.5,0
	l40.3,38.4c0.2,0.2,0.5,0.3,0.8,0.3h4.4c1,0,1.5-1.2,0.8-1.9l-46.2-45C49.7-0.1,49-0.1,48.6,0.3z"/>
<path class="st13" d="M90.8,130.8c2.6-0.5,4.6-2.9,4.8-5.6c0-0.5,0-0.9-0.2-1.3c-0.4-0.9-1.5-1.3-2.5-1.3c-1,0.1-1.9,0.5-2.8,0.9
	c2.1-2.7,3.7-6.4,2.3-9.6c-0.4-0.8-1.1-1.7-2-1.7c-1,0-1.7,0.9-2.2,1.7c-1.3,2.1-2.5,4.3-3.5,6.5c-0.4-2.4-1.1-5-3.2-6.2
	c-0.3-0.2-0.6-0.3-1-0.3c-0.3,0-0.6,0.2-0.9,0.5c-1.8,1.7-1.6,4.6-1.3,7c-0.5-1.6-2.8-2.2-4.3-1.5c-1.6,0.7-2.5,2.4-2.8,4.1
	c-0.3,1.4-0.2,2.8,0.4,4c0.6,1.2,2,2.8,3.4,2.7"/>
<path class="st13" d="M4.7,130.5c-2.1-0.4-3.8-2.4-3.9-4.6c0-0.4,0-0.8,0.2-1.1c0.3-0.7,1.2-1.1,2-1c0.8,0,1.5,0.4,2.3,0.8
	c-1.7-2.2-3-5.3-1.9-7.8c0.3-0.7,0.9-1.4,1.6-1.4c0.8,0,1.4,0.7,1.8,1.4c1.1,1.7,2.1,3.5,2.8,5.3c0.3-1.9,0.9-4.1,2.6-5.1
	c0.2-0.2,0.5-0.3,0.8-0.2c0.3,0,0.5,0.2,0.7,0.4c1.5,1.4,1.3,3.7,1.1,5.7c0.4-1.3,2.3-1.8,3.5-1.2c1.3,0.6,2,2,2.3,3.4
	c0.2,1.1,0.2,2.3-0.3,3.3s-1.6,2.3-2.8,2.2"/>
<path class="st14" d="M8.2,131h81.5l3.3,4H4L8.2,131z"/>
</svg>
