<svg width="154" height="136" viewBox="0 0 154 136" fill="none" xmlns="http://www.w3.org/2000/svg">
<path d="M47.8603 118.204H47.7572C47.6541 118.1 47.6541 117.997 47.7572 117.997L51.5718 114.286C51.6749 114.183 51.778 114.183 51.778 114.286C51.8811 114.389 51.8811 114.492 51.778 114.492L47.9634 118.204H47.8603Z" fill="#C4AA90"/>
<path d="M54.3554 119.544H54.2523C54.1492 119.441 54.1492 119.338 54.2523 119.338L58.0669 115.626C58.17 115.523 58.2731 115.523 58.2731 115.626C58.3762 115.729 58.3762 115.832 58.2731 115.832L54.4585 119.544C54.4585 119.544 54.3554 119.544 54.3554 119.544Z" fill="#C4AA90"/>
<path d="M46.6231 126.039C46.52 126.039 46.52 126.039 46.6231 126.039C46.52 125.936 46.52 125.936 46.52 125.833L55.5926 116.76C55.5926 116.76 55.6956 116.76 55.7987 116.76C55.7987 116.76 55.7987 116.863 55.7987 116.966L46.6231 126.039Z" fill="#C4AA90"/>
<path d="M46.6231 126.039C46.52 126.039 46.52 126.039 46.6231 126.039C46.52 125.936 46.52 125.833 46.52 125.833L55.5926 116.76C55.6957 116.76 55.6956 116.76 55.7987 116.76C55.9018 116.863 55.7987 116.863 55.7987 116.966L46.6231 126.039ZM55.6956 116.863L46.52 125.936V126.039H46.6231L55.6956 116.966C55.7987 116.966 55.7987 116.863 55.6956 116.863Z" fill="#C4AA90"/>
<path d="M51.7779 124.08C51.7779 123.977 51.7779 123.977 51.7779 124.08L56.4173 119.647H56.5204V119.75L51.7779 124.08C51.881 124.08 51.881 124.08 51.7779 124.08Z" fill="#C4AA90"/>
<path d="M51.7779 124.08C51.6748 123.977 51.6748 123.977 51.6748 123.977V123.874L56.4173 119.441C56.4173 119.441 56.5204 119.441 56.6235 119.441C56.6235 119.441 56.6235 119.441 56.6235 119.544V119.647L51.7779 124.08C51.881 124.08 51.881 124.08 51.7779 124.08Z" fill="#C4AA90"/>
<path d="M48.8914 120.473C48.8914 120.473 48.7883 120.473 48.8914 120.473C48.7883 120.37 48.7883 120.37 48.7883 120.37L55.5927 113.875H55.6958V113.978L48.8914 120.473Z" fill="#C4AA90"/>
<path d="M48.8913 120.472C48.7882 120.472 48.7882 120.472 48.8913 120.472C48.7882 120.368 48.7882 120.368 48.7882 120.368V120.265L55.5926 113.77C55.6957 113.77 55.6957 113.77 55.7988 113.77V113.873V113.976L48.8913 120.472C48.8913 120.472 48.9944 120.472 48.8913 120.472ZM55.6957 113.77L48.7882 120.265L55.6957 113.77C55.7988 113.873 55.7988 113.873 55.6957 113.77C55.7988 113.873 55.7988 113.873 55.6957 113.77Z" fill="#C4AA90"/>
<path d="M31.9832 131.709C22.3952 132.122 13.0133 132.225 9.30184 129.441C5.59034 126.657 4.97176 119.75 9.19875 117.791C4.55937 115.729 0.435478 111.502 0.538575 106.45C0.641672 101.399 7.0337 97.0685 11.0545 100.161C8.99255 94.2849 7.1368 87.2742 10.8483 82.3256C14.5598 77.3769 21.6735 77.2738 27.7563 77.48C24.9726 70.7787 27.1377 62.3247 32.9111 57.9946C38.6846 53.5614 47.3447 53.6645 53.1182 58.0977C54.7677 53.5614 61.4691 52.7367 65.3868 55.6234C69.3045 58.407 71.0571 63.3557 72.1912 68.0982C76.9337 87.8928 74.9748 108.512 73.1191 128.822" fill="#497C54"/>
<path d="M139.101 131.503C144.153 131.503 147.452 131.194 150.442 128.719C151.679 127.688 153.123 126.657 153.535 125.111C153.947 123.564 153.226 121.606 151.679 121.193C152.607 120.884 153.02 119.75 153.123 118.719C153.329 116.451 152.504 114.079 150.648 112.636C148.793 111.193 145.803 111.193 144.153 112.842C145.184 111.605 144.669 109.646 143.328 108.512C142.091 107.481 140.339 107.172 138.586 106.863C137.555 106.656 136.524 106.553 135.39 106.656C133.947 106.76 132.606 107.275 131.472 107.997C128.585 109.749 126.42 112.636 125.699 115.832C124.977 119.028 125.699 122.533 127.658 125.214C128.895 126.967 131.06 128.513 133.225 127.791" fill="#497C54"/>
<path d="M138.725 131.556H43.463V25.2625L138.725 26.1956V131.556Z" fill="#E5E6E8"/>
<path opacity="0.3" d="M51.2624 43.6641L138.792 131.709H71.6757L51.2624 43.6641Z" fill="#CDCFCE"/>
<path opacity="0.1" d="M43.5301 23.8694V30.0552L138.792 33.0393V24.7915L43.5301 23.8694Z" fill="#59698B"/>
<path d="M130.439 22.6504L130.954 1" stroke="#59698B" stroke-width="1.5" stroke-miterlimit="10" stroke-linecap="round" stroke-linejoin="round"/>
<path d="M127.552 12.0314L134.563 10.6912" stroke="#59698B" stroke-width="1.5" stroke-miterlimit="10" stroke-linecap="round" stroke-linejoin="round"/>
<path d="M127.449 6.25806L136.831 6.36114" stroke="#59698B" stroke-width="1.5" stroke-miterlimit="10" stroke-linecap="round" stroke-linejoin="round"/>
<path d="M118.688 48.3035H105.285V66.3455H118.688V48.3035Z" fill="#5CA09F"/>
<path opacity="0.4" d="M119.822 68.2012H103.945C103.43 68.2012 103.017 67.7888 103.017 67.2733C103.017 66.7578 103.43 66.3455 103.945 66.3455H119.822C120.338 66.3455 120.75 66.7578 120.75 67.2733C120.75 67.7888 120.338 68.2012 119.822 68.2012Z" fill="#59698B"/>
<path d="M119.822 67.9949H103.945C103.43 67.9949 103.017 67.5825 103.017 67.067C103.017 66.5515 103.43 66.1392 103.945 66.1392H119.822C120.338 66.1392 120.75 66.5515 120.75 67.067C120.75 67.5825 120.338 67.9949 119.822 67.9949Z" fill="#59698B"/>
<path d="M109.1 58.4071C108.997 58.4071 108.997 58.4071 109.1 58.4071C108.997 58.304 108.997 58.304 108.997 58.2009L111.265 56.0359H111.368V56.139L109.1 58.4071Z" fill="#87CCC9"/>
<path d="M110.44 60.7785C110.44 60.7785 110.44 60.6754 110.44 60.7785C110.337 60.6754 110.337 60.6753 110.337 60.5722L112.606 58.4072H112.709V58.5103L110.44 60.7785C110.44 60.7785 110.544 60.6754 110.44 60.7785Z" fill="#87CCC9"/>
<path d="M112.708 52.0153C112.708 52.0153 112.605 52.0153 112.708 52.0153C112.605 51.9122 112.605 51.9122 112.605 51.8091L114.873 49.644H114.977V49.7471L112.708 52.0153Z" fill="#87CCC9"/>
<path d="M108.069 60.5723C108.069 60.5723 107.966 60.5723 108.069 60.5723C107.966 60.4692 107.966 60.4692 107.966 60.3661L114.977 54.0771H115.08V54.1803L108.069 60.5723Z" fill="#87CCC9"/>
<path d="M112.296 48.3035H111.574V66.9641H112.296V48.3035Z" fill="#5A6A8C"/>
<path d="M118.688 54.283H105.285V55.0046H118.688V54.283Z" fill="#5A6A8C"/>
<path d="M118.688 61.603H105.285V62.3247H118.688V61.603Z" fill="#5A6A8C"/>
<path d="M77.1398 48.3035H63.7372V66.3455H77.1398V48.3035Z" fill="#5CA09F"/>
<path opacity="0.4" d="M78.274 68.2012H62.5001C61.9846 68.2012 61.5722 67.7888 61.5722 67.2733C61.5722 66.7578 61.9846 66.3455 62.5001 66.3455H78.3771C78.8925 66.3455 79.3049 66.7578 79.3049 67.2733C79.2018 67.7888 78.7895 68.2012 78.274 68.2012Z" fill="#59698B"/>
<path d="M78.274 67.9949H62.5001C61.9846 67.9949 61.5722 67.5825 61.5722 67.067C61.5722 66.5515 61.9846 66.1392 62.5001 66.1392H78.3771C78.8925 66.1392 79.3049 66.5515 79.3049 67.067C79.2018 67.5825 78.7895 67.9949 78.274 67.9949Z" fill="#59698B"/>
<path d="M67.5518 58.4071C67.5518 58.4071 67.4487 58.4071 67.5518 58.4071C67.4487 58.304 67.4487 58.304 67.4487 58.2009L69.7168 56.0359H69.8199V56.139L67.5518 58.4071Z" fill="#87CCC9"/>
<path d="M68.8921 60.7785C68.8921 60.7785 68.8921 60.6754 68.8921 60.7785C68.789 60.6754 68.789 60.6753 68.789 60.5722L71.0571 58.4072H71.1602V58.5103L68.8921 60.7785C68.8921 60.7785 68.9952 60.6754 68.8921 60.7785Z" fill="#87CCC9"/>
<path d="M71.1602 52.0153C71.1602 52.0153 71.0571 52.0153 71.1602 52.0153C71.0571 51.9122 71.0571 51.9122 71.0571 51.8091L73.3252 49.644H73.4283V49.7471L71.1602 52.0153Z" fill="#87CCC9"/>
<path d="M66.5208 60.5723C66.5208 60.5723 66.4177 60.5723 66.5208 60.5723C66.4177 60.4692 66.4177 60.4692 66.4177 60.3661L73.4283 54.0771H73.5314V54.1803L66.5208 60.5723Z" fill="#87CCC9"/>
<path d="M70.7478 48.3035H70.0261V66.9641H70.7478V48.3035Z" fill="#5A6A8C"/>
<path d="M77.1399 54.283H63.7372V55.0046H77.1399V54.283Z" fill="#5A6A8C"/>
<path d="M77.1397 61.603H63.7371V62.3247H77.1397V61.603Z" fill="#5A6A8C"/>
<path d="M118.688 88.9236H105.285V106.966H118.688V88.9236Z" fill="#5CA09F"/>
<path opacity="0.4" d="M119.822 108.822H103.945C103.43 108.822 103.017 108.409 103.017 107.894C103.017 107.378 103.43 106.966 103.945 106.966H119.822C120.338 106.966 120.75 107.378 120.75 107.894C120.75 108.409 120.338 108.822 119.822 108.822Z" fill="#59698B"/>
<path d="M119.822 108.615H103.945C103.43 108.615 103.017 108.203 103.017 107.687C103.017 107.172 103.43 106.76 103.945 106.76H119.822C120.338 106.76 120.75 107.172 120.75 107.687C120.75 108.203 120.338 108.615 119.822 108.615Z" fill="#59698B"/>
<path d="M109.1 99.0273C108.997 99.0273 108.997 99.0273 109.1 99.0273C108.997 98.9242 108.997 98.9242 108.997 98.8211L111.265 96.656H111.368V96.7591L109.1 99.0273Z" fill="#87CCC9"/>
<path d="M110.44 101.296C110.337 101.192 110.337 101.192 110.337 101.089L112.605 98.9243H112.709V99.0274L110.44 101.296C110.44 101.296 110.544 101.296 110.44 101.296Z" fill="#87CCC9"/>
<path d="M112.708 92.6354C112.708 92.6354 112.605 92.6354 112.708 92.6354C112.605 92.5323 112.605 92.5323 112.605 92.4292L114.873 90.2642H114.977V90.3673L112.708 92.6354Z" fill="#87CCC9"/>
<path d="M108.069 101.193C108.069 101.193 107.966 101.193 108.069 101.193C107.966 101.09 107.966 101.09 107.966 100.987L114.977 94.6978H115.08V94.8009L108.069 101.193Z" fill="#87CCC9"/>
<path d="M112.296 88.9236H111.574V107.584H112.296V88.9236Z" fill="#5A6A8C"/>
<path d="M118.688 94.9036H105.285V95.6252H118.688V94.9036Z" fill="#5A6A8C"/>
<path d="M118.688 102.223H105.285V102.945H118.688V102.223Z" fill="#5A6A8C"/>
<path d="M77.1398 88.9238H63.7372V106.966H77.1398V88.9238Z" fill="#5CA09F"/>
<path opacity="0.4" d="M78.2739 108.822H62.5C61.9845 108.822 61.5721 108.409 61.5721 107.894C61.5721 107.378 61.9845 106.966 62.5 106.966H78.377C78.8925 106.966 79.3049 107.378 79.3049 107.894C79.2018 108.409 78.7894 108.822 78.2739 108.822Z" fill="#59698B"/>
<path d="M78.2739 108.616H62.5C61.9845 108.616 61.5721 108.203 61.5721 107.688C61.5721 107.172 61.9845 106.76 62.5 106.76H78.377C78.8925 106.76 79.3049 107.172 79.3049 107.688C79.2018 108.203 78.7894 108.616 78.2739 108.616Z" fill="#59698B"/>
<path d="M67.5518 99.0275C67.5518 99.0275 67.4487 99.0275 67.5518 99.0275C67.4487 98.9244 67.4487 98.9244 67.4487 98.8213L69.7168 96.6562H69.8199V96.7594L67.5518 99.0275Z" fill="#87CCC9"/>
<path d="M68.892 101.296C68.7889 101.193 68.7889 101.193 68.7889 101.09L71.0571 98.9246H71.1602V99.0277L68.892 101.296C68.892 101.296 68.9951 101.296 68.892 101.296Z" fill="#87CCC9"/>
<path d="M71.1601 92.6356C71.1601 92.6356 71.057 92.6356 71.1601 92.6356C71.057 92.5325 71.057 92.5326 71.057 92.4295L73.3251 90.2644H73.4282V90.3675L71.1601 92.6356Z" fill="#87CCC9"/>
<path d="M66.5208 101.193C66.5208 101.193 66.4177 101.193 66.5208 101.193C66.4177 101.09 66.4177 101.09 66.4177 100.987L73.4283 94.698H73.5314V94.8011L66.5208 101.193Z" fill="#87CCC9"/>
<path d="M70.7477 88.9238H70.026V107.584H70.7477V88.9238Z" fill="#5A6A8C"/>
<path d="M77.1399 94.9038H63.7372V95.6255H77.1399V94.9038Z" fill="#5A6A8C"/>
<path d="M77.1397 102.224H63.737V102.945H77.1397V102.224Z" fill="#5A6A8C"/>
<path d="M37.8597 20.158V27.2717L144.462 28.9955V20.6335L37.8597 20.158Z" fill="#59698B"/>
<path d="M71.4135 131.463H27.2878V67.027L49.3507 45.1704L71.4135 70.0169V131.463Z" fill="#F5F6F8"/>
<path opacity="0.1" d="M71.6756 69.4383L51.2623 46.1383C50.6438 45.5197 49.7159 45.4166 49.0973 46.0352L27.55 67.9949V72.2219L49.0973 50.6746C49.7159 50.056 50.7469 50.056 51.2623 50.7777L71.6756 73.9746V69.4383Z" fill="#59698B"/>
<path d="M75.6965 71.3974L51.2624 43.5612C50.6438 42.9426 49.7159 42.8395 49.0973 43.4581L21.7766 71.2944C21.2611 71.9129 21.2611 72.7377 21.7766 73.3563C22.3952 73.9749 23.323 73.9749 23.9416 73.3563L49.3035 47.9944C49.9221 47.3758 50.9531 47.3758 51.4686 48.0975L73.4283 73.2532C73.9438 73.8718 74.8717 73.9749 75.4903 73.5625C76.1088 73.1501 76.2119 72.1191 75.6965 71.3974Z" fill="#59698B"/>
<path d="M53.015 62.4278C53.015 64.4898 51.3655 66.1393 49.3035 66.1393C47.2416 66.1393 45.592 64.4898 45.592 62.4278C45.592 60.3659 47.2416 58.7163 49.3035 58.7163C51.3655 58.7163 53.015 60.3659 53.015 62.4278Z" fill="#5CA09F"/>
<g opacity="0.3">
<g opacity="0.3">
<path opacity="0.3" d="M68.2735 101.192H61.3659V104.801H68.2735V101.192Z" fill="#CDCFCE"/>
</g>
</g>
<g opacity="0.3">
<g opacity="0.3">
<path opacity="0.3" d="M71.6757 105.419H67.3456V109.028H71.6757V105.419Z" fill="#CDCFCE"/>
</g>
</g>
<g opacity="0.3">
<g opacity="0.3">
<path opacity="0.3" d="M31.88 118.306H27.55V121.915H31.88V118.306Z" fill="#CDCFCE"/>
</g>
</g>
<g opacity="0.3">
<g opacity="0.3">
<path opacity="0.3" d="M63.0155 70.3662H57.3451V73.9746H63.0155V70.3662Z" fill="#CDCFCE"/>
</g>
</g>
<path d="M56.3142 74.4902H42.9116V92.5323H56.3142V74.4902Z" fill="#5CA09F"/>
<path opacity="0.4" d="M57.5513 94.491H41.6744C41.1589 94.491 40.7465 94.0786 40.7465 93.5631C40.7465 93.0476 41.1589 92.6353 41.6744 92.6353H57.5513C58.0668 92.6353 58.4792 93.0476 58.4792 93.5631C58.4792 94.0786 58.0668 94.491 57.5513 94.491Z" fill="#59698B"/>
<path d="M57.5513 94.2849H41.6744C41.1589 94.2849 40.7465 93.8726 40.7465 93.3571C40.7465 92.8416 41.1589 92.4292 41.6744 92.4292H57.5513C58.0668 92.4292 58.4792 92.8416 58.4792 93.3571C58.4792 93.8726 58.0668 94.2849 57.5513 94.2849Z" fill="#59698B"/>
<path d="M46.7261 86.7587C46.623 86.6556 46.623 86.6556 46.623 86.5525L48.8912 84.3875H48.9943V84.4906L46.7261 86.7587C46.8292 86.7587 46.8292 86.7587 46.7261 86.7587Z" fill="#87CCC9"/>
<path d="M48.1695 89.13C48.1695 89.13 48.0664 89.0269 48.1695 89.13C48.0664 89.0269 48.0664 89.0269 48.0664 88.9238L50.3346 86.7588H50.4377V86.8619L48.1695 89.13C48.1695 89.13 48.1695 89.0269 48.1695 89.13Z" fill="#87CCC9"/>
<path d="M50.3345 80.3668C50.2314 80.2637 50.2314 80.2637 50.2314 80.1606L52.4996 77.9956H52.6027V78.0987L50.3345 80.3668C50.4376 80.3668 50.4376 80.3668 50.3345 80.3668Z" fill="#87CCC9"/>
<path d="M45.6951 88.9238C45.592 88.8207 45.592 88.8207 45.592 88.7177L52.6027 82.4287H52.7058V82.5318L45.6951 88.9238C45.7982 88.9238 45.7982 88.9238 45.6951 88.9238Z" fill="#87CCC9"/>
<path d="M50.0253 74.4902H49.3036V93.1509H50.0253V74.4902Z" fill="#5A6A8C"/>
<path d="M56.3142 80.573H42.9116V81.2947H56.3142V80.573Z" fill="#5A6A8C"/>
<path d="M56.3142 87.7898H42.9116V88.5115H56.3142V87.7898Z" fill="#5A6A8C"/>
<g opacity="0.3">
<g opacity="0.3">
<path opacity="0.3" d="M128.895 72.7375H121.987V76.346H128.895V72.7375Z" fill="#C4C6C5"/>
</g>
</g>
<g opacity="0.3">
<g opacity="0.3">
<path opacity="0.3" d="M138.38 76.2427H133.946V79.8511H138.38V76.2427Z" fill="#C4C6C5"/>
</g>
</g>
<g opacity="0.3">
<g opacity="0.3">
<path opacity="0.3" d="M135.802 67.9949H128.895V71.6033H135.802V67.9949Z" fill="#C4C6C5"/>
</g>
</g>
<path d="M45.386 117.688H45.2829C45.1798 117.585 45.1798 117.482 45.2829 117.482L49.2006 113.667C49.3037 113.564 49.4068 113.564 49.4068 113.667C49.5098 113.77 49.5098 113.873 49.4068 113.873L45.4891 117.688H45.386Z" fill="#C4AA90"/>
<path d="M51.984 119.028H51.8809C51.7778 118.925 51.7778 118.822 51.8809 118.822L55.7986 115.007C55.9017 114.904 56.0048 114.904 56.0048 115.007C56.1079 115.11 56.1079 115.213 56.0048 115.213L52.0871 119.028C52.0871 119.028 52.0871 119.028 51.984 119.028Z" fill="#C4AA90"/>
<path d="M49.6129 103.65C53.943 103.65 57.5514 103.65 57.5514 103.65V131.709H41.6744L41.6744 103.65C41.6744 103.65 45.2828 103.65 49.6129 103.65Z" fill="#59698B"/>
<path d="M49.6129 104.894C53.3244 104.894 56.3142 104.894 56.3142 104.894L56.3142 131.4C56.3142 131.606 56.2111 131.709 56.0049 131.709H43.2209C43.0147 131.709 42.9116 131.606 42.9116 131.4L42.9116 104.894C42.9116 104.894 45.9014 104.894 49.6129 104.894Z" fill="#5CA09F"/>
<path d="M44.1488 125.73C44.0457 125.73 44.0457 125.73 44.1488 125.73C44.0457 125.627 44.0457 125.627 44.0457 125.524L53.3244 116.245C53.3244 116.245 53.4275 116.245 53.5306 116.245C53.5306 116.245 53.5306 116.348 53.5306 116.451L44.1488 125.73Z" fill="#E3E8E4"/>
<path d="M44.1488 125.729C44.0457 125.729 44.0457 125.729 44.1488 125.729C44.0457 125.626 44.0457 125.523 44.0457 125.523L53.3245 116.244C53.4276 116.141 53.4276 116.141 53.5307 116.244C53.6338 116.347 53.6338 116.347 53.5307 116.451L44.1488 125.729ZM53.4276 116.244L44.0457 125.523V125.626H44.1488L53.4276 116.347C53.5307 116.347 53.5307 116.347 53.4276 116.244Z" fill="#E3E8E4"/>
<path d="M49.4066 123.667C49.4066 123.667 49.4066 123.564 49.4066 123.667L54.1491 119.131H54.2522V119.234L49.4066 123.667C49.5097 123.667 49.5097 123.667 49.4066 123.667Z" fill="#E3E8E4"/>
<path d="M49.4067 123.667C49.3036 123.564 49.3036 123.564 49.3036 123.564V123.461L54.1492 118.925C54.1492 118.925 54.2523 118.925 54.3554 118.925V119.028V119.131L49.4067 123.667C49.5098 123.667 49.5098 123.667 49.4067 123.667Z" fill="#E3E8E4"/>
<path d="M46.4168 119.957C46.3137 119.854 46.3137 119.854 46.3137 119.854L53.3243 113.153H53.4274V113.256L46.4168 119.957C46.4168 119.957 46.5199 119.957 46.4168 119.957Z" fill="#E3E8E4"/>
<path d="M46.4171 120.059C46.4171 120.059 46.314 120.059 46.4171 120.059C46.314 119.956 46.314 119.956 46.314 119.956V119.853L53.3246 113.151C53.4277 113.048 53.4277 113.048 53.5308 113.151V113.254V113.358L46.4171 120.059C46.5202 120.059 46.5202 120.059 46.4171 120.059ZM53.4277 113.151L46.4171 119.853L53.4277 113.151C53.4277 113.151 53.4277 113.254 53.4277 113.151Z" fill="#E3E8E4"/>
<path opacity="0.2" d="M27.4242 131.645H139.718L144.246 136H21.6888L27.4242 131.645Z" fill="#1C1C1C"/>
<g clip-path="url(#clip0)">
<path d="M97.8984 133.574C99.9943 133.574 101.693 131.875 101.693 129.779C101.693 127.683 99.9943 125.984 97.8984 125.984C95.8025 125.984 94.1035 127.683 94.1035 129.779C94.1035 131.875 95.8025 133.574 97.8984 133.574Z" fill="#39404A"/>
<path d="M135.537 124.988C135.412 124.615 135.163 124.553 134.852 124.553C134.479 121.255 132.986 115.781 132.364 115.47C127.511 113.23 113.825 113.168 110.838 114.412C107.728 115.718 104.12 118.642 102.315 120.26C102.315 120.26 94.7256 121.38 92.4237 122.375C91.7394 122.686 90.433 126.046 90.433 126.046H90.1841C89.9975 126.046 89.8108 126.108 89.6864 126.294C89.562 126.419 89.4998 126.606 89.4998 126.792C89.562 127.228 89.6242 127.85 89.8731 128.534C90.3708 130.027 91.2417 131.023 92.797 131.023H93.4814C93.4814 131.023 93.4814 130.214 93.4814 129.778C93.4814 127.352 95.4721 125.361 97.8984 125.361C100.325 125.361 102.315 127.352 102.315 129.778C102.315 130.214 102.315 130.96 102.315 130.96H123.716C123.716 130.96 123.716 130.152 123.716 129.716C123.716 127.29 125.707 125.299 128.133 125.299C130.56 125.299 132.55 127.29 132.55 129.716C132.55 130.152 132.55 130.96 132.55 130.96H133.484C135.972 131.023 135.723 125.423 135.537 124.988Z" fill="#DD3B4A"/>
<path d="M128.196 133.574C130.292 133.574 131.991 131.875 131.991 129.779C131.991 127.683 130.292 125.984 128.196 125.984C126.1 125.984 124.401 127.683 124.401 129.779C124.401 131.875 126.1 133.574 128.196 133.574Z" fill="#39404A"/>
<path d="M100.325 129.779C100.325 131.147 99.2049 132.205 97.8984 132.205C96.592 132.205 95.4721 131.147 95.4721 129.779C95.4721 128.41 96.592 127.353 97.8984 127.353C99.2049 127.353 100.325 128.41 100.325 129.779ZM97.8984 127.601C97.7118 127.601 97.5251 127.601 97.5251 127.85C97.5251 128.099 97.7118 128.535 97.8984 128.535C98.085 128.535 98.2717 128.099 98.2717 127.85C98.2717 127.601 98.085 127.601 97.8984 127.601ZM96.6542 128.037C96.4675 128.161 96.3431 128.224 96.5297 128.472C96.6542 128.659 97.0274 128.908 97.2141 128.783C97.4007 128.659 97.2763 128.224 97.0896 128.037C96.903 127.788 96.7786 127.912 96.6542 128.037ZM95.8454 129.094C95.7832 129.281 95.721 129.468 95.9698 129.53C96.2187 129.592 96.6542 129.592 96.7164 129.406C96.7786 129.219 96.4053 128.908 96.2187 128.846C95.9698 128.783 95.9076 128.908 95.8454 129.094ZM95.8454 130.463C95.9076 130.65 95.9698 130.836 96.2187 130.712C96.4675 130.65 96.7786 130.339 96.7164 130.152C96.6542 129.965 96.2187 129.903 95.9698 130.028C95.721 130.09 95.7832 130.277 95.8454 130.463ZM96.6542 131.521C96.8408 131.645 96.9652 131.707 97.0896 131.521C97.2141 131.334 97.3385 130.899 97.2141 130.774C97.0274 130.65 96.6542 130.899 96.5297 131.085C96.3431 131.334 96.4675 131.396 96.6542 131.521ZM97.8984 131.956C98.085 131.956 98.2717 131.956 98.2717 131.707C98.2717 131.459 98.085 131.023 97.8984 131.023C97.7118 131.023 97.5251 131.459 97.5251 131.707C97.5251 131.956 97.7118 131.956 97.8984 131.956ZM99.2049 131.521C99.3915 131.396 99.5159 131.334 99.3293 131.085C99.2049 130.899 98.8316 130.65 98.6449 130.774C98.4583 130.899 98.5827 131.334 98.7694 131.521C98.8938 131.77 99.0182 131.645 99.2049 131.521ZM99.9514 130.463C100.014 130.277 100.076 130.09 99.827 130.028C99.5781 129.965 99.1426 129.965 99.0804 130.152C99.0182 130.339 99.3915 130.65 99.5781 130.712C99.8892 130.774 99.8892 130.65 99.9514 130.463ZM99.9514 129.094C99.8892 128.908 99.827 128.721 99.5781 128.846C99.3293 128.908 99.0182 129.219 99.0804 129.406C99.1426 129.592 99.5781 129.654 99.827 129.53C100.076 129.468 100.014 129.281 99.9514 129.094ZM99.2049 128.037C99.0182 127.912 98.8938 127.85 98.7694 128.037C98.6449 128.224 98.5205 128.659 98.6449 128.783C98.8316 128.908 99.2049 128.659 99.3293 128.472C99.4537 128.224 99.3293 128.161 99.2049 128.037ZM97.8984 128.908C97.4007 128.908 97.0274 129.281 97.0274 129.779C97.0274 130.277 97.4007 130.65 97.8984 130.65C98.3961 130.65 98.7694 130.277 98.7694 129.779C98.7694 129.281 98.3961 128.908 97.8984 128.908Z" fill="white"/>
<path d="M130.622 129.779C130.622 131.147 129.502 132.205 128.196 132.205C126.827 132.205 125.769 131.085 125.769 129.779C125.769 128.472 126.889 127.353 128.196 127.353C129.502 127.353 130.622 128.41 130.622 129.779ZM128.196 127.601C128.009 127.601 127.822 127.601 127.822 127.85C127.822 128.099 128.009 128.535 128.196 128.535C128.382 128.535 128.569 128.099 128.569 127.85C128.507 127.601 128.382 127.601 128.196 127.601ZM126.889 128.037C126.703 128.161 126.578 128.224 126.765 128.472C126.889 128.659 127.262 128.908 127.449 128.783C127.636 128.659 127.511 128.224 127.325 128.037C127.2 127.788 127.076 127.912 126.889 128.037ZM126.08 129.094C126.018 129.281 125.956 129.468 126.205 129.53C126.454 129.592 126.889 129.592 126.951 129.406C127.014 129.219 126.64 128.908 126.454 128.846C126.205 128.783 126.143 128.908 126.08 129.094ZM126.08 130.463C126.143 130.65 126.205 130.836 126.454 130.712C126.703 130.65 127.014 130.339 126.951 130.152C126.889 129.965 126.454 129.903 126.205 130.028C126.018 130.09 126.018 130.277 126.08 130.463ZM126.889 131.521C127.076 131.645 127.2 131.707 127.325 131.521C127.449 131.334 127.574 130.899 127.449 130.774C127.262 130.65 126.889 130.899 126.765 131.085C126.578 131.334 126.703 131.396 126.889 131.521ZM128.196 131.956C128.382 131.956 128.569 131.956 128.569 131.707C128.569 131.459 128.382 131.023 128.196 131.023C128.009 131.023 127.822 131.459 127.822 131.707C127.822 131.956 127.947 131.956 128.196 131.956ZM129.44 131.521C129.627 131.396 129.751 131.334 129.564 131.085C129.44 130.899 129.067 130.65 128.88 130.774C128.693 130.899 128.818 131.334 129.004 131.521C129.129 131.77 129.253 131.645 129.44 131.521ZM130.249 130.463C130.311 130.277 130.373 130.09 130.124 130.028C129.875 129.965 129.44 129.965 129.378 130.152C129.315 130.339 129.689 130.65 129.875 130.712C130.124 130.774 130.186 130.65 130.249 130.463ZM130.249 129.094C130.186 128.908 130.124 128.721 129.875 128.846C129.627 128.908 129.315 129.219 129.378 129.406C129.44 129.592 129.875 129.654 130.124 129.53C130.373 129.468 130.311 129.281 130.249 129.094ZM129.44 128.037C129.253 127.912 129.129 127.85 129.004 128.037C128.88 128.224 128.756 128.659 128.88 128.783C129.067 128.908 129.44 128.659 129.564 128.472C129.751 128.224 129.627 128.161 129.44 128.037ZM128.196 128.908C127.698 128.908 127.325 129.281 127.325 129.779C127.325 130.277 127.698 130.65 128.196 130.65C128.693 130.65 129.067 130.277 129.067 129.779C129.067 129.281 128.631 128.908 128.196 128.908Z" fill="white"/>
<path d="M110.963 114.724C109.719 115.221 106.173 117.772 104.12 119.39C103.933 119.514 103.871 119.763 103.933 119.949C103.995 120.136 104.182 120.323 104.431 120.323H114.198C114.447 120.323 114.633 120.136 114.696 119.949L116.064 114.039C113.825 114.164 111.834 114.413 110.963 114.724Z" fill="#87CCC9"/>
<path d="M130.622 120.323C130.684 120.323 130.746 120.26 130.809 120.26C130.871 120.198 130.871 120.136 130.871 120.074C130.497 118.643 130.062 117.025 129.813 116.154C129.689 115.781 129.378 115.47 128.942 115.346C128.382 115.159 127.822 115.035 127.2 114.91C127.138 114.91 127.138 114.91 127.076 114.91C127.076 114.91 127.014 114.972 127.014 115.035V120.198C127.014 120.26 127.076 120.385 127.2 120.385H130.622V120.323Z" fill="#87CCC9"/>
<path d="M117.122 114.039L117.06 114.35L116.5 119.763C116.5 119.887 116.562 120.074 116.624 120.136C116.749 120.26 116.873 120.323 116.997 120.323H126.329C126.329 120.323 126.391 120.323 126.391 120.26L126.454 114.599L126.205 114.35C123.716 113.977 119.113 113.977 117.122 114.039Z" fill="#87CCC9"/>
<path d="M115.38 129.654H104.182C103.435 129.654 102.813 129.219 102.44 128.597L102.315 128.348C102.191 128.099 102.129 127.788 102.129 127.477V121.878C102.129 120.074 109.034 115.532 111.025 114.724C111.896 114.35 113.762 114.101 116.127 113.977L116.811 113.915L115.442 121.567L115.38 129.654ZM116.5 114.101H116.064C113.7 114.226 111.896 114.475 111.025 114.848C108.91 115.719 102.253 120.26 102.253 121.816V127.415C102.253 127.664 102.315 127.975 102.44 128.224L102.564 128.472C102.875 129.095 103.435 129.406 104.12 129.406H115.131V121.567L116.5 114.101Z" fill="#39404A"/>
<path d="M122.41 129.654H115.193V121.567L116.562 113.915H117.06C117.495 113.915 119.05 113.915 119.486 113.915C122.285 113.915 124.401 114.039 126.08 114.288C126.329 114.35 126.454 114.537 126.454 114.724V119.576C126.454 120.385 126.329 121.131 126.018 121.878L123.405 128.97C123.281 129.343 122.908 129.654 122.41 129.654ZM115.38 129.468H122.472C122.845 129.468 123.219 129.219 123.343 128.846L125.956 121.754C126.205 121.007 126.391 120.26 126.391 119.514V114.661C126.391 114.537 126.267 114.412 126.143 114.412C124.338 114.164 122.285 114.039 119.486 114.039C119.05 114.039 117.495 114.039 117.06 114.039H116.686L115.318 121.505L115.38 129.468Z" fill="#39404A"/>
<path d="M93.0459 122.936C92.8592 122.936 92.3615 122.936 92.3615 122.936C91.8016 123.682 91.1795 125.175 90.9307 125.797C90.9307 125.797 92.3615 125.175 92.7348 124.429C93.0459 123.62 93.2325 122.936 93.0459 122.936Z" fill="#87CCC9"/>
</g>
<defs>
<clipPath id="clip0">
<rect x="89.4998" y="113.604" width="46.1613" height="19.97" fill="white"/>
</clipPath>
</defs>
</svg>
