<?xml version="1.0" encoding="utf-8"?>
<!-- Generator: Adobe Illustrator 22.1.0, SVG Export Plug-In . SVG Version: 6.00 Build 0)  -->
<svg version="1.1" id="Warstwa_1" xmlns="http://www.w3.org/2000/svg" xmlns:xlink="http://www.w3.org/1999/xlink" x="0px" y="0px"
	 viewBox="0 0 141 148" style="enable-background:new 0 0 141 148;" xml:space="preserve">
<style type="text/css">
	.st0{fill:#D3513C;}
	.st1{opacity:0.45;fill:#C0584F;enable-background:new    ;}
	.st2{fill:#6BC1BC;}
	.st3{fill:#87CCC9;}
	.st4{fill:#9B3732;}
	.st5{fill:#F37350;}
	.st6{fill:#5D6162;}
	.st7{fill:#707676;}
	.st8{fill:#5E6263;}
	.st9{fill:#FFAB97;}
	.st10{fill:#4A4B4D;}
	.st11{clip-path:url(#SVGID_2_);}
	.st12{fill:#585C5C;}
	.st13{fill:#484B4C;}
	.st14{fill:#C0584F;}
	.st15{opacity:0.4;fill:#D3513C;enable-background:new    ;}
	.st16{clip-path:url(#SVGID_4_);}
	.st17{fill:#6A6E70;}
	.st18{fill:#85674D;}
	.st19{fill:#497C54;}
	.st20{opacity:0.2;fill:#1C1C1C;enable-background:new    ;}
</style>
<path class="st0" d="M73,31H6v113h67V31z"/>
<path class="st1" d="M53.5,49.9H6.4v6.9h47.1V49.9z"/>
<path class="st2" d="M40.6,70.4H24.2v22.1h16.4V70.4z"/>
<path class="st3" d="M29.3,82.7C29.3,82.7,29.2,82.7,29.3,82.7c-0.1-0.1-0.1-0.2-0.1-0.2l2.7-2.6c0,0,0.1,0,0.2,0c0,0,0,0.1,0,0.2
	L29.3,82.7z"/>
<path class="st3" d="M31,85.6C30.9,85.6,30.9,85.6,31,85.6c-0.1-0.1-0.1-0.2-0.1-0.2l2.7-2.6c0,0,0.1,0,0.2,0c0,0,0,0.1,0,0.2
	L31,85.6z"/>
<path class="st3" d="M33.7,74.9C33.7,74.9,33.6,74.9,33.7,74.9c-0.1-0.1-0.1-0.2-0.1-0.2l2.7-2.6c0,0,0.1,0,0.2,0c0,0,0,0.1,0,0.2
	L33.7,74.9C33.7,74.9,33.8,74.9,33.7,74.9z"/>
<path class="st3" d="M28,85.4c-0.1-0.1-0.1-0.2-0.1-0.2l8.6-7.7c0,0,0.1,0,0.2,0c0,0,0,0.1,0,0.2L28,85.4
	C28.1,85.4,28.1,85.4,28,85.4z"/>
<path class="st4" d="M32.8,70.4h-0.9v22.7h0.9V70.4z"/>
<path class="st4" d="M40.6,77.8H24.2v0.9h16.4V77.8z"/>
<path class="st4" d="M40.6,86.6H24.2v0.9h16.4V86.6z"/>
<path class="st4" d="M42.2,67.5H22.4v2.9h19.8V67.5z"/>
<path class="st4" d="M42.2,91.7H22.4v2.9h19.8V91.7z"/>
<path class="st4" d="M41.6,105.9H23.1v32.9h18.5V105.9z"/>
<path class="st5" d="M40.5,106.9H24.2v31h16.3V106.9z"/>
<path class="st6" d="M47.1,138.8H15.2v1.7h31.9V138.8z"/>
<path class="st7" d="M47.1,140.5H15.2v1.7h31.9V140.5z"/>
<path class="st8" d="M47.1,142.2H15.2v1.7h31.9V142.2z"/>
<path class="st7" d="M47.1,143.9H15.2v1h31.9V143.9z"/>
<path class="st9" d="M30,119.3C30,119.3,29.9,119.3,30,119.3c-0.1-0.1-0.1-0.1-0.1-0.1l1.8-1.8h0.1v0.1L30,119.3z"/>
<path class="st9" d="M33.1,119.9C33.1,119.9,33,119.9,33.1,119.9C33,119.8,33,119.8,33.1,119.9l1.7-1.9h0.1v0.1L33.1,119.9z"/>
<path class="st9" d="M32.1,134.5C32.1,134.5,32,134.5,32.1,134.5c-0.1-0.1-0.1-0.1-0.1-0.1l1.8-1.8h0.1v0.1L32.1,134.5z"/>
<path class="st9" d="M29.2,122C29.2,122,29.1,121.9,29.2,122c-0.1-0.1-0.1-0.1-0.1-0.1l6.3-6.3h0.1v0.1L29.2,122
	C29.2,122,29.2,121.9,29.2,122z"/>
<path class="st4" d="M9.1,63.5H6.4V67h2.7V63.5z"/>
<path class="st4" d="M13.5,67.2H7.8v3.5h5.7V67.2z"/>
<path class="st10" d="M1.6,49.3c0,0,1.2,3.5,4.6,3.6c3.4,0.1,4.7-2.1,5-3.6l-3.7-2L1.6,49.3z"/>
<path class="st10" d="M11.2,49.3c0,0,1.2,3.5,4.6,3.6c3.4,0.1,4.7-2.1,5-3.6l-3.7-2L11.2,49.3z"/>
<path class="st10" d="M20.8,49.3c0,0,1.2,3.5,4.6,3.6c3.4,0.1,4.7-2.1,5-3.6l-3.7-2L20.8,49.3z"/>
<path class="st10" d="M30.5,49.3c0,0,1.2,3.5,4.6,3.6c3.4,0.1,4.7-2.1,5-3.6l-3.7-2L30.5,49.3z"/>
<path class="st10" d="M40.1,49.3c0,0,1.2,3.5,4.6,3.6c3.4,0.1,4.7-2.1,5-3.6l-3.7-2L40.1,49.3z"/>
<path class="st10" d="M49.7,49.3c0,0,1.2,3.5,4.6,3.6c3.4,0.1,4.7-2.1,5-3.6l-3.7-2L49.7,49.3z"/>
<path class="st10" d="M59.3,49.3c0,0,1.2,3.5,4.6,3.6c3.4,0.1,4.7-2.1,5-3.6l-3.7-2L59.3,49.3z"/>
<g>
	<defs>
		<path id="SVGID_1_" d="M1.6,49.3h67.3l-3.3-37.9H5L1.6,49.3z"/>
	</defs>
	<clipPath id="SVGID_2_">
		<use xlink:href="#SVGID_1_"  style="overflow:visible;"/>
	</clipPath>
	<g class="st11">
		<path class="st12" d="M-8.3,49.8c0,0,1.5,5.9,6.1,5.9c4.6,0.1,6.3-3.7,6.8-5.9l-5.1-2.7L-8.3,49.8z"/>
		<path class="st13" d="M-2.1,56c-0.1,0-0.1,0-0.2,0c-4.7-0.1-6.3-6-6.3-6.1v-0.2l8.1-2.8l5.3,2.8v0.2C4.2,52.8,2.1,56-2.1,56z
			 M-8,49.9c0.3,1,1.9,5.5,5.8,5.6c4.9,0.1,6.3-4.3,6.5-5.6l-4.8-2.6L-8,49.9z"/>
		<path class="st12" d="M4.6,49.8c0,0,1.5,5.9,6.1,5.9c4.6,0.1,6.3-3.7,6.8-5.9l-5.1-2.7L4.6,49.8z"/>
		<path class="st13" d="M10.8,56c-0.1,0-0.1,0-0.2,0c-4.7-0.1-6.3-6-6.3-6.1v-0.2l8.1-2.8l5.3,2.8v0.2C17.1,52.8,14.9,56,10.8,56z
			 M4.8,49.9c0.3,1,1.9,5.5,5.8,5.6h0.1c4.8,0,6.1-4.3,6.4-5.6l-4.8-2.6L4.8,49.9z"/>
		<path class="st12" d="M17.4,49.8c0,0,1.5,5.9,6.1,5.9c4.6,0.1,6.3-3.7,6.8-5.9l-5.1-2.7L17.4,49.8z"/>
		<path class="st13" d="M23.7,56c-0.1,0-0.1,0-0.2,0c-4.7-0.1-6.3-6-6.3-6.1v-0.2l8.1-2.8l5.3,2.8v0.2C29.9,52.8,27.8,56,23.7,56z
			 M17.7,49.9c0.3,1,1.9,5.5,5.8,5.6h0.1c4.8,0,6.1-4.3,6.4-5.6l-4.8-2.6L17.7,49.9z"/>
		<path class="st12" d="M30.3,49.8c0,0,1.5,5.9,6.1,5.9c4.6,0.1,6.3-3.7,6.8-5.9l-5.1-2.7L30.3,49.8z"/>
		<path class="st13" d="M36.5,56c-0.1,0-0.1,0-0.2,0c-4.7-0.1-6.3-6-6.3-6.1l-0.1-0.2l8.1-2.8l5.3,2.8v0.2
			C42.8,52.8,40.7,56,36.5,56z M30.6,49.9c0.3,1,1.9,5.5,5.8,5.6h0.1c4.8,0,6.1-4.3,6.4-5.6l-4.8-2.6L30.6,49.9z"/>
		<path class="st12" d="M43.2,49.8c0,0,1.5,5.9,6.1,5.9c4.6,0.1,6.3-3.7,6.8-5.9L51,47.1L43.2,49.8z"/>
		<path class="st13" d="M49.4,56c-0.1,0-0.1,0-0.2,0c-4.7-0.1-6.3-6-6.3-6.1l-0.1-0.2l8.1-2.8l5.3,2.8v0.2
			C55.7,52.8,53.6,56,49.4,56z M43.5,49.9c0.3,1,1.9,5.5,5.8,5.6h0.1c4.8,0,6.1-4.3,6.4-5.6L51,47.3L43.5,49.9z"/>
		<path class="st12" d="M56.1,49.8c0,0,1.5,5.9,6.1,5.9c4.6,0.1,6.3-3.7,6.8-5.9l-5.1-2.7L56.1,49.8z"/>
		<path class="st13" d="M62.3,56c-0.1,0-0.1,0-0.2,0c-4.7-0.1-6.3-6-6.3-6.1l-0.1-0.2l8.1-2.8l5.3,2.8v0.2
			C68.5,52.8,66.4,56,62.3,56z M56.3,49.9c0.3,1,1.9,5.5,5.8,5.6h0.1c4.8,0,6.1-4.3,6.4-5.6l-4.8-2.6L56.3,49.9z"/>
		<path class="st13" d="M75.2,56c-0.1,0-0.1,0-0.2,0c-4.7-0.1-6.3-6-6.3-6.1l-0.1-0.2l8.1-2.8l5.3,2.8v0.2
			C81.4,52.8,79.3,56,75.2,56z M69.2,49.9c0.3,1,1.9,5.5,5.8,5.6h0.1c4.8,0,6.1-4.3,6.4-5.6l-4.8-2.6L69.2,49.9z"/>
		<path class="st12" d="M-1.9,45.5c0,0,1.5,5.9,6.1,5.9c4.6,0.1,6.3-3.7,6.8-5.9l-5.1-2.7L-1.9,45.5z"/>
		<path class="st13" d="M4.4,51.7c-0.1,0-0.1,0-0.2,0c-4.7-0.1-6.3-6-6.3-6.1v-0.2L6,42.6l5.3,2.8v0.2C10.6,48.5,8.5,51.7,4.4,51.7z
			 M-1.6,45.6c0.3,1,1.9,5.5,5.8,5.6h0.1c4.8,0,6.1-4.3,6.4-5.6L5.9,43L-1.6,45.6z"/>
		<path class="st12" d="M11,45.5c0,0,1.5,5.9,6.1,5.9c4.6,0.1,6.3-3.7,6.8-5.9l-5.1-2.7L11,45.5z"/>
		<path class="st13" d="M17.2,51.7c-0.1,0-0.1,0-0.2,0c-4.7-0.1-6.3-6-6.3-6.1v-0.2l8.1-2.8l5.3,2.8v0.2
			C23.5,48.5,21.4,51.7,17.2,51.7z M11.3,45.6c0.3,1,1.9,5.5,5.8,5.6c4.9,0.1,6.3-4.3,6.5-5.6L18.8,43L11.3,45.6z"/>
		<path class="st12" d="M23.9,45.5c0,0,1.5,5.9,6.1,5.9c4.6,0.1,6.3-3.7,6.8-5.9l-5.1-2.7L23.9,45.5z"/>
		<path class="st13" d="M30.1,51.7c-0.1,0-0.1,0-0.2,0c-4.7-0.1-6.3-6-6.3-6.1l-0.1-0.2l8.1-2.8l5.3,2.8v0.2
			C36.4,48.5,34.2,51.7,30.1,51.7z M24.1,45.6c0.3,1,1.9,5.5,5.8,5.6H30c4.8,0,6.1-4.3,6.4-5.6L31.6,43L24.1,45.6z"/>
		<path class="st12" d="M36.7,45.5c0,0,1.5,5.9,6.1,5.9c4.6,0.1,6.3-3.7,6.8-5.9l-5.1-2.7L36.7,45.5z"/>
		<path class="st13" d="M43,51.7c-0.1,0-0.1,0-0.2,0c-4.7-0.1-6.3-6-6.3-6.1l-0.1-0.2l8.1-2.8l5.3,2.8v0.2
			C49.2,48.5,47.1,51.7,43,51.7z M37,45.6c0.3,1,1.9,5.5,5.8,5.6h0.1c4.8,0,6.1-4.3,6.4-5.6L44.5,43L37,45.6z"/>
		<path class="st12" d="M49.6,45.5c0,0,1.5,5.9,6.1,5.9c4.6,0.1,6.3-3.7,6.8-5.9l-5.1-2.7L49.6,45.5z"/>
		<path class="st13" d="M55.8,51.7c-0.1,0-0.1,0-0.2,0c-4.7-0.1-6.3-6-6.3-6.1l-0.1-0.2l8.1-2.8l5.3,2.8v0.2
			C62.1,48.5,60,51.7,55.8,51.7z M49.9,45.6c0.3,1,1.9,5.5,5.8,5.6h0.1c4.8,0,6.1-4.3,6.4-5.6L57.4,43L49.9,45.6z"/>
		<path class="st12" d="M62.5,45.5c0,0,1.5,5.9,6.1,5.9c4.6,0.1,6.3-3.7,6.8-5.9l-5.1-2.7L62.5,45.5z"/>
		<path class="st13" d="M68.7,51.7c-0.1,0-0.1,0-0.2,0c-4.7-0.1-6.3-6-6.3-6.1l-0.1-0.2l8.1-2.8l5.3,2.8v0.2
			C75,48.5,72.9,51.7,68.7,51.7z M62.8,45.6c0.3,1,1.9,5.5,5.8,5.6h0.1c4.8,0,6.1-4.3,6.4-5.6L70.3,43L62.8,45.6z"/>
		<path class="st12" d="M-8.3,41.2c0,0,1.5,5.9,6.1,5.9c4.6,0.1,6.3-3.7,6.8-5.9l-5.1-2.7L-8.3,41.2z"/>
		<path class="st13" d="M-2.1,47.4c-0.1,0-0.1,0-0.2,0c-4.7-0.1-6.3-6-6.3-6.1v-0.2l8.1-2.8l5.3,2.8v0.2C4.2,44.2,2.1,47.4-2.1,47.4
			z M-8,41.3c0.3,1,1.9,5.5,5.8,5.6c4.9,0.1,6.3-4.3,6.5-5.6l-4.8-2.6L-8,41.3z"/>
		<path class="st12" d="M4.6,41.2c0,0,1.5,5.9,6.1,5.9c4.6,0.1,6.3-3.7,6.8-5.9l-5.1-2.7L4.6,41.2z"/>
		<path class="st13" d="M10.8,47.4c-0.1,0-0.1,0-0.2,0c-4.7-0.1-6.3-6-6.3-6.1v-0.2l8.1-2.8l5.3,2.8v0.2
			C17.1,44.2,14.9,47.4,10.8,47.4z M4.8,41.3c0.3,1,1.9,5.5,5.8,5.6h0.1c4.8,0,6.1-4.3,6.4-5.6l-4.8-2.6L4.8,41.3z"/>
		<path class="st12" d="M17.4,41.2c0,0,1.5,5.9,6.1,5.9c4.6,0.1,6.3-3.7,6.8-5.9l-5.1-2.7L17.4,41.2z"/>
		<path class="st13" d="M23.7,47.4c-0.1,0-0.1,0-0.2,0c-4.7-0.1-6.3-6-6.3-6.1v-0.2l8.1-2.8l5.3,2.8v0.2
			C29.9,44.2,27.8,47.4,23.7,47.4z M17.7,41.3c0.3,1,1.9,5.5,5.8,5.6h0.1c4.8,0,6.1-4.3,6.4-5.6l-4.8-2.6L17.7,41.3z"/>
		<path class="st12" d="M30.3,41.2c0,0,1.5,5.9,6.1,5.9c4.6,0.1,6.3-3.7,6.8-5.9l-5.1-2.7L30.3,41.2z"/>
		<path class="st13" d="M36.5,47.4c-0.1,0-0.1,0-0.2,0c-4.7-0.1-6.3-6-6.3-6.1l-0.1-0.2l8.1-2.8l5.3,2.8v0.2
			C42.8,44.2,40.7,47.4,36.5,47.4z M30.6,41.3c0.3,1,1.9,5.5,5.8,5.6h0.1c4.8,0,6.1-4.3,6.4-5.6l-4.8-2.6L30.6,41.3z"/>
		<path class="st12" d="M43.2,41.2c0,0,1.5,5.9,6.1,5.9c4.6,0.1,6.3-3.7,6.8-5.9L51,38.5L43.2,41.2z"/>
		<path class="st13" d="M49.4,47.4c-0.1,0-0.1,0-0.2,0c-4.7-0.1-6.3-6-6.3-6.1l-0.1-0.2l8.1-2.8l5.3,2.8v0.2
			C55.7,44.2,53.6,47.4,49.4,47.4z M43.5,41.3c0.3,1,1.9,5.5,5.8,5.6h0.1c4.8,0,6.1-4.3,6.4-5.6L51,38.7L43.5,41.3z"/>
		<path class="st12" d="M56.1,41.2c0,0,1.5,5.9,6.1,5.9c4.6,0.1,6.3-3.7,6.8-5.9l-5.1-2.7L56.1,41.2z"/>
		<path class="st13" d="M62.3,47.4c-0.1,0-0.1,0-0.2,0c-4.7-0.1-6.3-6-6.3-6.1l-0.1-0.2l8.1-2.8l5.3,2.8v0.2
			C68.5,44.2,66.4,47.4,62.3,47.4z M56.3,41.3c0.3,1,1.9,5.5,5.8,5.6h0.1c4.8,0,6.1-4.3,6.4-5.6l-4.8-2.6L56.3,41.3z"/>
		<path class="st13" d="M75.2,47.4c-0.1,0-0.1,0-0.2,0c-4.7-0.1-6.3-6-6.3-6.1l-0.1-0.2l8.1-2.8l5.3,2.8v0.2
			C81.4,44.2,79.3,47.4,75.2,47.4z M69.2,41.3c0.3,1,1.9,5.5,5.8,5.6h0.1c4.8,0,6.1-4.3,6.4-5.6l-4.8-2.6L69.2,41.3z"/>
		<path class="st12" d="M-1.9,36.9c0,0,1.5,5.9,6.1,5.9c4.6,0.1,6.3-3.7,6.8-5.9l-5.1-2.7L-1.9,36.9z"/>
		<path class="st13" d="M4.4,43.1c-0.1,0-0.1,0-0.2,0c-4.7-0.1-6.3-6-6.3-6.1v-0.2L6,34l5.3,2.8V37C10.6,39.9,8.5,43.1,4.4,43.1z
			 M-1.6,37c0.3,1,1.9,5.5,5.8,5.6c4.9,0.1,6.3-4.3,6.5-5.6l-4.8-2.6L-1.6,37z"/>
		<path class="st12" d="M11,36.9c0,0,1.5,5.9,6.1,5.9c4.6,0.1,6.3-3.7,6.8-5.9l-5.1-2.7L11,36.9z"/>
		<path class="st13" d="M17.2,43.1c-0.1,0-0.1,0-0.2,0c-4.7-0.1-6.3-6-6.3-6.1v-0.2l8.1-2.8l5.3,2.8V37
			C23.5,39.9,21.4,43.1,17.2,43.1z M11.3,37c0.3,1,1.9,5.5,5.8,5.6h0.1c4.8,0,6.1-4.3,6.4-5.6l-4.8-2.6L11.3,37z"/>
		<path class="st12" d="M23.9,36.9c0,0,1.5,5.9,6.1,5.9c4.6,0.1,6.3-3.7,6.8-5.9l-5.1-2.7L23.9,36.9z"/>
		<path class="st13" d="M30.1,43.1c-0.1,0-0.1,0-0.2,0c-4.7-0.1-6.3-6-6.3-6.1l-0.1-0.2l8.1-2.8l5.3,2.8V37
			C36.4,39.9,34.2,43.1,30.1,43.1z M24.1,37c0.3,1,1.9,5.5,5.8,5.6H30c4.8,0,6.1-4.3,6.4-5.6l-4.8-2.6L24.1,37z"/>
		<path class="st12" d="M36.7,36.9c0,0,1.5,5.9,6.1,5.9c4.6,0.1,6.3-3.7,6.8-5.9l-5.1-2.7L36.7,36.9z"/>
		<path class="st13" d="M43,43.1c-0.1,0-0.1,0-0.2,0c-4.7-0.1-6.3-6-6.3-6.1l-0.1-0.2l8.1-2.8l5.3,2.8V37
			C49.2,39.9,47.1,43.1,43,43.1z M37,37c0.3,1,1.9,5.5,5.8,5.6h0.1c4.8,0,6.1-4.3,6.4-5.6l-4.8-2.6L37,37z"/>
		<path class="st12" d="M49.6,36.9c0,0,1.5,5.9,6.1,5.9c4.6,0.1,6.3-3.7,6.8-5.9l-5.1-2.7L49.6,36.9z"/>
		<path class="st13" d="M55.8,43.1c-0.1,0-0.1,0-0.2,0c-4.7-0.1-6.3-6-6.3-6.1l-0.1-0.2l8.1-2.8l5.3,2.8V37
			C62.1,39.9,60,43.1,55.8,43.1z M49.9,37c0.3,1,1.9,5.5,5.8,5.6h0.1c4.8,0,6.1-4.3,6.4-5.6l-4.8-2.6L49.9,37z"/>
		<path class="st12" d="M62.5,36.9c0,0,1.5,5.9,6.1,5.9c4.6,0.1,6.3-3.7,6.8-5.9l-5.1-2.7L62.5,36.9z"/>
		<path class="st13" d="M68.7,43.1c-0.1,0-0.1,0-0.2,0c-4.7-0.1-6.3-6-6.3-6.1l-0.1-0.2l8.1-2.8l5.3,2.8V37
			C75,39.9,72.9,43.1,68.7,43.1z M62.8,37c0.3,1,1.9,5.5,5.8,5.6h0.1c4.8,0,6.1-4.3,6.4-5.6l-4.8-2.6L62.8,37z"/>
		<path class="st12" d="M-8.3,32.6c0,0,1.5,5.9,6.1,5.9c4.6,0.1,6.3-3.7,6.8-5.9l-5.1-2.7L-8.3,32.6z"/>
		<path class="st13" d="M-2.1,38.8c-0.1,0-0.1,0-0.2,0c-4.7-0.1-6.3-6-6.3-6.1v-0.2l8.1-2.8l5.3,2.8v0.2C4.2,35.6,2.1,38.8-2.1,38.8
			z M-8,32.8c0.3,1,1.9,5.5,5.8,5.6c4.9,0.1,6.3-4.3,6.5-5.6l-4.8-2.6L-8,32.8z"/>
		<path class="st12" d="M4.6,32.6c0,0,1.5,5.9,6.1,5.9c4.6,0.1,6.3-3.7,6.8-5.9l-5.1-2.7L4.6,32.6z"/>
		<path class="st13" d="M10.8,38.8c-0.1,0-0.1,0-0.2,0c-4.7-0.1-6.3-6-6.3-6.1v-0.2l8.1-2.8l5.3,2.8v0.2
			C17.1,35.6,14.9,38.8,10.8,38.8z M4.8,32.8c0.3,1,1.9,5.5,5.8,5.6h0.1c4.8,0,6.1-4.3,6.4-5.6l-4.8-2.6L4.8,32.8z"/>
		<path class="st12" d="M17.4,32.6c0,0,1.5,5.9,6.1,5.9c4.6,0.1,6.3-3.7,6.8-5.9l-5.1-2.7L17.4,32.6z"/>
		<path class="st13" d="M23.7,38.8c-0.1,0-0.1,0-0.2,0c-4.7-0.1-6.3-6-6.3-6.1v-0.2l8.1-2.8l5.3,2.8v0.2
			C29.9,35.6,27.8,38.8,23.7,38.8z M17.7,32.8c0.3,1,1.9,5.5,5.8,5.6h0.1c4.8,0,6.1-4.3,6.4-5.6l-4.8-2.6L17.7,32.8z"/>
		<path class="st12" d="M30.3,32.6c0,0,1.5,5.9,6.1,5.9c4.6,0.1,6.3-3.7,6.8-5.9l-5.1-2.7L30.3,32.6z"/>
		<path class="st13" d="M36.5,38.8c-0.1,0-0.1,0-0.2,0c-4.7-0.1-6.3-6-6.3-6.1l-0.1-0.2l8.1-2.8l5.3,2.8v0.2
			C42.8,35.6,40.7,38.8,36.5,38.8z M30.6,32.8c0.3,1,1.9,5.5,5.8,5.6h0.1c4.8,0,6.1-4.3,6.4-5.6l-4.8-2.6L30.6,32.8z"/>
		<path class="st12" d="M43.2,32.6c0,0,1.5,5.9,6.1,5.9c4.6,0.1,6.3-3.7,6.8-5.9L51,29.9L43.2,32.6z"/>
		<path class="st13" d="M49.4,38.8c-0.1,0-0.1,0-0.2,0c-4.7-0.1-6.3-6-6.3-6.1l-0.1-0.2l8.1-2.8l5.3,2.8v0.2
			C55.7,35.6,53.6,38.8,49.4,38.8z M43.5,32.8c0.3,1,1.9,5.5,5.8,5.6h0.1c4.8,0,6.1-4.3,6.4-5.6L51,30.2L43.5,32.8z"/>
		<path class="st12" d="M56.1,32.6c0,0,1.5,5.9,6.1,5.9c4.6,0.1,6.3-3.7,6.8-5.9l-5.1-2.7L56.1,32.6z"/>
		<path class="st13" d="M62.3,38.8c-0.1,0-0.1,0-0.2,0c-4.7-0.1-6.3-6-6.3-6.1l-0.1-0.2l8.1-2.8l5.3,2.8v0.2
			C68.5,35.6,66.4,38.8,62.3,38.8z M56.3,32.8c0.3,1,1.9,5.5,5.8,5.6h0.1c4.8,0,6.1-4.3,6.4-5.6l-4.8-2.6L56.3,32.8z"/>
		<path class="st13" d="M75.2,38.8c-0.1,0-0.1,0-0.2,0c-4.7-0.1-6.3-6-6.3-6.1l-0.1-0.2l8.1-2.8l5.3,2.8v0.2
			C81.4,35.6,79.3,38.8,75.2,38.8z M69.2,32.8c0.3,1,1.9,5.5,5.8,5.6h0.1c4.8,0,6.1-4.3,6.4-5.6l-4.8-2.6L69.2,32.8z"/>
		<path class="st12" d="M-1.9,28.3c0,0,1.5,5.9,6.1,5.9c4.6,0.1,6.3-3.7,6.8-5.9l-5.1-2.7L-1.9,28.3z"/>
		<path class="st13" d="M4.4,34.5c-0.1,0-0.1,0-0.2,0c-4.7-0.1-6.3-6-6.3-6.1v-0.2L6,25.4l5.3,2.8v0.2C10.6,31.3,8.5,34.5,4.4,34.5z
			 M-1.6,28.5c0.3,1,1.9,5.5,5.8,5.6c4.9,0.1,6.3-4.3,6.5-5.6l-4.8-2.6L-1.6,28.5z"/>
		<path class="st12" d="M11,28.3c0,0,1.5,5.9,6.1,5.9c4.6,0.1,6.3-3.7,6.8-5.9l-5.1-2.7L11,28.3z"/>
		<path class="st13" d="M17.2,34.5c-0.1,0-0.1,0-0.2,0c-4.7-0.1-6.3-6-6.3-6.1v-0.2l8.1-2.8l5.3,2.8v0.2
			C23.5,31.3,21.4,34.5,17.2,34.5z M11.3,28.5c0.3,1,1.9,5.5,5.8,5.6h0.1c4.8,0,6.1-4.3,6.4-5.6l-4.8-2.6L11.3,28.5z"/>
		<path class="st12" d="M23.9,28.3c0,0,1.5,5.9,6.1,5.9c4.6,0.1,6.3-3.7,6.8-5.9l-5.1-2.7L23.9,28.3z"/>
		<path class="st13" d="M30.1,34.5c-0.1,0-0.1,0-0.2,0c-4.7-0.1-6.3-6-6.3-6.1l-0.1-0.2l8.1-2.8l5.3,2.8v0.2
			C36.4,31.3,34.2,34.5,30.1,34.5z M24.1,28.5c0.3,1,1.9,5.5,5.8,5.6H30c4.8,0,6.1-4.3,6.4-5.6l-4.8-2.6L24.1,28.5z"/>
		<path class="st12" d="M36.7,28.3c0,0,1.5,5.9,6.1,5.9c4.6,0.1,6.3-3.7,6.8-5.9l-5.1-2.7L36.7,28.3z"/>
		<path class="st13" d="M43,34.5c-0.1,0-0.1,0-0.2,0c-4.7-0.1-6.3-6-6.3-6.1l-0.1-0.2l8.1-2.8l5.3,2.8v0.2
			C49.2,31.3,47.1,34.5,43,34.5z M37,28.5c0.3,1,1.9,5.5,5.8,5.6h0.1c4.8,0,6.1-4.3,6.4-5.6l-4.8-2.6L37,28.5z"/>
		<path class="st12" d="M49.6,28.3c0,0,1.5,5.9,6.1,5.9c4.6,0.1,6.3-3.7,6.8-5.9l-5.1-2.7L49.6,28.3z"/>
		<path class="st13" d="M55.8,34.5c-0.1,0-0.1,0-0.2,0c-4.7-0.1-6.3-6-6.3-6.1l-0.1-0.2l8.1-2.8l5.3,2.8v0.2
			C62.1,31.3,60,34.5,55.8,34.5z M49.9,28.5c0.3,1,1.9,5.5,5.8,5.6h0.1c4.8,0,6.1-4.3,6.4-5.6l-4.8-2.6L49.9,28.5z"/>
		<path class="st12" d="M62.5,28.3c0,0,1.5,5.9,6.1,5.9c4.6,0.1,6.3-3.7,6.8-5.9l-5.1-2.7L62.5,28.3z"/>
		<path class="st13" d="M68.7,34.5c-0.1,0-0.1,0-0.2,0c-4.7-0.1-6.3-6-6.3-6.1l-0.1-0.2l8.1-2.8l5.3,2.8v0.2
			C75,31.3,72.9,34.5,68.7,34.5z M62.8,28.5c0.3,1,1.9,5.5,5.8,5.6h0.1c4.8,0,6.1-4.3,6.4-5.6l-4.8-2.6L62.8,28.5z"/>
		<path class="st12" d="M-8.3,24c0,0,1.5,5.9,6.1,5.9C2.4,30,4.1,26.2,4.6,24l-5.1-2.7L-8.3,24z"/>
		<path class="st13" d="M-2.1,30.2c-0.1,0-0.1,0-0.2,0c-4.7-0.1-6.3-6-6.3-6.1v-0.2l8.1-2.8l5.3,2.8v0.2C4.2,27,2.1,30.2-2.1,30.2z
			 M-8,24.2c0.3,1,1.9,5.5,5.8,5.6h0.1c4.8,0,6.1-4.3,6.4-5.6l-4.8-2.6L-8,24.2z"/>
		<path class="st12" d="M4.6,24c0,0,1.5,5.9,6.1,5.9c4.6,0.1,6.3-3.7,6.8-5.9l-5.1-2.7L4.6,24z"/>
		<path class="st13" d="M10.8,30.2c-0.1,0-0.1,0-0.2,0c-4.7-0.1-6.3-6-6.3-6.1v-0.2l8.1-2.8l5.3,2.8v0.2
			C17.1,27,14.9,30.2,10.8,30.2z M4.8,24.2c0.3,1,1.9,5.5,5.8,5.6h0.1c4.8,0,6.1-4.3,6.4-5.6l-4.8-2.6L4.8,24.2z"/>
		<path class="st12" d="M17.4,24c0,0,1.5,5.9,6.1,5.9c4.6,0.1,6.3-3.7,6.8-5.9l-5.1-2.7L17.4,24z"/>
		<path class="st13" d="M23.7,30.2c-0.1,0-0.1,0-0.2,0c-4.7-0.1-6.3-6-6.3-6.1v-0.2l8.1-2.8l5.3,2.8v0.2
			C29.9,27,27.8,30.2,23.7,30.2z M17.7,24.2c0.3,1,1.9,5.5,5.8,5.6h0.1c4.8,0,6.1-4.3,6.4-5.6l-4.8-2.6L17.7,24.2z"/>
		<path class="st12" d="M30.3,24c0,0,1.5,5.9,6.1,5.9c4.6,0.1,6.3-3.7,6.8-5.9l-5.1-2.7L30.3,24z"/>
		<path class="st13" d="M36.5,30.2c-0.1,0-0.1,0-0.2,0c-4.7-0.1-6.3-6-6.3-6.1v-0.2l8.1-2.8l5.3,2.8v0.2
			C42.8,27,40.7,30.2,36.5,30.2z M30.6,24.2c0.3,1,1.9,5.5,5.8,5.6h0.1c4.8,0,6.1-4.3,6.4-5.6l-4.8-2.6L30.6,24.2z"/>
		<path class="st12" d="M43.2,24c0,0,1.5,5.9,6.1,5.9c4.6,0.1,6.3-3.7,6.8-5.9L51,21.3L43.2,24z"/>
		<path class="st13" d="M49.4,30.2c-0.1,0-0.1,0-0.2,0c-4.7-0.1-6.3-6-6.3-6.1l-0.1-0.2l8.1-2.8l5.3,2.8v0.2
			C55.7,27,53.6,30.2,49.4,30.2z M43.5,24.2c0.3,1,1.9,5.5,5.8,5.6h0.1c4.8,0,6.1-4.3,6.4-5.6L51,21.6L43.5,24.2z"/>
		<path class="st12" d="M56.1,24c0,0,1.5,5.9,6.1,5.9c4.6,0.1,6.3-3.7,6.8-5.9l-5.1-2.7L56.1,24z"/>
		<path class="st13" d="M62.3,30.2c-0.1,0-0.1,0-0.2,0c-4.7-0.1-6.3-6-6.3-6.1l-0.1-0.2l8.1-2.8l5.3,2.8v0.2
			C68.5,27,66.4,30.2,62.3,30.2z M56.3,24.2c0.3,1,1.9,5.5,5.8,5.6h0.1c4.8,0,6.1-4.3,6.4-5.6l-4.8-2.6L56.3,24.2z"/>
		<path class="st13" d="M75.2,30.2c-0.1,0-0.1,0-0.2,0c-4.7-0.1-6.3-6-6.3-6.1l-0.1-0.2l8.1-2.8l5.3,2.8v0.2
			C81.4,27,79.3,30.2,75.2,30.2z M69.2,24.2c0.3,1,1.9,5.5,5.8,5.6h0.1c4.8,0,6.1-4.3,6.4-5.6l-4.8-2.6L69.2,24.2z"/>
		<path class="st12" d="M-1.9,19.7c0,0,1.5,5.9,6.1,5.9c4.6,0.1,6.3-3.7,6.8-5.9L5.9,17L-1.9,19.7z"/>
		<path class="st13" d="M4.4,25.9c-0.1,0-0.1,0-0.2,0c-4.7-0.1-6.3-6-6.3-6.1v-0.2L6,16.8l5.3,2.8v0.2C10.6,22.8,8.5,25.9,4.4,25.9z
			 M-1.6,19.9c0.3,1,1.9,5.5,5.8,5.6c4.9,0.1,6.3-4.3,6.5-5.6l-4.8-2.6L-1.6,19.9z"/>
		<path class="st12" d="M11,19.7c0,0,1.5,5.9,6.1,5.9c4.6,0.1,6.3-3.7,6.8-5.9L18.8,17L11,19.7z"/>
		<path class="st13" d="M17.2,25.9c-0.1,0-0.1,0-0.2,0c-4.7-0.1-6.3-6-6.3-6.1v-0.2l8.1-2.8l5.3,2.8v0.2
			C23.5,22.8,21.4,25.9,17.2,25.9z M11.3,19.9c0.3,1,1.9,5.5,5.8,5.6c4.9,0.1,6.3-4.3,6.5-5.6l-4.8-2.6L11.3,19.9z"/>
		<path class="st12" d="M23.9,19.7c0,0,1.5,5.9,6.1,5.9c4.6,0.1,6.3-3.7,6.8-5.9L31.7,17L23.9,19.7z"/>
		<path class="st13" d="M30.1,25.9c-0.1,0-0.1,0-0.2,0c-4.7-0.1-6.3-6-6.3-6.1l-0.1-0.2l8.1-2.8l5.3,2.8v0.2
			C36.4,22.8,34.2,25.9,30.1,25.9z M24.1,19.9c0.3,1,1.9,5.5,5.8,5.6H30c4.8,0,6.1-4.3,6.4-5.6l-4.8-2.6L24.1,19.9z"/>
		<path class="st12" d="M36.7,19.7c0,0,1.5,5.9,6.1,5.9c4.6,0.1,6.3-3.7,6.8-5.9L44.5,17L36.7,19.7z"/>
		<path class="st13" d="M43,25.9c-0.1,0-0.1,0-0.2,0c-4.7-0.1-6.3-6-6.3-6.1l-0.1-0.2l8.1-2.8l5.3,2.8v0.2
			C49.2,22.8,47.1,25.9,43,25.9z M37,19.9c0.3,1,1.9,5.5,5.8,5.6h0.1c4.8,0,6.1-4.3,6.4-5.6l-4.8-2.6L37,19.9z"/>
		<path class="st12" d="M49.6,19.7c0,0,1.5,5.9,6.1,5.9c4.6,0.1,6.3-3.7,6.8-5.9L57.4,17L49.6,19.7z"/>
		<path class="st13" d="M55.8,25.9c-0.1,0-0.1,0-0.2,0c-4.7-0.1-6.3-6-6.3-6.1l-0.1-0.2l8.1-2.8l5.3,2.8v0.2
			C62.1,22.8,60,25.9,55.8,25.9z M49.9,19.9c0.3,1,1.9,5.5,5.8,5.6h0.1c4.8,0,6.1-4.3,6.4-5.6l-4.8-2.6L49.9,19.9z"/>
		<path class="st12" d="M62.5,19.7c0,0,1.5,5.9,6.1,5.9c4.6,0.1,6.3-3.7,6.8-5.9L70.3,17L62.5,19.7z"/>
		<path class="st13" d="M68.7,25.9c-0.1,0-0.1,0-0.2,0c-4.7-0.1-6.3-6-6.3-6.1l-0.1-0.2l8.1-2.8l5.3,2.8v0.2
			C75,22.8,72.9,25.9,68.7,25.9z M62.8,19.9c0.3,1,1.9,5.5,5.8,5.6h0.1c4.8,0,6.1-4.3,6.4-5.6l-4.8-2.6L62.8,19.9z"/>
		<path class="st12" d="M-8.3,15.4c0,0,1.5,5.9,6.1,5.9c4.6,0.1,6.3-3.7,6.8-5.9l-5.1-2.7L-8.3,15.4z"/>
		<path class="st13" d="M-2.1,21.6c-0.1,0-0.1,0-0.2,0c-4.7-0.1-6.3-6-6.3-6.1v-0.2l8.1-2.8l5.3,2.8v0.2C4.2,18.5,2.1,21.6-2.1,21.6
			z M-8,15.6c0.3,1,1.9,5.5,5.8,5.6c4.9,0.1,6.3-4.3,6.5-5.6L-0.5,13L-8,15.6z"/>
		<path class="st12" d="M4.6,15.4c0,0,1.5,5.9,6.1,5.9c4.6,0.1,6.3-3.7,6.8-5.9l-5.1-2.7L4.6,15.4z"/>
		<path class="st13" d="M10.8,21.6c-0.1,0-0.1,0-0.2,0c-4.7-0.1-6.3-6-6.3-6.1v-0.2l8.1-2.8l5.3,2.8v0.2
			C17.1,18.5,14.9,21.6,10.8,21.6z M4.8,15.6c0.3,1,1.9,5.5,5.8,5.6c4.9,0.1,6.3-4.3,6.5-5.6L12.3,13L4.8,15.6z"/>
		<path class="st12" d="M17.4,15.4c0,0,1.5,5.9,6.1,5.9c4.6,0.1,6.3-3.7,6.8-5.9l-5.1-2.7L17.4,15.4z"/>
		<path class="st13" d="M23.7,21.6c-0.1,0-0.1,0-0.2,0c-4.7-0.1-6.3-6-6.3-6.1v-0.2l8.1-2.8l5.3,2.8v0.2
			C29.9,18.5,27.8,21.6,23.7,21.6z M17.7,15.6c0.3,1,1.9,5.5,5.8,5.6h0.1c4.8,0,6.1-4.3,6.4-5.6L25.2,13L17.7,15.6z"/>
		<path class="st12" d="M30.3,15.4c0,0,1.5,5.9,6.1,5.9c4.6,0.1,6.3-3.7,6.8-5.9l-5.1-2.7L30.3,15.4z"/>
		<path class="st13" d="M36.5,21.6c-0.1,0-0.1,0-0.2,0c-4.7-0.1-6.3-6-6.3-6.1l-0.1-0.2l8.1-2.8l5.3,2.8v0.2
			C42.8,18.5,40.7,21.6,36.5,21.6z M30.6,15.6c0.3,1,1.9,5.5,5.8,5.6h0.1c4.8,0,6.1-4.3,6.4-5.6L38.1,13L30.6,15.6z"/>
		<path class="st12" d="M43.2,15.4c0,0,1.5,5.9,6.1,5.9c4.6,0.1,6.3-3.7,6.8-5.9L51,12.7L43.2,15.4z"/>
		<path class="st13" d="M49.4,21.6c-0.1,0-0.1,0-0.2,0c-4.7-0.1-6.3-6-6.3-6.1l-0.1-0.2l8.1-2.8l5.3,2.8v0.2
			C55.7,18.5,53.6,21.6,49.4,21.6z M43.5,15.6c0.3,1,1.9,5.5,5.8,5.6h0.1c4.8,0,6.1-4.3,6.4-5.6L51,13L43.5,15.6z"/>
		<path class="st12" d="M56.1,15.4c0,0,1.5,5.9,6.1,5.9c4.6,0.1,6.3-3.7,6.8-5.9l-5.1-2.7L56.1,15.4z"/>
		<path class="st13" d="M62.3,21.6c-0.1,0-0.1,0-0.2,0c-4.7-0.1-6.3-6-6.3-6.1l-0.1-0.2l8.1-2.8l5.3,2.8v0.2
			C68.5,18.5,66.4,21.6,62.3,21.6z M56.3,15.6c0.3,1,1.9,5.5,5.8,5.6h0.1c4.8,0,6.1-4.3,6.4-5.6L63.8,13L56.3,15.6z"/>
		<path class="st13" d="M75.2,21.6c-0.1,0-0.1,0-0.2,0c-4.7-0.1-6.3-6-6.3-6.1l-0.1-0.2l8.1-2.8l5.3,2.8v0.2
			C81.4,18.5,79.3,21.6,75.2,21.6z M69.2,15.6c0.3,1,1.9,5.5,5.8,5.6h0.1c4.8,0,6.1-4.3,6.4-5.6L76.7,13L69.2,15.6z"/>
		<path class="st12" d="M-1.9,11.1c0,0,1.5,5.9,6.1,5.9c4.6,0.1,6.3-3.7,6.8-5.9L5.9,8.4L-1.9,11.1z"/>
		<path class="st13" d="M4.4,17.3c-0.1,0-0.1,0-0.2,0c-4.7-0.1-6.3-6-6.3-6.1V11L6,8.2l5.3,2.8v0.2C10.6,14.2,8.5,17.3,4.4,17.3z
			 M-1.6,11.3c0.3,1,1.9,5.5,5.8,5.6h0.1c4.8,0,6.1-4.3,6.4-5.6L5.9,8.7L-1.6,11.3z"/>
		<path class="st12" d="M11,11.1c0,0,1.5,5.9,6.1,5.9c4.6,0.1,6.3-3.7,6.8-5.9l-5.1-2.7L11,11.1z"/>
		<path class="st13" d="M17.2,17.3c-0.1,0-0.1,0-0.2,0c-4.7-0.1-6.3-6-6.3-6.1V11l8.1-2.8l5.3,2.8v0.2
			C23.5,14.2,21.4,17.3,17.2,17.3z M11.3,11.3c0.3,1,1.9,5.5,5.8,5.6c4.9,0.1,6.3-4.3,6.5-5.6l-4.8-2.6L11.3,11.3z"/>
		<path class="st12" d="M23.9,11.1c0,0,1.5,5.9,6.1,5.9c4.6,0.1,6.3-3.7,6.8-5.9l-5.1-2.7L23.9,11.1z"/>
		<path class="st13" d="M30.1,17.3c-0.1,0-0.1,0-0.2,0c-4.7-0.1-6.3-6-6.3-6.1L23.5,11l8.1-2.8l5.3,2.8v0.2
			C36.4,14.2,34.2,17.3,30.1,17.3z M24.1,11.3c0.3,1,1.9,5.5,5.8,5.6H30c4.8,0,6.1-4.3,6.4-5.6l-4.8-2.6L24.1,11.3z"/>
		<path class="st12" d="M36.7,11.1c0,0,1.5,5.9,6.1,5.9c4.6,0.1,6.3-3.7,6.8-5.9l-5.1-2.7L36.7,11.1z"/>
		<path class="st13" d="M43,17.3c-0.1,0-0.1,0-0.2,0c-4.7-0.1-6.3-6-6.3-6.1L36.4,11l8.1-2.8l5.3,2.8v0.2
			C49.2,14.2,47.1,17.3,43,17.3z M37,11.3c0.3,1,1.9,5.5,5.8,5.6h0.1c4.8,0,6.1-4.3,6.4-5.6l-4.8-2.6L37,11.3z"/>
		<path class="st12" d="M49.6,11.1c0,0,1.5,5.9,6.1,5.9c4.6,0.1,6.3-3.7,6.8-5.9l-5.1-2.7L49.6,11.1z"/>
		<path class="st13" d="M55.8,17.3c-0.1,0-0.1,0-0.2,0c-4.7-0.1-6.3-6-6.3-6.1L49.2,11l8.1-2.8l5.3,2.8v0.2
			C62.1,14.2,60,17.3,55.8,17.3z M49.9,11.3c0.3,1,1.9,5.5,5.8,5.6h0.1c4.8,0,6.1-4.3,6.4-5.6l-4.8-2.6L49.9,11.3z"/>
		<path class="st12" d="M62.5,11.1c0,0,1.5,5.9,6.1,5.9c4.6,0.1,6.3-3.7,6.8-5.9l-5.1-2.7L62.5,11.1z"/>
		<path class="st13" d="M68.7,17.3c-0.1,0-0.1,0-0.2,0c-4.7-0.1-6.3-6-6.3-6.1L62.1,11l8.1-2.8l5.3,2.8v0.2
			C75,14.2,72.9,17.3,68.7,17.3z M62.8,11.3c0.3,1,1.9,5.5,5.8,5.6h0.1c4.8,0,6.1-4.3,6.4-5.6l-4.8-2.6L62.8,11.3z"/>
		<path class="st12" d="M-8.3,6.8c0,0,1.5,5.9,6.1,5.9C2.4,12.8,4.1,9,4.6,6.8l-5.1-2.7L-8.3,6.8z"/>
		<path class="st13" d="M-2.1,13c-0.1,0-0.1,0-0.2,0C-7,12.9-8.6,7-8.6,6.9V6.7l8.1-2.8l5.3,2.8v0.2C4.2,9.9,2.1,13-2.1,13z M-8,7
			c0.3,1,1.9,5.5,5.8,5.6C2.7,12.7,4.1,8.3,4.3,7l-4.8-2.6L-8,7z"/>
		<path class="st12" d="M4.6,6.8c0,0,1.5,5.9,6.1,5.9c4.6,0.1,6.3-3.7,6.8-5.9l-5.1-2.7L4.6,6.8z"/>
		<path class="st13" d="M10.8,13c-0.1,0-0.1,0-0.2,0c-4.7-0.1-6.3-6-6.3-6.1V6.7l8.1-2.8l5.3,2.8v0.2C17.1,9.9,14.9,13,10.8,13z
			 M4.8,7c0.3,1,1.9,5.5,5.8,5.6c4.9,0.1,6.3-4.3,6.5-5.6l-4.8-2.6L4.8,7z"/>
		<path class="st12" d="M17.4,6.8c0,0,1.5,5.9,6.1,5.9c4.6,0.1,6.3-3.7,6.8-5.9l-5.1-2.7L17.4,6.8z"/>
		<path class="st13" d="M23.7,13c-0.1,0-0.1,0-0.2,0c-4.7-0.1-6.3-6-6.3-6.1V6.7l8.1-2.8l5.3,2.8v0.2C29.9,9.9,27.8,13,23.7,13z
			 M17.7,7c0.3,1,1.9,5.5,5.8,5.6h0.1c4.8,0,6.1-4.3,6.4-5.6l-4.8-2.6L17.7,7z"/>
		<path class="st12" d="M30.3,6.8c0,0,1.5,5.9,6.1,5.9c4.6,0.1,6.3-3.7,6.8-5.9l-5.1-2.7L30.3,6.8z"/>
		<path class="st13" d="M36.5,13c-0.1,0-0.1,0-0.2,0C31.6,12.9,30,7,30,6.9l-0.1-0.2L38,3.9l5.3,2.8v0.2C42.8,9.9,40.7,13,36.5,13z
			 M30.6,7c0.3,1,1.9,5.5,5.8,5.6h0.1c4.8,0,6.1-4.3,6.4-5.6l-4.8-2.6L30.6,7z"/>
		<path class="st12" d="M43.2,6.8c0,0,1.5,5.9,6.1,5.9c4.6,0.1,6.3-3.7,6.8-5.9L51,4.1L43.2,6.8z"/>
		<path class="st13" d="M49.4,13c-0.1,0-0.1,0-0.2,0c-4.7-0.1-6.3-6-6.3-6.1l-0.1-0.2l8.1-2.8l5.3,2.8v0.2C55.7,9.9,53.6,13,49.4,13
			z M43.5,7c0.3,1,1.9,5.5,5.8,5.6h0.1c4.8,0,6.1-4.3,6.4-5.6L51,4.4L43.5,7z"/>
		<path class="st12" d="M56.1,6.8c0,0,1.5,5.9,6.1,5.9c4.6,0.1,6.3-3.7,6.8-5.9l-5.1-2.7L56.1,6.8z"/>
		<path class="st13" d="M62.3,13c-0.1,0-0.1,0-0.2,0c-4.7-0.1-6.3-6-6.3-6.1l-0.1-0.2l8.1-2.8l5.3,2.8v0.2C68.5,9.9,66.4,13,62.3,13
			z M56.3,7c0.3,1,1.9,5.5,5.8,5.6c4.9,0.1,6.3-4.3,6.5-5.6l-4.8-2.6L56.3,7z"/>
		<path class="st13" d="M75.1,13c-0.1,0-0.1,0-0.2,0c-4.7-0.1-6.3-6-6.3-6.1l-0.1-0.2l8.1-2.8l5.3,2.8v0.2C81.4,9.9,79.3,13,75.1,13
			z M69.2,7c0.3,1,1.9,5.5,5.8,5.6h0.1c4.8,0,6.1-4.3,6.4-5.6l-4.8-2.6L69.2,7z"/>
	</g>
</g>
<path class="st5" d="M114.2,14.9H53.5v129.2h60.7V14.9z"/>
<path class="st1" d="M114.2,37.9H53.5v6.9h60.7V37.9z"/>
<path class="st2" d="M92,58.3H75.6v22.1H92V58.3z"/>
<path class="st3" d="M80.7,70.6c-0.1-0.1-0.1-0.2-0.1-0.2l2.7-2.6c0,0,0.1,0,0.2,0c0,0,0,0.1,0,0.2L80.7,70.6
	C80.8,70.6,80.8,70.6,80.7,70.6z"/>
<path class="st3" d="M82.4,73.5c-0.1-0.1-0.1-0.2-0.1-0.2l2.7-2.6c0,0,0.1,0,0.2,0c0,0,0,0.1,0,0.2L82.4,73.5
	C82.5,73.5,82.5,73.5,82.4,73.5z"/>
<path class="st3" d="M85.2,62.8C85.1,62.8,85.1,62.8,85.2,62.8c-0.1-0.1-0.1-0.2-0.1-0.2l2.7-2.6c0,0,0.1,0,0.2,0c0,0,0,0.1,0,0.2
	L85.2,62.8z"/>
<path class="st3" d="M79.5,73.3C79.5,73.3,79.4,73.3,79.5,73.3c-0.1-0.1-0.1-0.2-0.1-0.2l8.6-7.7c0,0,0.1,0,0.2,0c0,0,0,0.1,0,0.2
	L79.5,73.3C79.5,73.3,79.6,73.3,79.5,73.3z"/>
<path class="st14" d="M84.2,58.3h-0.9V81h0.9V58.3z"/>
<path class="st14" d="M92,65.7H75.6v0.9H92V65.7z"/>
<path class="st14" d="M92,74.5H75.6v0.9H92V74.5z"/>
<path class="st14" d="M93.7,55.4H73.9v2.9h19.8V55.4z"/>
<path class="st14" d="M93.7,79.6H73.9v2.9h19.8V79.6z"/>
<path class="st2" d="M92,100.5H75.6v22.1H92V100.5z"/>
<path class="st3" d="M80.7,112.8c-0.1-0.1-0.1-0.2-0.1-0.2l2.7-2.6c0,0,0.1,0,0.2,0c0,0,0,0.1,0,0.2L80.7,112.8
	C80.8,112.8,80.8,112.8,80.7,112.8z"/>
<path class="st3" d="M82.4,115.7c-0.1-0.1-0.1-0.2-0.1-0.2l2.7-2.6c0,0,0.1,0,0.2,0c0,0,0,0.1,0,0.2L82.4,115.7
	C82.5,115.7,82.5,115.7,82.4,115.7z"/>
<path class="st3" d="M85.2,105C85.1,105,85.1,105,85.2,105c-0.1-0.1-0.1-0.2-0.1-0.2l2.7-2.6c0,0,0.1,0,0.2,0c0,0,0,0.1,0,0.2
	L85.2,105z"/>
<path class="st3" d="M79.5,115.5C79.5,115.5,79.4,115.5,79.5,115.5c-0.1-0.1-0.1-0.2-0.1-0.2l8.6-7.7c0,0,0.1,0,0.2,0
	c0,0,0,0.1,0,0.2L79.5,115.5C79.5,115.5,79.6,115.5,79.5,115.5z"/>
<path class="st14" d="M84.2,100.5h-0.9v22.7h0.9V100.5z"/>
<path class="st14" d="M92,107.9H75.6v0.9H92V107.9z"/>
<path class="st14" d="M92,116.7H75.6v0.9H92V116.7z"/>
<path class="st14" d="M93.7,97.6H73.9v2.9h19.8V97.6z"/>
<path class="st14" d="M93.7,121.8H73.9v2.9h19.8V121.8z"/>
<path class="st15" d="M114.2,135.9H53.5v8.2h60.7V135.9z"/>
<path class="st14" d="M114.1,49h-6.6v3.5h6.6V49z"/>
<path class="st14" d="M110.8,53.4h-6.6v3.5h6.6V53.4z"/>
<path class="st4" d="M52.3,110.8H47v3.5h5.3V110.8z"/>
<path class="st14" d="M70.7,85.6h-6.6v3.5h6.6V85.6z"/>
<path class="st14" d="M114.1,116.3h-3.6v3.5h3.6V116.3z"/>
<path class="st14" d="M56.6,139.4c0.9,0,0.9-1.4,0-1.4C55.7,138,55.7,139.4,56.6,139.4z"/>
<path class="st14" d="M66.8,138.9c0.1-0.2-0.3-0.4-0.4-0.2L66.8,138.9z"/>
<path class="st14" d="M67.6,138.9c0-0.7-0.7-1.3-1.4-1c-0.4,0.2-0.7,0.5-0.6,1c0.1,0.4,0.6,0.7,1,0.6c-0.1,0-0.2,0-0.3,0
	c-0.1-0.1-0.2-0.2-0.3-0.3c0,0,0,0,0-0.1c0-0.1,0-0.3,0-0.4v0.1c-0.1,0.5,0.2,1,0.7,1S67.6,139.4,67.6,138.9z"/>
<path class="st14" d="M61.4,141.6c-0.3-0.5-1.1-0.1-1.1,0.4C60.8,142.2,61.3,142,61.4,141.6z"/>
<path class="st14" d="M61.1,140.3c-1.1,0-1.9,0.9-1.7,2c0.1,0.3,0.4,0.6,0.7,0.7c0.9,0.3,2.2-0.3,1.9-1.5c-0.1-0.4-0.4-0.5-0.8-0.4
	c0.3,0,0.3,0,0,0c-0.1,0-0.2,0-0.3,0c-0.2,0.1,0,0,0.1,0c0.2,0.3,0.3,0.6,0.5,0.9c0,0.2-0.1,0.3-0.2,0.4c-0.1,0.1-0.1,0.1,0,0.1
	c-0.1,0.1-0.2,0.1-0.4,0.1c0.7,0.1,1.3-0.2,1.4-0.9C62.3,140.9,61.8,140.2,61.1,140.3z"/>
<path class="st14" d="M77.1,137.7c-0.2-0.1-0.4-0.2-0.6-0.2c-0.9-0.2-1.8,0.4-1.8,1.4s0.9,1.5,1.8,1.4c0.2,0,0.4-0.1,0.6-0.2
	C78.3,139.6,78.3,138.2,77.1,137.7z"/>
<path class="st14" d="M71.5,141.6c0.1,0.1,0.1,0.3,0.2,0.4L71.5,141.6z"/>
<path class="st14" d="M70.9,141.7c0,0.1,0.1,0.2,0.1,0.3c0.2,1,1.9,0.3,1.2-0.7c-0.1-0.1-0.1-0.2-0.2-0.2
	C71.5,140.6,70.7,141.2,70.9,141.7z"/>
<path class="st14" d="M96.3,137.6c-0.6-0.3-1.5,0-1.8,0.6L96.3,137.6z"/>
<path class="st14" d="M96.7,137.4c-0.1-0.1-0.1-0.2-0.2-0.3c0,0-0.2-0.2-0.1-0.1c-0.2-0.2-0.4-0.5-0.7-0.6c-0.6-0.2-1.4,0.3-1.8,0.7
	c-0.5,0.5-0.4,1.4,0.1,1.8c0.6,0.4,1.4,0.3,1.8-0.3c0.1-0.1,0.1-0.1,0-0.1c0,0.1,0,0,0.1,0c-0.2,0.1,0.1,0,0.1-0.1
	c0.3-0.2,0.4-0.4,0.5-0.6s-0.1,0.2,0,0c-0.1,0.1-0.2,0.2-0.3,0.3c0.1,0,0.1-0.1,0.2-0.1C96.6,138,96.9,137.7,96.7,137.4z"/>
<path class="st14" d="M84.6,139.1c0.2,0.4,0.7,0.6,1.1,0.5L84.6,139.1z"/>
<path class="st14" d="M84,139.4c0.3,0.6,1,0.9,1.7,0.9c1.1-0.1,0.9-1.7-0.2-1.5c-0.2,0-0.3-0.1-0.4-0.2
	C84.6,138,83.7,138.8,84,139.4z"/>
<path class="st14" d="M82.3,142.9c0.1,0,0.2,0,0.3,0c1,0.1,1-1.6,0-1.5c-0.1,0-0.2,0-0.3,0C81.4,141.6,81.4,142.8,82.3,142.9z"/>
<path class="st14" d="M97.7,142.2c-0.2-0.1-0.3-0.1-0.5-0.2c0.2,0.1,0.4,0.3,0.5,0.4v-0.1c-0.5-0.9-2-0.5-2,0.5c0,1.1,1.4,1.4,2,0.5
	v-0.1c-0.2,0.1-0.4,0.3-0.5,0.4c0.2,0,0.3-0.1,0.5-0.2C98.2,143.4,98.2,142.4,97.7,142.2z"/>
<path class="st14" d="M103.3,138.4c-0.1-0.1-0.3-0.1-0.4-0.2L103.3,138.4z"/>
<path class="st14" d="M103.9,138v-0.1c-0.2-1-1.7-1-2-0.1c-0.4,1,0.6,1.8,1.5,1.4h0.1C103.9,138.9,104,138.4,103.9,138z"/>
<path class="st14" d="M108.1,141.1c-0.3,0.2-0.7,0-1,0.1c-0.3,0.1-0.3,0.7,0,0.6"/>
<path class="st14" d="M108.3,140.8l-0.2-0.3c-0.2-0.3-0.6-0.4-1-0.4c-0.6,0-1.1,0.5-1.3,1c-0.2,0.5-0.1,1.1,0.4,1.5
	c0.5,0.3,1.2,0.4,1.6-0.1c0.5-0.6,0.3-1.5-0.4-1.7c0,0,0,0-0.1,0c0.2,0.1,0.3,0.2,0.5,0.3c0,0.1,0.1,0.1,0.1,0.2
	c0,0.2,0.1,0.4,0.1,0.6c0-0.1,0-0.2,0-0.3c0-0.1,0-0.1,0,0.1c0,0.3-0.2,0.5-0.4,0.7c0.2,0,0.3-0.1,0.5-0.3c0.2-0.2,0.4-0.4,0.4-0.7
	C108.5,141,108.4,140.9,108.3,140.8z"/>
<path class="st14" d="M110.8,138.9c0.4,0,0.7,0.3,0.9,0.7c0.2-0.2,0.3-0.4,0.2-0.7c-0.1-0.2-0.6-0.2-0.5,0.1"/>
<path class="st14" d="M110.5,138.9c0.1,0.2,0.1,0.3,0.2,0.4c0.1,0.1,0.2,0.2,0.3,0.3c0.1,0.5,0.8,0.7,1.1,0.3
	c0.3-0.3,0.5-0.7,0.5-1.2c0-0.4-0.3-0.7-0.7-0.8c-0.6-0.2-1.4,0.4-1.2,1.1c0.2,0.7,1.2,0.5,1.2-0.2c-0.5-0.2-0.8-0.1-1,0.3
	c0.4,0,0.8,0,1.2,0c-0.2-0.4-0.6-0.8-1-0.8C111,138.3,110.4,138.6,110.5,138.9z"/>
<path class="st14" d="M89.9,141.1c-0.6,0.1-0.8,0.9-0.5,1.3c0.3,0.4,1.2,0.4,1.4-0.1c0.3-0.5-0.2-1.2-0.7-1.2"/>
<path class="st14" d="M89.9,140.9c-0.6,0.1-1,0.7-0.9,1.3c0.1,0.6,0.7,1,1.3,0.9c1.5-0.2,1.3-2.2-0.1-2.4c-0.5-0.1-0.5,0.7,0,0.8
	c0.6,0.1,0.6,0.9-0.1,0.9c-0.6,0-0.5-0.9-0.1-1.1C90.3,141.2,90.1,140.9,89.9,140.9z"/>
<path class="st14" d="M90.2,141c-0.3,0.1-0.5,0.6-0.3,0.9L90.2,141z"/>
<path class="st14" d="M90.2,140.7c-0.9-0.1-1.5,0.9-0.8,1.6c0.4,0.4,1.1,0,1-0.6l-0.1-0.5C90.5,141,90.5,140.7,90.2,140.7z"/>
<path class="st10" d="M50.1,38.5c0,0,1.2,3.5,4.6,3.6c3.4,0.1,4.7-2.1,5-3.6l-3.7-2L50.1,38.5z"/>
<path class="st10" d="M59.7,38.5c0,0,1.2,3.5,4.6,3.6c3.4,0.1,4.7-2.1,5-3.6l-3.7-2L59.7,38.5z"/>
<path class="st10" d="M69.4,38.5c0,0,1.2,3.5,4.6,3.6c3.4,0.1,4.7-2.1,5-3.6l-3.7-2L69.4,38.5z"/>
<path class="st10" d="M79,38.5c0,0,1.2,3.5,4.6,3.6c3.4,0.1,4.7-2.1,5-3.6l-3.7-2L79,38.5z"/>
<path class="st10" d="M88.6,38.5c0,0,1.2,3.5,4.6,3.6c3.4,0.1,4.7-2.1,5-3.6l-3.7-2L88.6,38.5z"/>
<path class="st10" d="M98.2,38.5c0,0,1.2,3.5,4.6,3.6c3.4,0.1,4.7-2.1,5-3.6l-3.7-2L98.2,38.5z"/>
<path class="st10" d="M107.8,38.5c0,0,1.2,3.5,4.6,3.6c3.4,0.1,4.7-2.1,5-3.6l-3.7-2L107.8,38.5z"/>
<g>
	<defs>
		<path id="SVGID_3_" d="M50.1,38.5h67.3l-3.3-37.9H53.5L50.1,38.5z"/>
	</defs>
	<clipPath id="SVGID_4_">
		<use xlink:href="#SVGID_3_"  style="overflow:visible;"/>
	</clipPath>
	<g class="st16">
		<path class="st17" d="M40.2,39c0,0,1.5,5.9,6.1,5.9c4.6,0.1,6.3-3.7,6.8-5.9L48,36.3L40.2,39z"/>
		<path class="st13" d="M46.4,45.2c-0.1,0-0.1,0-0.2,0c-4.7-0.1-6.3-6-6.3-6.1l-0.1-0.2l8.1-2.8l5.3,2.8v0.2
			C52.7,42.1,50.6,45.2,46.4,45.2z M40.5,39.2c0.3,1,1.9,5.5,5.8,5.6h0.1c4.8,0,6.1-4.3,6.4-5.6L48,36.6L40.5,39.2z"/>
		<path class="st17" d="M53.1,39c0,0,1.5,5.9,6.1,5.9c4.6,0.1,6.3-3.7,6.8-5.9l-5.1-2.7L53.1,39z"/>
		<path class="st13" d="M59.3,45.2c-0.1,0-0.1,0-0.2,0c-4.7-0.1-6.3-6-6.3-6.1l-0.1-0.2l8.1-2.8l5.3,2.8v0.2
			C65.6,42.1,63.5,45.2,59.3,45.2z M53.4,39.2c0.3,1,1.9,5.5,5.8,5.6h0.1c4.8,0,6.1-4.3,6.4-5.6l-4.8-2.6L53.4,39.2z"/>
		<path class="st17" d="M66,39c0,0,1.5,5.9,6.1,5.9c4.6,0.1,6.3-3.7,6.8-5.9l-5.1-2.7L66,39z"/>
		<path class="st13" d="M72.2,45.2c-0.1,0-0.1,0-0.2,0c-4.7-0.1-6.3-6-6.3-6.1l-0.1-0.2l8.1-2.8l5.3,2.8v0.2
			C78.4,42.1,76.3,45.2,72.2,45.2z M66.2,39.2c0.3,1,1.9,5.5,5.8,5.6h0.1c4.8,0,6.1-4.3,6.4-5.6l-4.8-2.6L66.2,39.2z"/>
		<path class="st17" d="M78.8,39c0,0,1.5,5.9,6.1,5.9c4.6,0.1,6.3-3.7,6.8-5.9l-5.1-2.7L78.8,39z"/>
		<path class="st13" d="M85.1,45.2c-0.1,0-0.1,0-0.2,0c-4.7-0.1-6.3-6-6.3-6.1l-0.1-0.2l8.1-2.8l5.3,2.8v0.2
			C91.3,42.1,89.2,45.2,85.1,45.2z M79.1,39.2c0.3,1,1.9,5.5,5.8,5.6H85c4.8,0,6.1-4.3,6.4-5.6l-4.8-2.6L79.1,39.2z"/>
		<path class="st17" d="M91.7,39c0,0,1.5,5.9,6.1,5.9c4.6,0.1,6.3-3.7,6.8-5.9l-5.1-2.7L91.7,39z"/>
		<path class="st13" d="M97.9,45.2c-0.1,0-0.1,0-0.2,0c-4.7-0.1-6.3-6-6.3-6.1l-0.1-0.2l8.1-2.8l5.3,2.8v0.2
			C104.2,42.1,102.1,45.2,97.9,45.2z M92,39.2c0.3,1,1.9,5.5,5.8,5.6h0.1c4.8,0,6.1-4.3,6.4-5.6l-4.8-2.6L92,39.2z"/>
		<path class="st17" d="M104.6,39c0,0,1.5,5.9,6.1,5.9c4.6,0.1,6.3-3.7,6.8-5.9l-5.1-2.7L104.6,39z"/>
		<path class="st13" d="M110.8,45.2c-0.1,0-0.1,0-0.2,0c-4.7-0.1-6.3-6-6.3-6.1l-0.1-0.2l8.1-2.8l5.3,2.8v0.2
			C117.1,42.1,114.9,45.2,110.8,45.2z M104.8,39.2c0.3,1,1.9,5.5,5.8,5.6h0.1c4.8,0,6.1-4.3,6.4-5.6l-4.8-2.6L104.8,39.2z"/>
		<path class="st13" d="M123.7,45.2c-0.1,0-0.1,0-0.2,0c-4.7-0.1-6.3-6-6.3-6.1l-0.1-0.2l8.1-2.8l5.3,2.8v0.2
			C129.9,42.1,127.8,45.2,123.7,45.2z M117.7,39.2c0.3,1,1.9,5.5,5.8,5.6c4.9,0.1,6.3-4.3,6.5-5.6l-4.8-2.6L117.7,39.2z"/>
		<path class="st17" d="M46.6,34.7c0,0,1.5,5.9,6.1,5.9c4.6,0.1,6.3-3.7,6.8-5.9L54.4,32L46.6,34.7z"/>
		<path class="st13" d="M52.9,40.9c-0.1,0-0.1,0-0.2,0c-4.7-0.1-6.3-6-6.3-6.1l-0.1-0.2l8.1-2.8l5.3,2.8v0.2
			C59.1,37.8,57,40.9,52.9,40.9z M46.9,34.9c0.3,1,1.9,5.5,5.8,5.6h0.1c4.8,0,6.1-4.3,6.4-5.6l-4.8-2.6L46.9,34.9z"/>
		<path class="st17" d="M59.5,34.7c0,0,1.5,5.9,6.1,5.9c4.6,0.1,6.3-3.7,6.8-5.9L67.3,32L59.5,34.7z"/>
		<path class="st13" d="M65.7,40.9c-0.1,0-0.1,0-0.2,0c-4.7-0.1-6.3-6-6.3-6.1l-0.1-0.2l8.1-2.8l5.3,2.8v0.2
			C72,37.8,69.9,40.9,65.7,40.9z M59.8,34.9c0.3,1,1.9,5.5,5.8,5.6h0.1c4.8,0,6.1-4.3,6.4-5.6l-4.8-2.6L59.8,34.9z"/>
		<path class="st17" d="M72.4,34.7c0,0,1.5,5.9,6.1,5.9c4.6,0.1,6.3-3.7,6.8-5.9L80.2,32L72.4,34.7z"/>
		<path class="st13" d="M78.6,40.9c-0.1,0-0.1,0-0.2,0c-4.7-0.1-6.3-6-6.3-6.1L72,34.6l8.1-2.8l5.3,2.8v0.2
			C84.9,37.8,82.8,40.9,78.6,40.9z M72.7,34.9c0.3,1,1.9,5.5,5.8,5.6h0.1c4.8,0,6.1-4.3,6.4-5.6l-4.8-2.6L72.7,34.9z"/>
		<path class="st17" d="M85.3,34.7c0,0,1.5,5.9,6.1,5.9c4.6,0.1,6.3-3.7,6.8-5.9L93.1,32L85.3,34.7z"/>
		<path class="st13" d="M91.5,40.9c-0.1,0-0.1,0-0.2,0c-4.7-0.1-6.3-6-6.3-6.1l-0.1-0.2l8.1-2.8l5.3,2.8v0.2
			C97.8,37.8,95.6,40.9,91.5,40.9z M85.5,34.9c0.3,1,1.9,5.5,5.8,5.6h0.1c4.8,0,6.1-4.3,6.4-5.6L93,32.3L85.5,34.9z"/>
		<path class="st17" d="M98.1,34.7c0,0,1.5,5.9,6.1,5.9c4.6,0.1,6.3-3.7,6.8-5.9l-5.1-2.7L98.1,34.7z"/>
		<path class="st13" d="M104.4,40.9c-0.1,0-0.1,0-0.2,0c-4.7-0.1-6.3-6-6.3-6.1l-0.1-0.2l8.1-2.8l5.3,2.8v0.2
			C110.6,37.8,108.5,40.9,104.4,40.9z M98.4,34.9c0.3,1,1.9,5.5,5.8,5.6h0.1c4.8,0,6.1-4.3,6.4-5.6l-4.8-2.6L98.4,34.9z"/>
		<path class="st17" d="M111,34.7c0,0,1.5,5.9,6.1,5.9c4.6,0.1,6.3-3.7,6.8-5.9l-5.1-2.7L111,34.7z"/>
		<path class="st13" d="M117.2,40.9c-0.1,0-0.1,0-0.2,0c-4.7-0.1-6.3-6-6.3-6.1l-0.1-0.2l8.1-2.8l5.3,2.8v0.2
			C123.5,37.8,121.4,40.9,117.2,40.9z M111.3,34.9c0.3,1,1.9,5.5,5.8,5.6h0.1c4.8,0,6.1-4.3,6.4-5.6l-4.8-2.6L111.3,34.9z"/>
		<path class="st17" d="M40.2,30.4c0,0,1.5,5.9,6.1,5.9c4.6,0.1,6.3-3.7,6.8-5.9L48,27.7L40.2,30.4z"/>
		<path class="st13" d="M46.4,36.6c-0.1,0-0.1,0-0.2,0c-4.7-0.1-6.3-6-6.3-6.1l-0.1-0.2l8.1-2.8l5.3,2.8v0.2
			C52.7,33.5,50.6,36.6,46.4,36.6z M40.5,30.6c0.3,1,1.9,5.5,5.8,5.6h0.1c4.8,0,6.1-4.3,6.4-5.6L48,28L40.5,30.6z"/>
		<path class="st17" d="M53.1,30.4c0,0,1.5,5.9,6.1,5.9c4.6,0.1,6.3-3.7,6.8-5.9l-5.1-2.7L53.1,30.4z"/>
		<path class="st13" d="M59.3,36.6c-0.1,0-0.1,0-0.2,0c-4.7-0.1-6.3-6-6.3-6.1l-0.1-0.2l8.1-2.8l5.3,2.8v0.2
			C65.6,33.5,63.5,36.6,59.3,36.6z M53.4,30.6c0.3,1,1.9,5.5,5.8,5.6h0.1c4.8,0,6.1-4.3,6.4-5.6L60.9,28L53.4,30.6z"/>
		<path class="st17" d="M66,30.4c0,0,1.5,5.9,6.1,5.9c4.6,0.1,6.3-3.7,6.8-5.9l-5.1-2.7L66,30.4z"/>
		<path class="st13" d="M72.2,36.6c-0.1,0-0.1,0-0.2,0c-4.7-0.1-6.3-6-6.3-6.1l-0.1-0.2l8.1-2.8l5.3,2.8v0.2
			C78.4,33.5,76.3,36.6,72.2,36.6z M66.2,30.6c0.3,1,1.9,5.5,5.8,5.6h0.1c4.8,0,6.1-4.3,6.4-5.6L73.7,28L66.2,30.6z"/>
		<path class="st17" d="M78.8,30.4c0,0,1.5,5.9,6.1,5.9c4.6,0.1,6.3-3.7,6.8-5.9l-5.1-2.7L78.8,30.4z"/>
		<path class="st13" d="M85.1,36.6c-0.1,0-0.1,0-0.2,0c-4.7-0.1-6.3-6-6.3-6.1l-0.1-0.2l8.1-2.8l5.3,2.8v0.2
			C91.3,33.5,89.2,36.6,85.1,36.6z M79.1,30.6c0.3,1,1.9,5.5,5.8,5.6H85c4.8,0,6.1-4.3,6.4-5.6L86.6,28L79.1,30.6z"/>
		<path class="st17" d="M91.7,30.4c0,0,1.5,5.9,6.1,5.9c4.6,0.1,6.3-3.7,6.8-5.9l-5.1-2.7L91.7,30.4z"/>
		<path class="st13" d="M97.9,36.6c-0.1,0-0.1,0-0.2,0c-4.7-0.1-6.3-6-6.3-6.1l-0.1-0.2l8.1-2.8l5.3,2.8v0.2
			C104.2,33.5,102.1,36.6,97.9,36.6z M92,30.6c0.3,1,1.9,5.5,5.8,5.6h0.1c4.8,0,6.1-4.3,6.4-5.6L99.5,28L92,30.6z"/>
		<path class="st17" d="M104.6,30.4c0,0,1.5,5.9,6.1,5.9c4.6,0.1,6.3-3.7,6.8-5.9l-5.1-2.7L104.6,30.4z"/>
		<path class="st13" d="M110.8,36.6c-0.1,0-0.1,0-0.2,0c-4.7-0.1-6.3-6-6.3-6.1l-0.1-0.2l8.1-2.8l5.3,2.8v0.2
			C117.1,33.5,114.9,36.6,110.8,36.6z M104.8,30.6c0.3,1,1.9,5.5,5.8,5.6h0.1c4.8,0,6.1-4.3,6.4-5.6l-4.8-2.6L104.8,30.6z"/>
		<path class="st13" d="M123.7,36.6c-0.1,0-0.1,0-0.2,0c-4.7-0.1-6.3-6-6.3-6.1l-0.1-0.2l8.1-2.8l5.3,2.8v0.2
			C129.9,33.5,127.8,36.6,123.7,36.6z M117.7,30.6c0.3,1,1.9,5.5,5.8,5.6h0.1c4.8,0,6.1-4.3,6.4-5.6l-4.8-2.6L117.7,30.6z"/>
		<path class="st17" d="M46.6,26.1c0,0,1.5,5.9,6.1,5.9c4.6,0.1,6.3-3.7,6.8-5.9l-5.1-2.7L46.6,26.1z"/>
		<path class="st13" d="M52.9,32.3c-0.1,0-0.1,0-0.2,0c-4.7-0.1-6.3-6-6.3-6.1L46.3,26l8.1-2.8l5.3,2.8v0.2
			C59.1,29.2,57,32.3,52.9,32.3z M46.9,26.3c0.3,1,1.9,5.5,5.8,5.6h0.1c4.8,0,6.1-4.3,6.4-5.6l-4.8-2.6L46.9,26.3z"/>
		<path class="st17" d="M59.5,26.1c0,0,1.5,5.9,6.1,5.9c4.6,0.1,6.3-3.7,6.8-5.9l-5.1-2.7L59.5,26.1z"/>
		<path class="st13" d="M65.7,32.3c-0.1,0-0.1,0-0.2,0c-4.7-0.1-6.3-6-6.3-6.1L59.1,26l8.1-2.8l5.3,2.8v0.2
			C72,29.2,69.9,32.3,65.7,32.3z M59.8,26.3c0.3,1,1.9,5.5,5.8,5.6h0.1c4.8,0,6.1-4.3,6.4-5.6l-4.8-2.6L59.8,26.3z"/>
		<path class="st17" d="M72.4,26.1c0,0,1.5,5.9,6.1,5.9c4.6,0.1,6.3-3.7,6.8-5.9l-5.1-2.7L72.4,26.1z"/>
		<path class="st13" d="M78.6,32.3c-0.1,0-0.1,0-0.2,0c-4.7-0.1-6.3-6-6.3-6.1L72,26l8.1-2.8l5.3,2.8v0.2
			C84.9,29.2,82.8,32.3,78.6,32.3z M72.7,26.3c0.3,1,1.9,5.5,5.8,5.6h0.1c4.8,0,6.1-4.3,6.4-5.6l-4.8-2.6L72.7,26.3z"/>
		<path class="st17" d="M85.3,26.1c0,0,1.5,5.9,6.1,5.9c4.6,0.1,6.3-3.7,6.8-5.9l-5.1-2.7L85.3,26.1z"/>
		<path class="st13" d="M91.5,32.3c-0.1,0-0.1,0-0.2,0c-4.7-0.1-6.3-6-6.3-6.1L84.9,26l8.1-2.8l5.3,2.8v0.2
			C97.8,29.2,95.6,32.3,91.5,32.3z M85.5,26.3c0.3,1,1.9,5.5,5.8,5.6h0.1c4.8,0,6.1-4.3,6.4-5.6L93,23.7L85.5,26.3z"/>
		<path class="st17" d="M98.1,26.1c0,0,1.5,5.9,6.1,5.9c4.6,0.1,6.3-3.7,6.8-5.9l-5.1-2.7L98.1,26.1z"/>
		<path class="st13" d="M104.4,32.3c-0.1,0-0.1,0-0.2,0c-4.7-0.1-6.3-6-6.3-6.1L97.8,26l8.1-2.8l5.3,2.8v0.2
			C110.6,29.2,108.5,32.3,104.4,32.3z M98.4,26.3c0.3,1,1.9,5.5,5.8,5.6h0.1c4.8,0,6.1-4.3,6.4-5.6l-4.8-2.6L98.4,26.3z"/>
		<path class="st17" d="M111,26.1c0,0,1.5,5.9,6.1,5.9c4.6,0.1,6.3-3.7,6.8-5.9l-5.1-2.7L111,26.1z"/>
		<path class="st13" d="M117.2,32.3c-0.1,0-0.1,0-0.2,0c-4.7-0.1-6.3-6-6.3-6.1l-0.1-0.2l8.1-2.8L124,26v0.2
			C123.5,29.2,121.4,32.3,117.2,32.3z M111.3,26.3c0.3,1,1.9,5.5,5.8,5.6h0.1c4.8,0,6.1-4.3,6.4-5.6l-4.8-2.6L111.3,26.3z"/>
		<path class="st17" d="M40.2,21.8c0,0,1.5,5.9,6.1,5.9c4.6,0.1,6.3-3.7,6.8-5.9L48,19.1L40.2,21.8z"/>
		<path class="st13" d="M46.4,28c-0.1,0-0.1,0-0.2,0c-4.7-0.1-6.3-6-6.3-6.1l-0.1-0.2l8.1-2.8l5.3,2.8v0.2
			C52.7,24.9,50.6,28,46.4,28z M40.5,22c0.3,1,1.9,5.5,5.8,5.6h0.1c4.8,0,6.1-4.3,6.4-5.6L48,19.4L40.5,22z"/>
		<path class="st17" d="M53.1,21.8c0,0,1.5,5.9,6.1,5.9c4.6,0.1,6.3-3.7,6.8-5.9l-5.1-2.7L53.1,21.8z"/>
		<path class="st13" d="M59.3,28c-0.1,0-0.1,0-0.2,0c-4.7-0.1-6.3-6-6.3-6.1l-0.1-0.2l8.1-2.8l5.3,2.8v0.2
			C65.6,24.9,63.5,28,59.3,28z M53.4,22c0.3,1,1.9,5.5,5.8,5.6h0.1c4.8,0,6.1-4.3,6.4-5.6l-4.8-2.6L53.4,22z"/>
		<path class="st17" d="M66,21.8c0,0,1.5,5.9,6.1,5.9c4.6,0.1,6.3-3.7,6.8-5.9l-5.1-2.7L66,21.8z"/>
		<path class="st13" d="M72.2,28c-0.1,0-0.1,0-0.2,0c-4.7-0.1-6.3-6-6.3-6.1l-0.1-0.2l8.1-2.8l5.3,2.8v0.2
			C78.4,24.9,76.3,28,72.2,28z M66.2,22c0.3,1,1.9,5.5,5.8,5.6h0.1c4.8,0,6.1-4.3,6.4-5.6l-4.8-2.6L66.2,22z"/>
		<path class="st17" d="M78.8,21.8c0,0,1.5,5.9,6.1,5.9c4.6,0.1,6.3-3.7,6.8-5.9l-5.1-2.7L78.8,21.8z"/>
		<path class="st13" d="M85.1,28c-0.1,0-0.1,0-0.2,0c-4.7-0.1-6.3-6-6.3-6.1l-0.1-0.2l8.1-2.8l5.3,2.8v0.2
			C91.3,24.9,89.2,28,85.1,28z M79.1,22c0.3,1,1.9,5.5,5.8,5.6H85c4.8,0,6.1-4.3,6.4-5.6l-4.8-2.6L79.1,22z"/>
		<path class="st17" d="M91.7,21.8c0,0,1.5,5.9,6.1,5.9c4.6,0.1,6.3-3.7,6.8-5.9l-5.1-2.7L91.7,21.8z"/>
		<path class="st13" d="M97.9,28c-0.1,0-0.1,0-0.2,0c-4.7-0.1-6.3-6-6.3-6.1l-0.1-0.2l8.1-2.8l5.3,2.8v0.2
			C104.2,24.9,102.1,28,97.9,28z M92,22c0.3,1,1.9,5.5,5.8,5.6h0.1c4.8,0,6.1-4.3,6.4-5.6l-4.8-2.6L92,22z"/>
		<path class="st17" d="M104.6,21.8c0,0,1.5,5.9,6.1,5.9c4.6,0.1,6.3-3.7,6.8-5.9l-5.1-2.7L104.6,21.8z"/>
		<path class="st13" d="M110.8,28c-0.1,0-0.1,0-0.2,0c-4.7-0.1-6.3-6-6.3-6.1l-0.1-0.2l8.1-2.8l5.3,2.8v0.2
			C117.1,24.9,114.9,28,110.8,28z M104.8,22c0.3,1,1.9,5.5,5.8,5.6h0.1c4.8,0,6.1-4.3,6.4-5.6l-4.8-2.6L104.8,22z"/>
		<path class="st13" d="M123.7,28c-0.1,0-0.1,0-0.2,0c-4.7-0.1-6.3-6-6.3-6.1l-0.1-0.2l8.1-2.8l5.3,2.8v0.2
			C129.9,24.9,127.8,28,123.7,28z M117.7,22c0.3,1,1.9,5.5,5.8,5.6c4.9,0.1,6.3-4.3,6.5-5.6l-4.8-2.6L117.7,22z"/>
		<path class="st17" d="M46.6,17.5c0,0,1.5,5.9,6.1,5.9c4.6,0.1,6.3-3.7,6.8-5.9l-5.1-2.7L46.6,17.5z"/>
		<path class="st13" d="M52.9,23.7c-0.1,0-0.1,0-0.2,0c-4.7-0.1-6.3-6-6.3-6.1l-0.1-0.2l8.1-2.8l5.3,2.8v0.2
			C59.1,20.6,57,23.7,52.9,23.7z M46.9,17.7c0.3,1,1.9,5.5,5.8,5.6h0.1c4.8,0,6.1-4.3,6.4-5.6l-4.8-2.6L46.9,17.7z"/>
		<path class="st17" d="M59.5,17.5c0,0,1.5,5.9,6.1,5.9c4.6,0.1,6.3-3.7,6.8-5.9l-5.1-2.7L59.5,17.5z"/>
		<path class="st13" d="M65.7,23.7c-0.1,0-0.1,0-0.2,0c-4.7-0.1-6.3-6-6.3-6.1l-0.1-0.2l8.1-2.8l5.3,2.8v0.2
			C72,20.6,69.9,23.7,65.7,23.7z M59.8,17.7c0.3,1,1.9,5.5,5.8,5.6h0.1c4.8,0,6.1-4.3,6.4-5.6l-4.8-2.6L59.8,17.7z"/>
		<path class="st17" d="M72.4,17.5c0,0,1.5,5.9,6.1,5.9c4.6,0.1,6.3-3.7,6.8-5.9l-5.1-2.7L72.4,17.5z"/>
		<path class="st13" d="M78.6,23.7c-0.1,0-0.1,0-0.2,0c-4.7-0.1-6.3-6-6.3-6.1L72,17.4l8.1-2.8l5.3,2.8v0.2
			C84.9,20.6,82.8,23.7,78.6,23.7z M72.7,17.7c0.3,1,1.9,5.5,5.8,5.6h0.1c4.8,0,6.1-4.3,6.4-5.6l-4.8-2.6L72.7,17.7z"/>
		<path class="st17" d="M85.3,17.5c0,0,1.5,5.9,6.1,5.9c4.6,0.1,6.3-3.7,6.8-5.9l-5.1-2.7L85.3,17.5z"/>
		<path class="st13" d="M91.5,23.7c-0.1,0-0.1,0-0.2,0c-4.7-0.1-6.3-6-6.3-6.1l-0.1-0.2l8.1-2.8l5.3,2.8v0.2
			C97.8,20.6,95.6,23.7,91.5,23.7z M85.5,17.7c0.3,1,1.9,5.5,5.8,5.6h0.1c4.8,0,6.1-4.3,6.4-5.6L93,15.1L85.5,17.7z"/>
		<path class="st17" d="M98.1,17.5c0,0,1.5,5.9,6.1,5.9c4.6,0.1,6.3-3.7,6.8-5.9l-5.1-2.7L98.1,17.5z"/>
		<path class="st13" d="M104.4,23.7c-0.1,0-0.1,0-0.2,0c-4.7-0.1-6.3-6-6.3-6.1l-0.1-0.2l8.1-2.8l5.3,2.8v0.2
			C110.6,20.6,108.5,23.7,104.4,23.7z M98.4,17.7c0.3,1,1.9,5.5,5.8,5.6h0.1c4.8,0,6.1-4.3,6.4-5.6l-4.8-2.6L98.4,17.7z"/>
		<path class="st17" d="M111,17.5c0,0,1.5,5.9,6.1,5.9c4.6,0.1,6.3-3.7,6.8-5.9l-5.1-2.7L111,17.5z"/>
		<path class="st13" d="M117.2,23.7c-0.1,0-0.1,0-0.2,0c-4.7-0.1-6.3-6-6.3-6.1l-0.1-0.2l8.1-2.8l5.3,2.8v0.2
			C123.5,20.6,121.4,23.7,117.2,23.7z M111.3,17.7c0.3,1,1.9,5.5,5.8,5.6h0.1c4.8,0,6.1-4.3,6.4-5.6l-4.8-2.6L111.3,17.7z"/>
		<path class="st17" d="M40.2,13.2c0,0,1.5,5.9,6.1,5.9c4.6,0.1,6.3-3.7,6.8-5.9L48,10.5L40.2,13.2z"/>
		<path class="st13" d="M46.4,19.4c-0.1,0-0.1,0-0.2,0c-4.7-0.1-6.3-6-6.3-6.1l-0.1-0.2l8.1-2.8l5.3,2.8v0.2
			C52.7,16.3,50.6,19.4,46.4,19.4z M40.5,13.4c0.3,1,1.9,5.5,5.8,5.6h0.1c4.8,0,6.1-4.3,6.4-5.6L48,10.8L40.5,13.4z"/>
		<path class="st17" d="M53.1,13.2c0,0,1.5,5.9,6.1,5.9c4.6,0.1,6.3-3.7,6.8-5.9l-5.1-2.7L53.1,13.2z"/>
		<path class="st13" d="M59.3,19.4c-0.1,0-0.1,0-0.2,0c-4.7-0.1-6.3-6-6.3-6.1l-0.1-0.2l8.1-2.8l5.3,2.8v0.2
			C65.6,16.3,63.5,19.4,59.3,19.4z M53.4,13.4c0.3,1,1.9,5.5,5.8,5.6h0.1c4.8,0,6.1-4.3,6.4-5.6l-4.8-2.6L53.4,13.4z"/>
		<path class="st17" d="M66,13.2c0,0,1.5,5.9,6.1,5.9c4.6,0.1,6.3-3.7,6.8-5.9l-5.1-2.7L66,13.2z"/>
		<path class="st13" d="M72.2,19.4c-0.1,0-0.1,0-0.2,0c-4.7-0.1-6.3-6-6.3-6.1l-0.1-0.2l8.1-2.8l5.3,2.8v0.2
			C78.4,16.3,76.3,19.4,72.2,19.4z M66.2,13.4c0.3,1,1.9,5.5,5.8,5.6h0.1c4.8,0,6.1-4.3,6.4-5.6l-4.8-2.6L66.2,13.4z"/>
		<path class="st17" d="M78.8,13.2c0,0,1.5,5.9,6.1,5.9c4.6,0.1,6.3-3.7,6.8-5.9l-5.1-2.7L78.8,13.2z"/>
		<path class="st13" d="M85.1,19.4c-0.1,0-0.1,0-0.2,0c-4.7-0.1-6.3-6-6.3-6.1l-0.1-0.2l8.1-2.8l5.3,2.8v0.2
			C91.3,16.3,89.2,19.4,85.1,19.4z M79.1,13.4c0.3,1,1.9,5.5,5.8,5.6H85c4.8,0,6.1-4.3,6.4-5.6l-4.8-2.6L79.1,13.4z"/>
		<path class="st17" d="M91.7,13.2c0,0,1.5,5.9,6.1,5.9c4.6,0.1,6.3-3.7,6.8-5.9l-5.1-2.7L91.7,13.2z"/>
		<path class="st13" d="M97.9,19.4c-0.1,0-0.1,0-0.2,0c-4.7-0.1-6.3-6-6.3-6.1l-0.1-0.2l8.1-2.8l5.3,2.8v0.2
			C104.2,16.3,102.1,19.4,97.9,19.4z M92,13.4c0.3,1,1.9,5.5,5.8,5.6h0.1c4.8,0,6.1-4.3,6.4-5.6l-4.8-2.6L92,13.4z"/>
		<path class="st17" d="M104.6,13.2c0,0,1.5,5.9,6.1,5.9c4.6,0.1,6.3-3.7,6.8-5.9l-5.1-2.7L104.6,13.2z"/>
		<path class="st13" d="M110.8,19.4c-0.1,0-0.1,0-0.2,0c-4.7-0.1-6.3-6-6.3-6.1l-0.1-0.2l8.1-2.8l5.3,2.8v0.2
			C117.1,16.3,114.9,19.4,110.8,19.4z M104.8,13.4c0.3,1,1.9,5.5,5.8,5.6h0.1c4.8,0,6.1-4.3,6.4-5.6l-4.8-2.6L104.8,13.4z"/>
		<path class="st13" d="M123.7,19.4c-0.1,0-0.1,0-0.2,0c-4.7-0.1-6.3-6-6.3-6.1l-0.1-0.2l8.1-2.8l5.3,2.8v0.2
			C129.9,16.3,127.8,19.4,123.7,19.4z M117.7,13.4c0.3,1,1.9,5.5,5.8,5.6c4.9,0.1,6.3-4.3,6.5-5.6l-4.8-2.6L117.7,13.4z"/>
		<path class="st17" d="M46.6,9c0,0,1.5,5.9,6.1,5.9C57.3,15,59,11.2,59.5,9l-5.1-2.7L46.6,9z"/>
		<path class="st13" d="M52.9,15.1c-0.1,0-0.1,0-0.2,0C48,15,46.4,9.1,46.4,9l-0.1-0.2L54.4,6l5.3,2.8V9C59.1,12,57,15.1,52.9,15.1z
			 M46.9,9.1c0.3,1,1.9,5.5,5.8,5.6h0.1c4.8,0,6.1-4.3,6.4-5.6l-4.8-2.6L46.9,9.1z"/>
		<path class="st17" d="M59.5,9c0,0,1.5,5.9,6.1,5.9c4.6,0.1,6.3-3.7,6.8-5.9l-5.1-2.7L59.5,9z"/>
		<path class="st13" d="M65.7,15.1c-0.1,0-0.1,0-0.2,0c-4.7-0.1-6.3-6-6.3-6.1l-0.1-0.2L67.2,6l5.3,2.8V9C72,12,69.9,15.1,65.7,15.1
			z M59.8,9.1c0.3,1,1.9,5.5,5.8,5.6h0.1c4.8,0,6.1-4.3,6.4-5.6l-4.8-2.6L59.8,9.1z"/>
		<path class="st17" d="M72.4,9c0,0,1.5,5.9,6.1,5.9c4.6,0.1,6.3-3.7,6.8-5.9l-5.1-2.7L72.4,9z"/>
		<path class="st13" d="M78.6,15.1c-0.1,0-0.1,0-0.2,0c-4.7-0.1-6.3-6-6.3-6.1L72,8.8L80.1,6l5.3,2.8V9C84.9,12,82.8,15.1,78.6,15.1
			z M72.7,9.1c0.3,1,1.9,5.5,5.8,5.6h0.1c4.8,0,6.1-4.3,6.4-5.6l-4.8-2.6L72.7,9.1z"/>
		<path class="st17" d="M85.3,9c0,0,1.5,5.9,6.1,5.9C96,15,97.7,11.2,98.2,9l-5.1-2.7L85.3,9z"/>
		<path class="st13" d="M91.5,15.1c-0.1,0-0.1,0-0.2,0C86.6,15,85,9.1,85,9l-0.1-0.2L93,6l5.3,2.8V9C97.8,12,95.6,15.1,91.5,15.1z
			 M85.5,9.1c0.3,1,1.9,5.5,5.8,5.6h0.1c4.8,0,6.1-4.3,6.4-5.6L93,6.5L85.5,9.1z"/>
		<path class="st17" d="M98.1,9c0,0,1.5,5.9,6.1,5.9c4.6,0.1,6.3-3.7,6.8-5.9l-5.1-2.7L98.1,9z"/>
		<path class="st13" d="M104.4,15.1c-0.1,0-0.1,0-0.2,0c-4.7-0.1-6.3-6-6.3-6.1l-0.1-0.2l8.1-2.8l5.3,2.8V9
			C110.6,12,108.5,15.1,104.4,15.1z M98.4,9.1c0.3,1,1.9,5.5,5.8,5.6h0.1c4.8,0,6.1-4.3,6.4-5.6l-4.8-2.6L98.4,9.1z"/>
		<path class="st17" d="M111,9c0,0,1.5,5.9,6.1,5.9c4.6,0.1,6.3-3.7,6.8-5.9l-5.1-2.7L111,9z"/>
		<path class="st13" d="M117.2,15.1c-0.1,0-0.1,0-0.2,0c-4.7-0.1-6.3-6-6.3-6.1l-0.1-0.2l8.1-2.8l5.3,2.8V9
			C123.5,12,121.4,15.1,117.2,15.1z M111.3,9.1c0.3,1,1.9,5.5,5.8,5.6h0.1c4.8,0,6.1-4.3,6.4-5.6l-4.8-2.6L111.3,9.1z"/>
		<path class="st17" d="M40.2,4.7c0,0,1.5,5.9,6.1,5.9c4.6,0.1,6.3-3.7,6.8-5.9L48,2L40.2,4.7z"/>
		<path class="st13" d="M46.4,10.8c-0.1,0-0.1,0-0.2,0c-4.7-0.1-6.3-6-6.3-6.1l-0.1-0.2l8.1-2.8l5.3,2.8v0.2
			C52.7,7.7,50.6,10.8,46.4,10.8z M40.5,4.8c0.3,1,1.9,5.5,5.8,5.6h0.1c4.8,0,6.1-4.3,6.4-5.6L48,2.2L40.5,4.8z"/>
		<path class="st17" d="M53.1,4.7c0,0,1.5,5.9,6.1,5.9c4.6,0.1,6.3-3.7,6.8-5.9L60.9,2L53.1,4.7z"/>
		<path class="st13" d="M59.3,10.8c-0.1,0-0.1,0-0.2,0c-4.7-0.1-6.3-6-6.3-6.1l-0.1-0.2l8.1-2.8l5.3,2.8v0.2
			C65.6,7.7,63.5,10.8,59.3,10.8z M53.4,4.8c0.3,1,1.9,5.5,5.8,5.6h0.1c4.8,0,6.1-4.3,6.4-5.6l-4.8-2.6L53.4,4.8z"/>
		<path class="st17" d="M66,4.7c0,0,1.5,5.9,6.1,5.9c4.6,0.1,6.3-3.7,6.8-5.9L73.8,2L66,4.7z"/>
		<path class="st13" d="M72.2,10.8c-0.1,0-0.1,0-0.2,0c-4.7-0.1-6.3-6-6.3-6.1l-0.1-0.2l8.1-2.8L79,4.5v0.2
			C78.4,7.7,76.3,10.8,72.2,10.8z M66.2,4.8c0.3,1,1.9,5.5,5.8,5.6h0.1c4.8,0,6.1-4.3,6.4-5.6l-4.8-2.6L66.2,4.8z"/>
		<path class="st17" d="M78.8,4.7c0,0,1.5,5.9,6.1,5.9c4.6,0.1,6.3-3.7,6.8-5.9L86.6,2L78.8,4.7z"/>
		<path class="st13" d="M85.1,10.8c-0.1,0-0.1,0-0.2,0c-4.7-0.1-6.3-6-6.3-6.1l-0.1-0.2l8.1-2.8l5.3,2.8v0.2
			C91.3,7.7,89.2,10.8,85.1,10.8z M79.1,4.8c0.3,1,1.9,5.5,5.8,5.6H85c4.8,0,6.1-4.3,6.4-5.6l-4.8-2.6L79.1,4.8z"/>
		<path class="st17" d="M91.7,4.7c0,0,1.5,5.9,6.1,5.9c4.6,0.1,6.3-3.7,6.8-5.9L99.5,2L91.7,4.7z"/>
		<path class="st13" d="M97.9,10.8c-0.1,0-0.1,0-0.2,0c-4.7-0.1-6.3-6-6.3-6.1l-0.1-0.2l8.1-2.8l5.3,2.8v0.2
			C104.2,7.7,102.1,10.8,97.9,10.8z M92,4.8c0.3,1,1.9,5.5,5.8,5.6h0.1c4.8,0,6.1-4.3,6.4-5.6l-4.8-2.6L92,4.8z"/>
		<path class="st17" d="M104.6,4.7c0,0,1.5,5.9,6.1,5.9c4.6,0.1,6.3-3.7,6.8-5.9L112.4,2L104.6,4.7z"/>
		<path class="st13" d="M110.8,10.8c-0.1,0-0.1,0-0.2,0c-4.7-0.1-6.3-6-6.3-6.1l-0.1-0.2l8.1-2.8l5.3,2.8v0.2
			C117.1,7.7,114.9,10.8,110.8,10.8z M104.8,4.8c0.3,1,1.9,5.5,5.8,5.6h0.1c4.8,0,6.1-4.3,6.4-5.6l-4.8-2.6L104.8,4.8z"/>
		<path class="st13" d="M123.7,10.8c-0.1,0-0.1,0-0.2,0c-4.7-0.1-6.3-6-6.3-6.1l-0.1-0.2l8.1-2.8l5.3,2.8v0.2
			C129.9,7.7,127.8,10.8,123.7,10.8z M117.7,4.8c0.3,1,1.9,5.5,5.8,5.6h0.1c4.8,0,6.1-4.3,6.4-5.6l-4.8-2.6L117.7,4.8z"/>
		<path class="st17" d="M46.6,0.4c0,0,1.5,5.9,6.1,5.9c4.6,0.1,6.3-3.7,6.8-5.9l-5.1-2.7L46.6,0.4z"/>
		<path class="st13" d="M52.9,6.5c-0.1,0-0.1,0-0.2,0c-4.7-0.1-6.3-6-6.3-6.1l-0.1-0.2l8.1-2.8l5.3,2.8v0.2
			C59.1,3.4,57,6.5,52.9,6.5z M46.9,0.5c0.3,1,1.9,5.5,5.8,5.6h0.1c4.8,0,6.1-4.3,6.4-5.6l-4.8-2.6L46.9,0.5z"/>
		<path class="st17" d="M59.5,0.4c0,0,1.5,5.9,6.1,5.9c4.6,0.1,6.3-3.7,6.8-5.9l-5.1-2.7L59.5,0.4z"/>
		<path class="st13" d="M65.7,6.5c-0.1,0-0.1,0-0.2,0c-4.7-0.1-6.3-6-6.3-6.1l-0.1-0.2l8.1-2.8l5.3,2.8v0.2
			C72,3.4,69.9,6.5,65.7,6.5z M59.8,0.5c0.3,1,1.9,5.5,5.8,5.6h0.1c4.8,0,6.1-4.3,6.4-5.6l-4.8-2.6L59.8,0.5z"/>
		<path class="st17" d="M72.4,0.4c0,0,1.5,5.9,6.1,5.9c4.6,0.1,6.3-3.7,6.8-5.9l-5.1-2.7L72.4,0.4z"/>
		<path class="st13" d="M78.6,6.5c-0.1,0-0.1,0-0.2,0c-4.7-0.1-6.3-6-6.3-6.1L72,0.2l8.1-2.8l5.3,2.8v0.2
			C84.9,3.4,82.8,6.5,78.6,6.5z M72.7,0.5c0.3,1,1.9,5.5,5.8,5.6h0.1c4.8,0,6.1-4.3,6.4-5.6l-4.8-2.6L72.7,0.5z"/>
		<path class="st17" d="M85.3,0.4c0,0,1.5,5.9,6.1,5.9c4.6,0.1,6.3-3.7,6.8-5.9l-5.1-2.7L85.3,0.4z"/>
		<path class="st13" d="M91.5,6.5c-0.1,0-0.1,0-0.2,0c-4.7-0.1-6.3-6-6.3-6.1l-0.1-0.2L93-2.6l5.3,2.8v0.2
			C97.8,3.4,95.6,6.5,91.5,6.5z M85.5,0.5c0.3,1,1.9,5.5,5.8,5.6h0.1c4.8,0,6.1-4.3,6.4-5.6L93-2.1L85.5,0.5z"/>
		<path class="st17" d="M98.1,0.4c0,0,1.5,5.9,6.1,5.9c4.6,0.1,6.3-3.7,6.8-5.9l-5.1-2.7L98.1,0.4z"/>
		<path class="st13" d="M104.4,6.5c-0.1,0-0.1,0-0.2,0c-4.7-0.1-6.3-6-6.3-6.1l-0.1-0.2l8.1-2.8l5.3,2.8v0.2
			C110.6,3.4,108.5,6.5,104.4,6.5z M98.4,0.5c0.3,1,1.9,5.5,5.8,5.6h0.1c4.8,0,6.1-4.3,6.4-5.6l-4.8-2.6L98.4,0.5z"/>
		<path class="st17" d="M111,0.4c0,0,1.5,5.9,6.1,5.9c4.6,0.1,6.3-3.7,6.8-5.9l-5.1-2.7L111,0.4z"/>
		<path class="st13" d="M117.2,6.5c-0.1,0-0.1,0-0.2,0c-4.7-0.1-6.3-6-6.3-6.1l-0.1-0.2l8.1-2.8l5.3,2.8v0.2
			C123.5,3.4,121.4,6.5,117.2,6.5z M111.3,0.5c0.3,1,1.9,5.5,5.8,5.6h0.1c4.8,0,6.1-4.3,6.4-5.6l-4.8-2.6L111.3,0.5z"/>
		<path class="st17" d="M40.2-3.9c0,0,1.5,5.9,6.1,5.9c4.6,0.1,6.3-3.7,6.8-5.9L48-6.6L40.2-3.9z"/>
		<path class="st13" d="M46.4,2.2c-0.1,0-0.1,0-0.2,0c-4.7-0.1-6.3-6-6.3-6.1l-0.1-0.2l8.1-2.8l5.3,2.8v0.2
			C52.7-0.9,50.6,2.2,46.4,2.2z M40.5-3.8c0.3,1,1.9,5.5,5.8,5.6h0.1c4.8,0,6.1-4.3,6.4-5.6L48-6.4L40.5-3.8z"/>
		<path class="st17" d="M53.1-3.9c0,0,1.5,5.9,6.1,5.9c4.6,0.1,6.3-3.7,6.8-5.9l-5.1-2.7L53.1-3.9z"/>
		<path class="st13" d="M59.3,2.2c-0.1,0-0.1,0-0.2,0c-4.7-0.1-6.3-6-6.3-6.1l-0.1-0.2l8.1-2.8l5.3,2.8v0.2
			C65.6-0.9,63.5,2.2,59.3,2.2z M53.4-3.8c0.3,1,1.9,5.5,5.8,5.6h0.1c4.8,0,6.1-4.3,6.4-5.6l-4.8-2.6L53.4-3.8z"/>
		<path class="st17" d="M66-3.9c0,0,1.5,5.9,6.1,5.9c4.6,0.1,6.3-3.7,6.8-5.9l-5.1-2.7L66-3.9z"/>
		<path class="st13" d="M72.2,2.2c-0.1,0-0.1,0-0.2,0c-4.7-0.1-6.3-6-6.3-6.1l-0.1-0.2l8.1-2.8L79-4.1v0.2
			C78.4-0.9,76.3,2.2,72.2,2.2z M66.2-3.8c0.3,1,1.9,5.5,5.8,5.6h0.1c4.8,0,6.1-4.3,6.4-5.6l-4.8-2.6L66.2-3.8z"/>
		<path class="st17" d="M78.8-3.9c0,0,1.5,5.9,6.1,5.9c4.6,0.1,6.3-3.7,6.8-5.9l-5.1-2.7L78.8-3.9z"/>
		<path class="st13" d="M85.1,2.2c-0.1,0-0.1,0-0.2,0c-4.7-0.1-6.3-6-6.3-6.1l-0.1-0.2l8.1-2.8l5.3,2.8v0.2
			C91.3-0.9,89.2,2.2,85.1,2.2z M79.1-3.8c0.3,1,1.9,5.5,5.8,5.6H85c4.8,0,6.1-4.3,6.4-5.6l-4.8-2.6L79.1-3.8z"/>
		<path class="st17" d="M91.7-3.9c0,0,1.5,5.9,6.1,5.9c4.6,0.1,6.3-3.7,6.8-5.9l-5.1-2.7L91.7-3.9z"/>
		<path class="st13" d="M97.9,2.2c-0.1,0-0.1,0-0.2,0c-4.7-0.1-6.3-6-6.3-6.1l-0.1-0.2l8.1-2.8l5.3,2.8v0.2
			C104.2-0.9,102.1,2.2,97.9,2.2z M92-3.8c0.3,1,1.9,5.5,5.8,5.6h0.1c4.8,0,6.1-4.3,6.4-5.6l-4.8-2.6L92-3.8z"/>
		<path class="st17" d="M104.6-3.9c0,0,1.5,5.9,6.1,5.9c4.6,0.1,6.3-3.7,6.8-5.9l-5.1-2.7L104.6-3.9z"/>
		<path class="st13" d="M110.8,2.2c-0.1,0-0.1,0-0.2,0c-4.7-0.1-6.3-6-6.3-6.1l-0.1-0.2l8.1-2.8l5.3,2.8v0.2
			C117.1-0.9,114.9,2.2,110.8,2.2z M104.8-3.8c0.3,1,1.9,5.5,5.8,5.6h0.1c4.8,0,6.1-4.3,6.4-5.6l-4.8-2.6L104.8-3.8z"/>
		<path class="st13" d="M123.7,2.2c-0.1,0-0.1,0-0.2,0c-4.7-0.1-6.3-6-6.3-6.1l-0.1-0.2l8.1-2.8l5.3,2.8v0.2
			C129.9-0.9,127.8,2.2,123.7,2.2z M117.7-3.8c0.3,1,1.9,5.5,5.8,5.6c4.9,0.1,6.3-4.3,6.5-5.6l-4.8-2.6L117.7-3.8z"/>
	</g>
</g>
<path class="st18" d="M115.2,103.6c-0.1,13.5-0.4,27-1.2,40.4c1.1,0.1,2.3-0.2,3.3-0.9c-2.2-14.9-1.9-30.2,0.8-45"/>
<path class="st18" d="M115.2,103.6c-1.1,6.3-0.3,12.9-0.6,19.3c-0.3,7.1-0.7,14.1-1.1,21.2c0,0.3,0.3,0.6,0.6,0.6
	c1.4,0,2.3-0.3,3.6-1c0.2-0.1,0.3-0.3,0.3-0.5c-0.8-7.5-1.2-15-1.1-22.6c0.1-3.8,0.3-7.5,0.6-11.3c0.4-3.7,1.4-7.5,1.1-11.2
	c0-0.5-0.7-0.8-1-0.3c-2.5,5.5-2.4,13-2.7,19c-0.3,7-0.2,14,0.8,20.9c0.1,0.6,1.1,6.2-1.1,4.4c-0.5-0.4,0.2-5.2,0.2-5.8
	c0.1-3.9,0.2-7.7,0.2-11.6C115.3,117.9,116.4,110.5,115.2,103.6z"/>
<path class="st18" d="M115.9,116.7c2.8-2.6,4.9-6,6-9.7c0.1-0.2,0.2-0.5,0.4-0.6c0.3-0.2,0.8,0.1,0.9,0.4c0.1,0.4,0,0.8-0.1,1.2
	c-1.2,4.1-3.5,8-6.7,10.9"/>
<path class="st18" d="M110.3,103.6c-0.4,4.7,1.6,9,5.3,11.9c0.6,0.5,1.6-0.4,0.9-0.9c-3.3-2.7-5.2-6.8-5.4-11
	C111.1,103.1,110.3,103.1,110.3,103.6z"/>
<path class="st19" d="M98.2,104.7c1.1,8,12,13.4,16.4,5.5c0.4,0.2,0.9,0.4,1.3,0.6c1.7,0.7,3.4,1.3,5.2,1.4c2.5,0.3,5.1,0,7.4-1.1
	c4.1-1.9,6.5-5.6,6.8-9.8c3-0.4,5.4-3,4.9-6.6c-0.2-1.4-0.7-2.5-1.5-3.3c1.7-3.8-0.8-8.5-5.8-8.8c0-9-11.3-11.7-15.5-4.3
	c-2.9-2.8-6.9-4-10.8-1.9c-2.4,1.2-4.1,3.3-4.6,6c-0.2,1.3,0.2,2.5,0.2,3.8c-0.2,0-0.3-0.1-0.5-0.1C90.9,85.2,88.2,102.9,98.2,104.7
	z"/>
<path class="st20" d="M5.5,144h108.1l4.4,4H0L5.5,144z"/>
</svg>
