<?xml version="1.0" encoding="utf-8"?>
<!-- Generator: Adobe Illustrator 22.1.0, SVG Export Plug-In . SVG Version: 6.00 Build 0)  -->
<svg version="1.1" id="Warstwa_1" xmlns="http://www.w3.org/2000/svg" xmlns:xlink="http://www.w3.org/1999/xlink" x="0px" y="0px"
	 viewBox="0 0 131 170" style="enable-background:new 0 0 131 170;" xml:space="preserve">
<style type="text/css">
	.st0{fill:#497C54;}
	.st1{fill:#F5CB3B;}
	.st2{opacity:0.15;fill:#4A4B4D;enable-background:new    ;}
	.st3{fill:#707676;}
	.st4{clip-path:url(#SVGID_2_);}
	.st5{fill:#505656;}
	.st6{fill:#5D6162;}
	.st7{fill:#E3E8E4;}
	.st8{fill:#85674D;}
	.st9{fill:#A68B6D;}
	.st10{fill:#E0B232;}
	.st11{fill:#5CA09F;}
	.st12{fill:#5A6A8C;}
	.st13{fill:#C4AA90;}
	.st14{opacity:0.2;fill:#1C1C1C;enable-background:new    ;}
</style>
<path class="st0" d="M112.2,164.9c2.4-0.5,4.3-2.8,4.5-5.2c0-0.4,0-0.9-0.2-1.3c-0.4-0.8-1.4-1.2-2.3-1.2c-0.9,0.1-1.8,0.5-2.6,0.9
	c2-2.6,3.5-6,2.1-9c-0.4-0.8-1-1.6-1.9-1.6c-0.9,0-1.6,0.8-2.1,1.6c-1.3,1.9-2.3,4-3.3,6.1c-0.3-2.2-1-4.7-3-5.8
	c-0.3-0.2-0.6-0.3-0.9-0.3s-0.6,0.2-0.8,0.5c-1.7,1.6-1.5,4.3-1.2,6.6c-0.5-1.5-2.6-2.1-4-1.4c-1.5,0.7-2.3,2.3-2.6,3.9
	c-0.3,1.3-0.2,2.6,0.4,3.8c0.6,1.1,1.9,2.6,3.2,2.5"/>
<path class="st1" d="M16.1,27.2L56.2,3.8l40.2,23.4v138.7H16.1V27.2z"/>
<path class="st2" d="M16.1,27.7v3.9L56.2,9.3l40.2,21.2v-3.3L56.2,6.5L16.1,27.7z"/>
<path class="st3" d="M13.8,30.5l42.4-24l42.1,22.7l2-4.8L56.1,0L11.5,26.6L13.8,30.5z"/>
<g>
	<defs>
		<path id="SVGID_1_" d="M15.8,101.1h80.3l13.4,18.3H3L15.8,101.1z"/>
	</defs>
	<clipPath id="SVGID_2_">
		<use xlink:href="#SVGID_1_"  style="overflow:visible;"/>
	</clipPath>
	<g class="st4">
		<path class="st3" d="M2.3,121.4c0,0,1.5,5.8,6.1,5.9c4.6,0.1,6.3-3.7,6.8-5.9l-5-2.7L2.3,121.4z"/>
		<path class="st5" d="M8.5,127.6c-0.1,0-0.1,0-0.2,0c-4.7-0.1-6.3-6.1-6.3-6.1l-0.1-0.2l8.1-2.8l5.3,2.8v0.2
			C14.8,124.4,12.7,127.6,8.5,127.6z M2.7,121.6c0.3,1.1,1.9,5.4,5.7,5.5c4.8,0.1,6.1-4.2,6.4-5.5l-4.7-2.5L2.7,121.6z"/>
		<path class="st3" d="M15.2,121.4c0,0,1.5,5.8,6.1,5.9c4.6,0.1,6.3-3.7,6.8-5.9l-5-2.7L15.2,121.4z"/>
		<path class="st5" d="M21.4,127.6c-0.1,0-0.1,0-0.2,0c-4.7-0.1-6.3-6.1-6.3-6.1l-0.1-0.2l8.1-2.8l5.3,2.8v0.2
			C27.7,124.4,25.5,127.6,21.4,127.6z M15.5,121.6c0.3,1.1,1.9,5.4,5.7,5.5h0.1c4.7,0,6-4.2,6.3-5.5l-4.7-2.5L15.5,121.6z"/>
		<path class="st3" d="M28,121.4c0,0,1.5,5.8,6.1,5.9c4.6,0.1,6.3-3.7,6.8-5.9l-5-2.7L28,121.4z"/>
		<path class="st5" d="M34.2,127.6c-0.1,0-0.1,0-0.2,0c-4.7-0.1-6.3-6.1-6.3-6.1l-0.1-0.2l8.1-2.8l5.3,2.8v0.2
			C40.5,124.4,38.4,127.6,34.2,127.6z M28.3,121.6c0.3,1.1,1.9,5.4,5.7,5.5c4.8,0.1,6.1-4.2,6.4-5.5l-4.7-2.5L28.3,121.6z"/>
		<path class="st3" d="M40.8,121.4c0,0,1.5,5.8,6.1,5.9c4.6,0.1,6.3-3.7,6.8-5.9l-5-2.7L40.8,121.4z"/>
		<path class="st5" d="M47,127.6c-0.1,0-0.1,0-0.2,0c-4.7-0.1-6.3-6.1-6.3-6.1l-0.1-0.2l8.1-2.8l5.3,2.8v0.2
			C53.3,124.4,51.2,127.6,47,127.6z M41.2,121.6c0.3,1.1,1.9,5.4,5.7,5.5H47c4.7,0,6-4.2,6.3-5.5l-4.7-2.5L41.2,121.6z"/>
		<path class="st3" d="M53.6,121.4c0,0,1.5,5.8,6.1,5.9c4.6,0.1,6.3-3.7,6.8-5.9l-5-2.7L53.6,121.4z"/>
		<path class="st5" d="M59.8,127.6c-0.1,0-0.1,0-0.2,0c-4.7-0.1-6.3-6.1-6.3-6.1l-0.1-0.2l8.1-2.8l5.3,2.8v0.2
			C66.1,124.4,64,127.6,59.8,127.6z M54,121.6c0.3,1.1,1.9,5.4,5.7,5.5h0.1c4.7,0,6-4.2,6.3-5.5l-4.7-2.5L54,121.6z"/>
		<path class="st3" d="M66.5,121.4c0,0,1.5,5.8,6.1,5.9c4.6,0.1,6.3-3.7,6.8-5.9l-5-2.7L66.5,121.4z"/>
		<path class="st5" d="M72.7,127.6c-0.1,0-0.1,0-0.2,0c-4.7-0.1-6.3-6.1-6.3-6.1l-0.1-0.2l8.1-2.8l5.3,2.8v0.2
			C79,124.4,76.8,127.6,72.7,127.6z M66.8,121.6c0.3,1.1,1.9,5.4,5.7,5.5c4.8,0.1,6.1-4.2,6.4-5.5l-4.7-2.5L66.8,121.6z"/>
		<path class="st3" d="M79.3,121.4c0,0,1.5,5.8,6.1,5.9c4.6,0.1,6.3-3.7,6.8-5.9l-5-2.7L79.3,121.4z"/>
		<path class="st5" d="M85.5,127.6c-0.1,0-0.1,0-0.2,0c-4.7-0.1-6.3-6.1-6.3-6.1l-0.1-0.2l8.1-2.8l5.3,2.8v0.2
			C91.8,124.4,89.7,127.6,85.5,127.6z M79.6,121.6c0.3,1.1,1.9,5.4,5.7,5.5c4.8,0.1,6.1-4.2,6.4-5.5l-4.7-2.5L79.6,121.6z"/>
		<path class="st3" d="M92.1,121.4c0,0,1.5,5.8,6.1,5.9c4.6,0.1,6.3-3.7,6.8-5.9l-5-2.7L92.1,121.4z"/>
		<path class="st5" d="M98.3,127.6c-0.1,0-0.1,0-0.2,0c-4.7-0.1-6.3-6.1-6.3-6.1l-0.1-0.2l8.1-2.8l5.3,2.8v0.2
			C104.6,124.4,102.5,127.6,98.3,127.6z M92.5,121.6c0.3,1.1,1.9,5.4,5.7,5.5h0.1c4.7,0,6-4.2,6.3-5.5l-4.7-2.5L92.5,121.6z"/>
		<path class="st3" d="M8.7,117.1c0,0,1.5,5.8,6.1,5.9s6.3-3.7,6.8-5.9l-5-2.7L8.7,117.1z"/>
		<path class="st3" d="M1,117.1c0,0,1.5,5.8,6.1,5.9c4.6,0.1,6.3-3.7,6.8-5.9l-5-2.7L1,117.1z"/>
		<path class="st5" d="M15,123.3c-0.1,0-0.1,0-0.2,0c-4.7-0.1-6.3-6.1-6.3-6.1L8.4,117l8.1-2.8l5.3,2.8v0.2
			C21.2,120.2,19.1,123.3,15,123.3z M9.1,117.3c0.3,1.1,1.9,5.4,5.7,5.5c4.8,0.1,6.1-4.2,6.4-5.5l-4.7-2.5L9.1,117.3z"/>
		<path class="st3" d="M21.6,117.1c0,0,1.5,5.8,6.1,5.9s6.3-3.7,6.8-5.9l-5-2.7L21.6,117.1z"/>
		<path class="st5" d="M27.8,123.3c-0.1,0-0.1,0-0.2,0c-4.7-0.1-6.3-6.1-6.3-6.1l-0.1-0.2l8.1-2.8l5.3,2.8v0.2
			C34.1,120.2,31.9,123.3,27.8,123.3z M21.9,117.3c0.3,1.1,1.9,5.4,5.7,5.5h0.1c4.7,0,6-4.2,6.3-5.5l-4.7-2.5L21.9,117.3z"/>
		<path class="st3" d="M34.4,117.1c0,0,1.5,5.8,6.1,5.9s6.3-3.7,6.8-5.9l-5-2.7L34.4,117.1z"/>
		<path class="st5" d="M40.6,123.3c-0.1,0-0.1,0-0.2,0c-4.7-0.1-6.3-6.1-6.3-6.1L34,117l8.1-2.8l5.3,2.8v0.2
			C46.9,120.2,44.8,123.3,40.6,123.3z M34.7,117.3c0.3,1.1,1.9,5.4,5.7,5.5h0.1c4.7,0,6-4.2,6.3-5.5l-4.7-2.5L34.7,117.3z"/>
		<path class="st3" d="M47.2,117.1c0,0,1.5,5.8,6.1,5.9s6.3-3.7,6.8-5.9l-5-2.7L47.2,117.1z"/>
		<path class="st5" d="M53.4,123.3c-0.1,0-0.1,0-0.2,0c-4.7-0.1-6.3-6.1-6.3-6.1l-0.1-0.2l8.1-2.8l5.3,2.8v0.2
			C59.7,120.2,57.6,123.3,53.4,123.3z M47.6,117.3c0.3,1.1,1.9,5.4,5.7,5.5c4.8,0.1,6.1-4.2,6.4-5.5l-4.7-2.5L47.6,117.3z"/>
		<path class="st3" d="M60.1,117.1c0,0,1.5,5.8,6.1,5.9c4.6,0.1,6.3-3.7,6.8-5.9l-5-2.7L60.1,117.1z"/>
		<path class="st5" d="M66.3,123.3c-0.1,0-0.1,0-0.2,0c-4.7-0.1-6.3-6.1-6.3-6.1l-0.1-0.2l8.1-2.8l5.3,2.8v0.2
			C72.5,120.2,70.4,123.3,66.3,123.3z M60.4,117.3c0.3,1.1,1.9,5.4,5.7,5.5h0.1c4.7,0,6-4.2,6.3-5.5l-4.7-2.5L60.4,117.3z"/>
		<path class="st3" d="M72.9,117.1c0,0,1.5,5.8,6.1,5.9s6.3-3.7,6.8-5.9l-5-2.7L72.9,117.1z"/>
		<path class="st5" d="M79.1,123.3c-0.1,0-0.1,0-0.2,0c-4.7-0.1-6.3-6.1-6.3-6.1l-0.1-0.2l8.1-2.8l5.3,2.8v0.2
			C85.4,120.2,83.2,123.3,79.1,123.3z M73.2,117.3c0.3,1.1,1.9,5.4,5.7,5.5c4.8,0.1,6.1-4.2,6.4-5.5l-4.7-2.5L73.2,117.3z"/>
		<path class="st3" d="M85.7,117.1c0,0,1.5,5.8,6.1,5.9c4.6,0.1,6.3-3.7,6.8-5.9l-5-2.7L85.7,117.1z"/>
		<path class="st5" d="M91.9,123.3c-0.1,0-0.1,0-0.2,0c-4.7-0.1-6.3-6.1-6.3-6.1l-0.1-0.2l8.1-2.8l5.3,2.8v0.2
			C98.2,120.2,96.1,123.3,91.9,123.3z M86,117.3c0.3,1.1,1.9,5.4,5.7,5.5c4.7,0.1,6.1-4.2,6.4-5.5l-4.7-2.5L86,117.3z"/>
		<path class="st3" d="M98.5,117.1c0,0,1.5,5.8,6.1,5.9s6.3-3.7,6.8-5.9l-5-2.7L98.5,117.1z"/>
		<path class="st5" d="M104.7,123.3c-0.1,0-0.1,0-0.2,0c-4.7-0.1-6.3-6.1-6.3-6.1l-0.1-0.2l8.1-2.8l5.3,2.8v0.2
			C111,120.2,108.9,123.3,104.7,123.3z M98.9,117.3c0.3,1.1,1.9,5.4,5.7,5.5h0.1c4.7,0,6-4.2,6.3-5.5l-4.7-2.5L98.9,117.3z"/>
		<path class="st3" d="M2.3,112.8c0,0,1.5,5.8,6.1,5.9c4.6,0.1,6.3-3.7,6.8-5.9l-5-2.7L2.3,112.8z"/>
		<path class="st5" d="M8.5,119c-0.1,0-0.1,0-0.2,0c-4.7-0.1-6.3-6.1-6.3-6.1l-0.1-0.2l8.1-2.8l5.3,2.8v0.2
			C14.8,115.9,12.7,119,8.5,119z M2.7,113c0.3,1.1,1.9,5.4,5.7,5.5c4.8,0.1,6.1-4.2,6.4-5.5l-4.7-2.5L2.7,113z"/>
		<path class="st3" d="M15.2,112.8c0,0,1.5,5.8,6.1,5.9c4.6,0.1,6.3-3.7,6.8-5.9l-5-2.7L15.2,112.8z"/>
		<path class="st5" d="M21.4,119c-0.1,0-0.1,0-0.2,0c-4.7-0.1-6.3-6.1-6.3-6.1l-0.1-0.2l8.1-2.8l5.3,2.8v0.2
			C27.7,115.9,25.5,119,21.4,119z M15.5,113c0.3,1.1,1.9,5.4,5.7,5.5h0.1c4.7,0,6-4.2,6.3-5.5l-4.7-2.5L15.5,113z"/>
		<path class="st3" d="M28,112.8c0,0,1.5,5.8,6.1,5.9c4.6,0.1,6.3-3.7,6.8-5.9l-5-2.7L28,112.8z"/>
		<path class="st5" d="M34.2,119c-0.1,0-0.1,0-0.2,0c-4.7-0.1-6.3-6.1-6.3-6.1l-0.1-0.2l8.1-2.8l5.3,2.8v0.2
			C40.5,115.9,38.4,119,34.2,119z M28.3,113c0.3,1.1,1.9,5.4,5.7,5.5c4.8,0.1,6.1-4.2,6.4-5.5l-4.7-2.5L28.3,113z"/>
		<path class="st3" d="M40.8,112.8c0,0,1.5,5.8,6.1,5.9c4.6,0.1,6.3-3.7,6.8-5.9l-5-2.7L40.8,112.8z"/>
		<path class="st5" d="M47,119c-0.1,0-0.1,0-0.2,0c-4.7-0.1-6.3-6.1-6.3-6.1l-0.1-0.2l8.1-2.8l5.3,2.8v0.2
			C53.3,115.9,51.2,119,47,119z M41.2,113c0.3,1.1,1.9,5.4,5.7,5.5H47c4.7,0,6-4.2,6.3-5.5l-4.7-2.5L41.2,113z"/>
		<path class="st3" d="M53.6,112.8c0,0,1.5,5.8,6.1,5.9c4.6,0.1,6.3-3.7,6.8-5.9l-5-2.7L53.6,112.8z"/>
		<path class="st5" d="M59.8,119c-0.1,0-0.1,0-0.2,0c-4.7-0.1-6.3-6.1-6.3-6.1l-0.1-0.2l8.1-2.8l5.3,2.8v0.2
			C66.1,115.9,64,119,59.8,119z M54,113c0.3,1.1,1.9,5.4,5.7,5.5h0.1c4.7,0,6-4.2,6.3-5.5l-4.7-2.5L54,113z"/>
		<path class="st3" d="M66.5,112.8c0,0,1.5,5.8,6.1,5.9c4.6,0.1,6.3-3.7,6.8-5.9l-5-2.7L66.5,112.8z"/>
		<path class="st5" d="M72.7,119c-0.1,0-0.1,0-0.2,0c-4.7-0.1-6.3-6.1-6.3-6.1l-0.1-0.2l8.1-2.8l5.3,2.8v0.2
			C79,115.9,76.8,119,72.7,119z M66.8,113c0.3,1.1,1.9,5.4,5.7,5.5c4.8,0.1,6.1-4.2,6.4-5.5l-4.7-2.5L66.8,113z"/>
		<path class="st3" d="M79.3,112.8c0,0,1.5,5.8,6.1,5.9c4.6,0.1,6.3-3.7,6.8-5.9l-5-2.7L79.3,112.8z"/>
		<path class="st5" d="M85.5,119c-0.1,0-0.1,0-0.2,0c-4.7-0.1-6.3-6.1-6.3-6.1l-0.1-0.2l8.1-2.8l5.3,2.8v0.2
			C91.8,115.9,89.7,119,85.5,119z M79.6,113c0.3,1.1,1.9,5.4,5.7,5.5c4.8,0.1,6.1-4.2,6.4-5.5l-4.7-2.5L79.6,113z"/>
		<path class="st3" d="M92.1,112.8c0,0,1.5,5.8,6.1,5.9c4.6,0.1,6.3-3.7,6.8-5.9l-5-2.7L92.1,112.8z"/>
		<path class="st5" d="M98.3,119c-0.1,0-0.1,0-0.2,0c-4.7-0.1-6.3-6.1-6.3-6.1l-0.1-0.2l8.1-2.8l5.3,2.8v0.2
			C104.6,115.9,102.5,119,98.3,119z M92.5,113c0.3,1.1,1.9,5.4,5.7,5.5c4.7,0.1,6.1-4.2,6.4-5.5l-4.7-2.5L92.5,113z"/>
		<path class="st3" d="M8.7,108.5c0,0,1.5,5.8,6.1,5.9s6.3-3.7,6.8-5.9l-5-2.7L8.7,108.5z"/>
		<path class="st5" d="M15,114.7c-0.1,0-0.1,0-0.2,0c-4.7-0.1-6.3-6.1-6.3-6.1l-0.1-0.2l8.1-2.8l5.3,2.8v0.2
			C21.2,111.6,19.1,114.7,15,114.7z M9.1,108.7c0.3,1.1,1.9,5.4,5.7,5.5h0.1c4.7,0,6-4.2,6.3-5.5l-4.7-2.5L9.1,108.7z"/>
		<path class="st3" d="M21.6,108.5c0,0,1.5,5.8,6.1,5.9s6.3-3.7,6.8-5.9l-5-2.7L21.6,108.5z"/>
		<path class="st5" d="M27.8,114.7c-0.1,0-0.1,0-0.2,0c-4.7-0.1-6.3-6.1-6.3-6.1l-0.1-0.2l8.1-2.8l5.3,2.8v0.2
			C34.1,111.6,31.9,114.7,27.8,114.7z M21.9,108.7c0.3,1.1,1.9,5.4,5.7,5.5h0.1c4.7,0,6-4.2,6.3-5.5l-4.7-2.5L21.9,108.7z"/>
		<path class="st3" d="M34.4,108.5c0,0,1.5,5.8,6.1,5.9s6.3-3.7,6.8-5.9l-5-2.7L34.4,108.5z"/>
		<path class="st5" d="M40.6,114.7c-0.1,0-0.1,0-0.2,0c-4.7-0.1-6.3-6.1-6.3-6.1l-0.1-0.2l8.1-2.8l5.3,2.8v0.2
			C46.9,111.6,44.8,114.7,40.6,114.7z M34.7,108.7c0.3,1.1,1.9,5.4,5.7,5.5h0.1c4.7,0,6-4.2,6.3-5.5l-4.7-2.5L34.7,108.7z"/>
		<path class="st3" d="M47.2,108.5c0,0,1.5,5.8,6.1,5.9s6.3-3.7,6.8-5.9l-5-2.7L47.2,108.5z"/>
		<path class="st5" d="M53.4,114.7c-0.1,0-0.1,0-0.2,0c-4.7-0.1-6.3-6.1-6.3-6.1l-0.1-0.2l8.1-2.8l5.3,2.8v0.2
			C59.7,111.6,57.6,114.7,53.4,114.7z M47.6,108.7c0.3,1.1,1.9,5.4,5.7,5.5h0.1c4.7,0,6-4.2,6.3-5.5l-4.7-2.5L47.6,108.7z"/>
		<path class="st3" d="M60.1,108.5c0,0,1.5,5.8,6.1,5.9c4.6,0.1,6.3-3.7,6.8-5.9l-5-2.7L60.1,108.5z"/>
		<path class="st5" d="M66.3,114.7c-0.1,0-0.1,0-0.2,0c-4.7-0.1-6.3-6.1-6.3-6.1l-0.1-0.2l8.1-2.8l5.3,2.8v0.2
			C72.5,111.6,70.4,114.7,66.3,114.7z M60.4,108.7c0.3,1.1,1.9,5.4,5.7,5.5h0.1c4.7,0,6-4.2,6.3-5.5l-4.7-2.5L60.4,108.7z"/>
		<path class="st3" d="M72.9,108.5c0,0,1.5,5.8,6.1,5.9s6.3-3.7,6.8-5.9l-5-2.7L72.9,108.5z"/>
		<path class="st5" d="M79.1,114.7c-0.1,0-0.1,0-0.2,0c-4.7-0.1-6.3-6.1-6.3-6.1l-0.1-0.2l8.1-2.8l5.3,2.8v0.2
			C85.4,111.6,83.2,114.7,79.1,114.7z M73.2,108.7c0.3,1.1,1.9,5.4,5.7,5.5H79c4.7,0,6-4.2,6.3-5.5l-4.7-2.5L73.2,108.7z"/>
		<path class="st3" d="M85.7,108.5c0,0,1.5,5.8,6.1,5.9c4.6,0.1,6.3-3.7,6.8-5.9l-5-2.7L85.7,108.5z"/>
		<path class="st5" d="M91.9,114.7c-0.1,0-0.1,0-0.2,0c-4.7-0.1-6.3-6.1-6.3-6.1l-0.1-0.2l8.1-2.8l5.3,2.8v0.2
			C98.2,111.6,96.1,114.7,91.9,114.7z M86,108.7c0.3,1.1,1.9,5.4,5.7,5.5h0.1c4.7,0,6-4.2,6.3-5.5l-4.7-2.5L86,108.7z"/>
		<path class="st3" d="M98.5,108.5c0,0,1.5,5.8,6.1,5.9s6.3-3.7,6.8-5.9l-5-2.7L98.5,108.5z"/>
		<path class="st5" d="M104.7,114.7c-0.1,0-0.1,0-0.2,0c-4.7-0.1-6.3-6.1-6.3-6.1l-0.1-0.2l8.1-2.8l5.3,2.8v0.2
			C111,111.6,108.9,114.7,104.7,114.7z M98.9,108.7c0.3,1.1,1.9,5.4,5.7,5.5h0.1c4.7,0,6-4.2,6.3-5.5l-4.7-2.5L98.9,108.7z"/>
		<path class="st3" d="M2.3,104.3c0,0,1.5,5.8,6.1,5.9c4.6,0.1,6.3-3.7,6.8-5.9l-5-2.7L2.3,104.3z"/>
		<path class="st5" d="M8.5,110.5c-0.1,0-0.1,0-0.2,0c-4.7-0.1-6.3-6.1-6.3-6.1l-0.1-0.2l8.1-2.8l5.3,2.8v0.2
			C14.8,107.3,12.7,110.5,8.5,110.5z M2.7,104.4c0.3,1.1,1.9,5.4,5.7,5.5h0.1c4.7,0,6-4.2,6.3-5.5l-4.7-2.5L2.7,104.4z"/>
		<path class="st3" d="M15.2,104.3c0,0,1.5,5.8,6.1,5.9c4.6,0.1,6.3-3.7,6.8-5.9l-5-2.7L15.2,104.3z"/>
		<path class="st5" d="M21.4,110.5c-0.1,0-0.1,0-0.2,0c-4.7-0.1-6.3-6.1-6.3-6.1l-0.1-0.2l8.1-2.8l5.3,2.8v0.2
			C27.7,107.3,25.5,110.5,21.4,110.5z M15.5,104.4c0.3,1.1,1.9,5.4,5.7,5.5h0.1c4.7,0,6-4.2,6.3-5.5l-4.7-2.5L15.5,104.4z"/>
		<path class="st3" d="M28,104.3c0,0,1.5,5.8,6.1,5.9c4.6,0.1,6.3-3.7,6.8-5.9l-5-2.7L28,104.3z"/>
		<path class="st5" d="M34.2,110.5c-0.1,0-0.1,0-0.2,0c-4.7-0.1-6.3-6.1-6.3-6.1l-0.1-0.2l8.1-2.8l5.3,2.8v0.2
			C40.5,107.3,38.4,110.5,34.2,110.5z M28.3,104.4c0.3,1.1,1.9,5.4,5.7,5.5h0.1c4.7,0,6-4.2,6.3-5.5l-4.7-2.5L28.3,104.4z"/>
		<path class="st3" d="M40.8,104.3c0,0,1.5,5.8,6.1,5.9c4.6,0.1,6.3-3.7,6.8-5.9l-5-2.7L40.8,104.3z"/>
		<path class="st5" d="M47,110.5c-0.1,0-0.1,0-0.2,0c-4.7-0.1-6.3-6.1-6.3-6.1l-0.1-0.2l8.1-2.8l5.3,2.8v0.2
			C53.3,107.3,51.2,110.5,47,110.5z M41.2,104.4c0.3,1.1,1.9,5.4,5.7,5.5H47c4.7,0,6-4.2,6.3-5.5l-4.7-2.5L41.2,104.4z"/>
		<path class="st3" d="M53.6,104.3c0,0,1.5,5.8,6.1,5.9c4.6,0.1,6.3-3.7,6.8-5.9l-5-2.7L53.6,104.3z"/>
		<path class="st5" d="M59.8,110.5c-0.1,0-0.1,0-0.2,0c-4.7-0.1-6.3-6.1-6.3-6.1l-0.1-0.2l8.1-2.8l5.3,2.8v0.2
			C66.1,107.3,64,110.5,59.8,110.5z M54,104.4c0.3,1.1,1.9,5.4,5.7,5.5h0.1c4.7,0,6-4.2,6.3-5.5l-4.7-2.5L54,104.4z"/>
		<path class="st3" d="M66.5,104.3c0,0,1.5,5.8,6.1,5.9c4.6,0.1,6.3-3.7,6.8-5.9l-5-2.7L66.5,104.3z"/>
		<path class="st5" d="M72.7,110.5c-0.1,0-0.1,0-0.2,0c-4.7-0.1-6.3-6.1-6.3-6.1l-0.1-0.2l8.1-2.8l5.3,2.8v0.2
			C79,107.3,76.8,110.5,72.7,110.5z M66.8,104.4c0.3,1.1,1.9,5.4,5.7,5.5h0.1c4.7,0,6-4.2,6.3-5.5l-4.7-2.5L66.8,104.4z"/>
		<path class="st3" d="M79.3,104.3c0,0,1.5,5.8,6.1,5.9c4.6,0.1,6.3-3.7,6.8-5.9l-5-2.7L79.3,104.3z"/>
		<path class="st5" d="M85.5,110.5c-0.1,0-0.1,0-0.2,0c-4.7-0.1-6.3-6.1-6.3-6.1l-0.1-0.2l8.1-2.8l5.3,2.8v0.2
			C91.8,107.3,89.7,110.5,85.5,110.5z M79.6,104.4c0.3,1.1,1.9,5.4,5.7,5.5h0.1c4.7,0,6-4.2,6.3-5.5l-4.7-2.5L79.6,104.4z"/>
		<path class="st3" d="M92.1,104.3c0,0,1.5,5.8,6.1,5.9c4.6,0.1,6.3-3.7,6.8-5.9l-5-2.7L92.1,104.3z"/>
		<path class="st5" d="M98.3,110.5c-0.1,0-0.1,0-0.2,0c-4.7-0.1-6.3-6.1-6.3-6.1l-0.1-0.2l8.1-2.8l5.3,2.8v0.2
			C104.6,107.3,102.5,110.5,98.3,110.5z M92.5,104.4c0.3,1.1,1.9,5.4,5.7,5.5h0.1c4.7,0,6-4.2,6.3-5.5l-4.7-2.5L92.5,104.4z"/>
		<path class="st3" d="M8.7,100c0,0,1.5,5.8,6.1,5.9s6.3-3.7,6.8-5.9l-5-2.7L8.7,100z"/>
		<path class="st5" d="M15,106.2c-0.1,0-0.1,0-0.2,0c-4.7-0.1-6.3-6.1-6.3-6.1l-0.1-0.2l8.1-2.8l5.3,2.8v0.2
			C21.2,103,19.1,106.2,15,106.2z M9.1,100.2c0.3,1.1,1.9,5.4,5.7,5.5c4.8,0.1,6.1-4.2,6.4-5.5l-4.7-2.5L9.1,100.2z"/>
		<path class="st3" d="M21.6,100c0,0,1.5,5.8,6.1,5.9s6.3-3.7,6.8-5.9l-5-2.7L21.6,100z"/>
		<path class="st5" d="M27.8,106.2c-0.1,0-0.1,0-0.2,0c-4.7-0.1-6.3-6.1-6.3-6.1l-0.1-0.2l8.1-2.8l5.3,2.8v0.2
			C34.1,103,31.9,106.2,27.8,106.2z M21.9,100.2c0.3,1.1,1.9,5.4,5.7,5.5h0.1c4.7,0,6-4.2,6.3-5.5l-4.7-2.5L21.9,100.2z"/>
		<path class="st3" d="M34.4,100c0,0,1.5,5.8,6.1,5.9s6.3-3.7,6.8-5.9l-5-2.7L34.4,100z"/>
		<path class="st5" d="M40.6,106.2c-0.1,0-0.1,0-0.2,0c-4.7-0.1-6.3-6.1-6.3-6.1L34,99.9l8.1-2.8l5.3,2.8v0.2
			C46.9,103,44.8,106.2,40.6,106.2z M34.7,100.2c0.3,1.1,1.9,5.4,5.7,5.5c4.8,0.1,6.1-4.2,6.4-5.5l-4.7-2.5L34.7,100.2z"/>
		<path class="st3" d="M47.2,100c0,0,1.5,5.8,6.1,5.9s6.3-3.7,6.8-5.9l-5-2.7L47.2,100z"/>
		<path class="st5" d="M53.4,106.2c-0.1,0-0.1,0-0.2,0c-4.7-0.1-6.3-6.1-6.3-6.1l-0.1-0.2l8.1-2.8l5.3,2.8v0.2
			C59.7,103,57.6,106.2,53.4,106.2z M47.6,100.2c0.3,1.1,1.9,5.4,5.7,5.5c4.8,0.1,6.1-4.2,6.4-5.5L55,97.7L47.6,100.2z"/>
		<path class="st3" d="M60.1,100c0,0,1.5,5.8,6.1,5.9c4.6,0.1,6.3-3.7,6.8-5.9l-5-2.7L60.1,100z"/>
		<path class="st5" d="M66.3,106.2c-0.1,0-0.1,0-0.2,0c-4.7-0.1-6.3-6.1-6.3-6.1l-0.1-0.2l8.1-2.8l5.3,2.8v0.2
			C72.5,103,70.4,106.2,66.3,106.2z M60.4,100.2c0.3,1.1,1.9,5.4,5.7,5.5c4.8,0.1,6.1-4.2,6.4-5.5l-4.7-2.5L60.4,100.2z"/>
		<path class="st3" d="M72.9,100c0,0,1.5,5.8,6.1,5.9s6.3-3.7,6.8-5.9l-5-2.7L72.9,100z"/>
		<path class="st5" d="M79.1,106.2c-0.1,0-0.1,0-0.2,0c-4.7-0.1-6.3-6.1-6.3-6.1l-0.1-0.2l8.1-2.8l5.3,2.8v0.2
			C85.4,103,83.2,106.2,79.1,106.2z M73.2,100.2c0.3,1.1,1.9,5.4,5.7,5.5c4.8,0.1,6.1-4.2,6.4-5.5l-4.7-2.5L73.2,100.2z"/>
		<path class="st3" d="M85.7,100c0,0,1.5,5.8,6.1,5.9c4.6,0.1,6.3-3.7,6.8-5.9l-5-2.7L85.7,100z"/>
		<path class="st5" d="M91.9,106.2c-0.1,0-0.1,0-0.2,0c-4.7-0.1-6.3-6.1-6.3-6.1l-0.1-0.2l8.1-2.8l5.3,2.8v0.2
			C98.2,103,96.1,106.2,91.9,106.2z M86,100.2c0.3,1.1,1.9,5.4,5.7,5.5h0.1c4.7,0,6-4.2,6.3-5.5l-4.7-2.5L86,100.2z"/>
		<path class="st3" d="M98.5,100c0,0,1.5,5.8,6.1,5.9s6.3-3.7,6.8-5.9l-5-2.7L98.5,100z"/>
		<path class="st5" d="M104.7,106.2c-0.1,0-0.1,0-0.2,0c-4.7-0.1-6.3-6.1-6.3-6.1l-0.1-0.2l8.1-2.8l5.3,2.8v0.2
			C111,103,108.9,106.2,104.7,106.2z M98.9,100.2c0.3,1.1,1.9,5.4,5.7,5.5h0.1c4.7,0,6-4.2,6.3-5.5l-4.7-2.5L98.9,100.2z"/>
		<path class="st3" d="M2.3,95.7c0,0,1.5,5.8,6.1,5.9c4.6,0.1,6.3-3.7,6.8-5.9l-5-2.7L2.3,95.7z"/>
		<path class="st5" d="M8.5,101.9c-0.1,0-0.1,0-0.2,0C3.6,101.8,2,95.8,2,95.8l-0.1-0.2l8.1-2.8l5.3,2.8v0.2
			C14.8,98.8,12.7,101.9,8.5,101.9z M2.7,95.9c0.3,1.1,1.9,5.4,5.7,5.5c4.8,0.1,6.1-4.2,6.4-5.5l-4.7-2.5L2.7,95.9z"/>
		<path class="st3" d="M15.2,95.7c0,0,1.5,5.8,6.1,5.9s6.3-3.7,6.8-5.9l-5-2.7L15.2,95.7z"/>
		<path class="st5" d="M21.4,101.9c-0.1,0-0.1,0-0.2,0c-4.7-0.1-6.3-6.1-6.3-6.1l-0.1-0.2l8.1-2.8l5.3,2.8v0.2
			C27.7,98.8,25.5,101.9,21.4,101.9z M15.5,95.9c0.3,1.1,1.9,5.4,5.7,5.5c4.7,0.1,6.1-4.2,6.4-5.5l-4.7-2.5L15.5,95.9z"/>
		<path class="st3" d="M28,95.7c0,0,1.5,5.8,6.1,5.9s6.3-3.7,6.8-5.9l-5-2.7L28,95.7z"/>
		<path class="st5" d="M34.2,101.9c-0.1,0-0.1,0-0.2,0c-4.7-0.1-6.3-6.1-6.3-6.1l-0.1-0.2l8.1-2.8l5.3,2.8v0.2
			C40.5,98.8,38.4,101.9,34.2,101.9z M28.3,95.9c0.3,1.1,1.9,5.4,5.7,5.5c4.8,0.1,6.1-4.2,6.4-5.5l-4.7-2.5L28.3,95.9z"/>
		<path class="st3" d="M40.8,95.7c0,0,1.5,5.8,6.1,5.9s6.3-3.7,6.8-5.9l-5-2.7L40.8,95.7z"/>
		<path class="st5" d="M47,101.9c-0.1,0-0.1,0-0.2,0c-4.7-0.1-6.3-6.1-6.3-6.1l-0.1-0.2l8.1-2.8l5.3,2.8v0.2
			C53.3,98.8,51.2,101.9,47,101.9z M41.2,95.9c0.3,1.1,1.9,5.4,5.7,5.5H47c4.7,0,6-4.2,6.3-5.5l-4.7-2.5L41.2,95.9z"/>
		<path class="st3" d="M53.6,95.7c0,0,1.5,5.8,6.1,5.9s6.3-3.7,6.8-5.9l-5-2.7L53.6,95.7z"/>
		<path class="st5" d="M59.8,101.9c-0.1,0-0.1,0-0.2,0c-4.7-0.1-6.3-6.1-6.3-6.1l-0.1-0.2l8.1-2.8l5.3,2.8v0.2
			C66.1,98.8,64,101.9,59.8,101.9z M54,95.9c0.3,1.1,1.9,5.4,5.7,5.5c4.8,0.1,6.1-4.2,6.4-5.5l-4.7-2.5L54,95.9z"/>
		<path class="st3" d="M66.5,95.7c0,0,1.5,5.8,6.1,5.9s6.3-3.7,6.8-5.9l-5-2.7L66.5,95.7z"/>
		<path class="st5" d="M72.7,101.9c-0.1,0-0.1,0-0.2,0c-4.7-0.1-6.3-6.1-6.3-6.1l-0.1-0.2l8.1-2.8l5.3,2.8v0.2
			C79,98.8,76.8,101.9,72.7,101.9z M66.8,95.9c0.3,1.1,1.9,5.4,5.7,5.5c4.8,0.1,6.1-4.2,6.4-5.5l-4.7-2.5L66.8,95.9z"/>
		<path class="st3" d="M79.3,95.7c0,0,1.5,5.8,6.1,5.9s6.3-3.7,6.8-5.9l-5-2.7L79.3,95.7z"/>
		<path class="st5" d="M85.5,101.9c-0.1,0-0.1,0-0.2,0c-4.7-0.1-6.3-6.1-6.3-6.1l-0.1-0.2l8.1-2.8l5.3,2.8v0.2
			C91.8,98.8,89.7,101.9,85.5,101.9z M79.6,95.9c0.3,1.1,1.9,5.4,5.7,5.5c4.8,0.1,6.1-4.2,6.4-5.5L87,93.4L79.6,95.9z"/>
		<path class="st3" d="M92.1,95.7c0,0,1.5,5.8,6.1,5.9c4.6,0.1,6.3-3.7,6.8-5.9l-5-2.7L92.1,95.7z"/>
		<path class="st5" d="M98.3,101.9c-0.1,0-0.1,0-0.2,0c-4.7-0.1-6.3-6.1-6.3-6.1l-0.1-0.2l8.1-2.8l5.3,2.8v0.2
			C104.6,98.8,102.5,101.9,98.3,101.9z M92.5,95.9c0.3,1.1,1.9,5.4,5.7,5.5h0.1c4.7,0,6-4.2,6.3-5.5l-4.7-2.5L92.5,95.9z"/>
	</g>
</g>
<path class="st6" d="M109.5,119.4H3v3.3h106.5V119.4z"/>
<path class="st7" d="M105.8,160.7H6.6v5.2h99.2V160.7z"/>
<path class="st7" d="M13.6,122.7h-2.9V160h2.9V122.7z"/>
<path class="st7" d="M15.7,124.9H8.5c-0.2,0-0.4-0.2-0.4-0.4V123c0-0.2,0.2-0.4,0.4-0.4h7.2c0.2,0,0.4,0.2,0.4,0.4v1.5
	C16.1,124.7,15.9,124.9,15.7,124.9z"/>
<path class="st7" d="M15.7,160.7H8.5c-0.2,0-0.4-0.2-0.4-0.4v-1.5c0-0.2,0.2-0.4,0.4-0.4h7.2c0.2,0,0.4,0.2,0.4,0.4v1.5
	C16.1,160.5,15.9,160.7,15.7,160.7z"/>
<path class="st7" d="M30.8,122.7h-2.9V160h2.9V122.7z"/>
<path class="st7" d="M32.9,124.9h-7.2c-0.2,0-0.4-0.2-0.4-0.4V123c0-0.2,0.2-0.4,0.4-0.4h7.2c0.2,0,0.4,0.2,0.4,0.4v1.5
	C33.3,124.7,33.1,124.9,32.9,124.9z"/>
<path class="st7" d="M32.9,160.7h-7.2c-0.2,0-0.4-0.2-0.4-0.4v-1.5c0-0.2,0.2-0.4,0.4-0.4h7.2c0.2,0,0.4,0.2,0.4,0.4v1.5
	C33.3,160.5,33.1,160.7,32.9,160.7z"/>
<path class="st7" d="M28.8,143.1H13.6v2.1h15.2V143.1z"/>
<path class="st7" d="M19,144.7h-2.2v17.2H19V144.7z"/>
<path class="st7" d="M24.7,144.7h-2.2v17.2h2.2V144.7z"/>
<path class="st7" d="M86.1,122.7h-2.9V160h2.9V122.7z"/>
<path class="st7" d="M88.2,124.9H81c-0.2,0-0.4-0.2-0.4-0.4V123c0-0.2,0.2-0.4,0.4-0.4h7.2c0.2,0,0.4,0.2,0.4,0.4v1.5
	C88.6,124.7,88.5,124.9,88.2,124.9z"/>
<path class="st7" d="M88.2,160.7H81c-0.2,0-0.4-0.2-0.4-0.4v-1.5c0-0.2,0.2-0.4,0.4-0.4h7.2c0.2,0,0.4,0.2,0.4,0.4v1.5
	C88.6,160.5,88.5,160.7,88.2,160.7z"/>
<path class="st7" d="M103.3,122.7h-2.9V160h2.9V122.7z"/>
<path class="st7" d="M105.4,124.9h-7.2c-0.2,0-0.4-0.2-0.4-0.4V123c0-0.2,0.2-0.4,0.4-0.4h7.2c0.2,0,0.4,0.2,0.4,0.4v1.5
	C105.8,124.7,105.6,124.9,105.4,124.9z"/>
<path class="st7" d="M105.4,160.7h-7.2c-0.2,0-0.4-0.2-0.4-0.4v-1.5c0-0.2,0.2-0.4,0.4-0.4h7.2c0.2,0,0.4,0.2,0.4,0.4v1.5
	C105.8,160.5,105.6,160.7,105.4,160.7z"/>
<path class="st7" d="M101.3,143.1H86.1v2.1h15.2V143.1z"/>
<path class="st7" d="M91.6,144.7h-2.2v17.2h2.2V144.7z"/>
<path class="st7" d="M97.2,144.7H95v17.2h2.2V144.7z"/>
<path class="st8" d="M67.8,127.6H44.6v33.1h23.2V127.6z"/>
<path class="st9" d="M65.8,130.2H46.5v28.2h19.3V130.2z"/>
<path class="st10" d="M27.3,44.5h-9.7v5.1h9.7V44.5z"/>
<path class="st10" d="M32.2,51.9h-9.7V57h9.7V51.9z"/>
<path class="st10" d="M95.3,87.2h-9.7v5.1h9.7V87.2z"/>
<path class="st10" d="M77.5,55h-9.7v5.1h9.7V55z"/>
<path class="st11" d="M55.9,36.1c4,0,7.3-3.3,7.3-7.3s-3.3-7.3-7.3-7.3c-4,0-7.3,3.3-7.3,7.3S51.9,36.1,55.9,36.1z"/>
<path class="st12" d="M55.9,37.2c-4.6,0-8.3-3.7-8.3-8.3s3.7-8.3,8.3-8.3s8.3,3.7,8.3,8.3C64.2,33.4,60.5,37.2,55.9,37.2z
	 M55.9,22.5c-3.5,0-6.3,2.8-6.3,6.3s2.8,6.3,6.3,6.3s6.3-2.8,6.3-6.3C62.2,25.4,59.4,22.5,55.9,22.5z"/>
<path class="st12" d="M56.9,21.9H55v13.9h1.9V21.9z"/>
<path class="st12" d="M62.8,29.8v-1.9H48.9v1.9H62.8z"/>
<path class="st13" d="M53.3,137.6C53.2,137.6,53.2,137.6,53.3,137.6c-0.1-0.1-0.1-0.1-0.1-0.2l2.3-2.2h0.1v0.1L53.3,137.6z"/>
<path class="st13" d="M57.2,138.4C57.1,138.4,57.1,138.4,57.2,138.4c-0.1-0.1-0.1-0.1-0.1-0.2l2.3-2.2h0.1v0.1L57.2,138.4z"/>
<path class="st13" d="M55.9,156.6c-0.1-0.1-0.1-0.1-0.1-0.2l2.3-2.2h0.1v0.1L55.9,156.6C55.9,156.6,56,156.6,55.9,156.6z"/>
<path class="st13" d="M52.3,140.9C52.2,140.9,52.2,140.9,52.3,140.9c-0.1-0.1-0.1-0.1-0.1-0.2l7.9-7.8h0.1v0.1L52.3,140.9z"/>
<path class="st8" d="M106.8,121.2c-0.1,14.8-0.5,29.6-1.3,44.4c1.3,0.1,2.6-0.3,3.6-1c-2.4-16.4-2.1-33.2,0.9-49.4"/>
<path class="st8" d="M106.8,121.2c-1.2,6.9-0.3,14.3-0.6,21.2c-0.3,7.7-0.8,15.4-1.2,23.2c0,0.3,0.3,0.6,0.6,0.6
	c1.5,0,2.5-0.3,3.9-1.1c0.2-0.1,0.3-0.3,0.3-0.5c-0.9-8.2-1.3-16.5-1.2-24.8c0.1-3.8,0.3-7.6,0.6-11.4c0.4-4.4,1.6-8.9,1.4-13.2
	c0-0.5-0.7-0.8-1-0.3c-2.7,6.2-2.6,14.5-2.9,21.1c-0.3,7.7-0.1,15.4,1,23.1c0.1,0.8,1.7,5.8-1.4,4.6c-0.3-0.1,0.2-5,0.2-5.8
	c0.2-4.5,0.3-9,0.3-13.5C106.8,136.8,108.1,128.7,106.8,121.2C106.8,121.1,106.8,121.1,106.8,121.2z"/>
<path class="st8" d="M107.6,135.5c3.1-2.9,5.4-6.6,6.6-10.7c0.1-0.3,0.2-0.6,0.4-0.7c0.4-0.2,0.9,0.1,1,0.5s0,0.9-0.1,1.3
	c-1.3,4.5-3.9,8.7-7.3,12"/>
<path class="st8" d="M101.5,121.2c-0.4,5.2,1.8,9.8,5.8,13.1c0.6,0.5,1.6-0.4,0.9-0.9c-3.6-3-5.7-7.4-5.9-12.1
	C102.3,120.6,101.5,120.7,101.5,121.2z"/>
<path class="st0" d="M128.2,113.1c2.7-6.5-3-15.3-9.8-11.3c-0.2-0.4-0.5-0.7-0.7-1c-0.9-1.3-2-2.4-3.2-3.3c-1.8-1.3-3.8-2.2-6-2.4
	c-3.9-0.4-7.3,1.4-9.4,4.3c-2.4-1-5.4-0.2-6.5,2.8c-0.4,1.1-0.5,2.2-0.4,3.1c-2.9,2.1-3.1,6.7,0.5,9.1c-3.9,6.7,3.3,13.7,9.7,10
	c0.9,3.3,3.4,6,7.2,6.2c2.4,0.1,4.5-0.7,6.1-2.5c0.7-0.9,1-2,1.5-2.9c0.1,0.1,0.2,0.2,0.4,0.3C125.1,130.9,134.9,118.8,128.2,113.1z
	"/>
<path class="st14" d="M9.9,166h95.3l3.8,4H5L9.9,166z"/>
<path class="st0" d="M3.9,166.9c-2-0.4-3.6-2.3-3.7-4.3c0-0.3,0-0.7,0.2-1c0.3-0.7,1.1-1,1.9-1s1.4,0.4,2.1,0.7
	c-1.6-2.1-2.8-4.9-1.7-7.3c0.3-0.6,0.8-1.3,1.5-1.3s1.3,0.7,1.7,1.3c1,1.6,1.9,3.3,2.7,5c0.3-1.8,0.8-3.8,2.4-4.8
	c0.2-0.1,0.5-0.3,0.8-0.2c0.3,0,0.5,0.2,0.7,0.4c1.4,1.3,1.2,3.5,1,5.4c0.4-1.2,2.1-1.7,3.3-1.1c1.2,0.6,1.9,1.9,2.1,3.1
	c0.2,1,0.2,2.1-0.3,3.1c-0.5,0.9-1.5,2.1-2.6,2"/>
</svg>
