<?xml version="1.0" encoding="utf-8"?>
<!-- Generator: Adobe Illustrator 22.1.0, SVG Export Plug-In . SVG Version: 6.00 Build 0)  -->
<svg version="1.1" id="Warstwa_1" xmlns="http://www.w3.org/2000/svg" xmlns:xlink="http://www.w3.org/1999/xlink" x="0px" y="0px"
	 viewBox="0 0 180 104" style="enable-background:new 0 0 180 104;" xml:space="preserve">
<style type="text/css">
	.st0{fill:#497C54;}
	.st1{fill:#CC7E36;}
	.st2{fill:#F89655;}
	.st3{fill:#4A4B4D;}
	.st4{opacity:0.3;}
	.st5{opacity:0.3;fill:#4A4B4D;enable-background:new    ;}
	.st6{clip-path:url(#SVGID_2_);}
	.st7{fill:#5D6162;}
	.st8{fill:#505656;}
	.st9{fill:#85674D;}
	.st10{fill:#A58A6C;}
	.st11{fill:#5CA09F;}
	.st12{fill:#87CCC9;}
	.st13{fill:#5A6A8C;}
	.st14{fill:#095B73;}
	.st15{fill:#E3E8E4;}
	.st16{fill:#BA692A;}
	.st17{fill:#707676;}
	.st18{fill:#5E6263;}
	.st19{fill:#C4AA90;}
	.st20{opacity:0.2;}
	.st21{opacity:0.2;fill:#4A4B4D;enable-background:new    ;}
	.st22{fill:#CD7F37;}
	.st23{opacity:0.2;fill:#1C1C1C;enable-background:new    ;}
</style>
<path class="st0" d="M28.3,99.3c-5.6,1-12,1.3-16.6-2.1c-4.6-3.4-5.3-11.9-0.1-14.3C6,80.4,0.9,75.2,1,69c0.2-6.2,8-11.4,12.9-7.7
	c-2.5-7.2-4.8-15.8-0.2-21.8c4.5-6,13.3-6.2,20.8-5.9c-3.5-8.2-0.7-18.5,6.3-23.9c7-5.4,17.7-5.3,24.7,0.1c2-5.6,10.2-6.5,15.1-3.1
	c4.8,3.4,6.9,9.5,8.3,15.3c5.8,24.2,3.5,49.6,1.1,74.4"/>
<path class="st0" d="M157.7,100c7.6,0,12.6-0.5,17.2-4.5c1.9-1.7,4.1-3.4,4.8-5.8c0.7-2.5-0.4-5.6-2.9-6.3c1.5-0.6,2.1-2.3,2.2-3.9
	c0.3-3.6-0.9-7.4-3.7-9.7c-2.8-2.2-7.4-2.3-9.8,0.3c1.6-2,0.7-5.2-1.2-6.8c-2-1.7-4.6-2.2-7.1-2.6c-1.6-0.3-3.2-0.5-4.8-0.4
	c-2.1,0.2-4.2,1-6,2.1c-4.5,2.7-7.7,7.4-8.8,12.5c-1.1,5.1,0,10.7,2.9,15c1.9,2.8,5.2,5.2,8.4,4.1"/>
<path class="st1" d="M157.7,38.6H59.6V100h98.1V38.6z"/>
<path class="st2" d="M157.8,84.5h-6.3v2.2h6.3V84.5z"/>
<path class="st3" d="M163.4,38.6l4.6,4.6v3.9H34.2v-3.9l29.6-6.7L163.4,38.6z"/>
<g class="st4">
	<g class="st4">
		<path class="st5" d="M153.6,39.6l4.1,4.6v3.9H34.2v-3.9l27.3-6.7L153.6,39.6z"/>
	</g>
</g>
<g>
	<defs>
		<path id="SVGID_1_" d="M46.3,23.2L66.7,0h72L168,43.2H34.2L46.3,23.2z"/>
	</defs>
	<clipPath id="SVGID_2_">
		<use xlink:href="#SVGID_1_"  style="overflow:visible;"/>
	</clipPath>
	<g class="st6">
		<path class="st7" d="M34.1,46.3c0,0,1.8,7.2,7.4,7.3c5.6,0.1,7.8-4.5,8.3-7.2l-6.2-3.3L34.1,46.3z"/>
		<path class="st8" d="M41.7,53.8c-0.1,0-0.1,0-0.2,0c-5.8-0.1-7.7-7.4-7.7-7.5l-0.1-0.2l9.9-3.4l6.5,3.4v0.2
			C49.4,50,46.8,53.8,41.7,53.8z M34.4,46.4c0.4,1.2,2.3,6.8,7.1,6.9c0.1,0,0.1,0,0.2,0c5.9,0,7.5-5.4,7.9-6.9l-5.9-3.2L34.4,46.4z"
			/>
		<path class="st7" d="M49.9,46.3c0,0,1.8,7.2,7.4,7.3c5.6,0.1,7.8-4.5,8.3-7.2l-6.2-3.3L49.9,46.3z"/>
		<path class="st8" d="M57.5,53.8c-0.1,0-0.1,0-0.2,0c-5.8-0.1-7.7-7.4-7.7-7.5l-0.1-0.2l9.9-3.4l6.5,3.4v0.2
			C65.1,50,62.5,53.8,57.5,53.8z M50.2,46.4c0.4,1.2,2.3,6.8,7.1,6.9c0.1,0,0.1,0,0.2,0c5.9,0,7.5-5.4,7.9-6.9l-5.9-3.2L50.2,46.4z"
			/>
		<path class="st7" d="M65.6,46.3c0,0,1.8,7.2,7.4,7.3c5.6,0.1,7.8-4.5,8.3-7.2l-6.2-3.3L65.6,46.3z"/>
		<path class="st8" d="M73.3,53.8c-0.1,0-0.1,0-0.2,0c-5.8-0.1-7.7-7.4-7.7-7.5l-0.1-0.2l9.9-3.4l6.4,3.4v0.2
			C80.9,50,78.3,53.8,73.3,53.8z M65.9,46.4c0.4,1.2,2.3,6.8,7.1,6.9c0.1,0,0.1,0,0.2,0c5.9,0,7.5-5.4,7.9-6.9l-5.9-3.2L65.9,46.4z"
			/>
		<path class="st7" d="M81.4,46.3c0,0,1.8,7.2,7.4,7.3c5.6,0.1,7.8-4.5,8.3-7.2L91,43L81.4,46.3z"/>
		<path class="st8" d="M89,53.8c-0.1,0-0.1,0-0.2,0c-5.8-0.1-7.7-7.4-7.7-7.5L81,46.1l9.9-3.4l6.4,3.4v0.2
			C96.7,50,94.1,53.8,89,53.8z M81.7,46.4c0.4,1.2,2.3,6.8,7.1,6.9c0.1,0,0.1,0,0.2,0c5.9,0,7.5-5.4,7.9-6.9L91,43.2L81.7,46.4z"/>
		<path class="st7" d="M97.2,46.3c0,0,1.8,7.2,7.4,7.3c5.6,0.1,7.8-4.5,8.3-7.2l-6.2-3.3L97.2,46.3z"/>
		<path class="st8" d="M104.8,53.8c-0.1,0-0.1,0-0.2,0c-5.8-0.1-7.7-7.4-7.7-7.5l-0.1-0.2l9.9-3.4l6.4,3.4v0.2
			C112.4,50,109.8,53.8,104.8,53.8z M97.5,46.4c0.4,1.2,2.3,6.8,7.1,6.9c0.1,0,0.1,0,0.2,0c5.9,0,7.5-5.4,7.9-6.9l-5.9-3.2
			L97.5,46.4z"/>
		<path class="st7" d="M112.9,46.3c0,0,1.8,7.2,7.4,7.3c5.6,0.1,7.8-4.5,8.3-7.2l-6.2-3.3L112.9,46.3z"/>
		<path class="st8" d="M120.6,53.8c-0.1,0-0.1,0-0.2,0c-5.8-0.1-7.7-7.4-7.7-7.5l-0.1-0.2l9.9-3.4l6.5,3.4v0.2
			C128.2,50,125.6,53.8,120.6,53.8z M113.2,46.4c0.4,1.2,2.3,6.8,7.1,6.9c0.1,0,0.1,0,0.2,0c5.9,0,7.5-5.4,7.9-6.9l-5.9-3.2
			L113.2,46.4z"/>
		<path class="st7" d="M128.7,46.3c0,0,1.8,7.2,7.4,7.3c5.6,0.1,7.8-4.5,8.3-7.2l-6.2-3.3L128.7,46.3z"/>
		<path class="st8" d="M136.3,53.8c-0.1,0-0.1,0-0.2,0c-5.8-0.1-7.7-7.4-7.7-7.5l-0.1-0.2l9.9-3.4l6.5,3.4v0.2
			C144,50,141.4,53.8,136.3,53.8z M129,46.4c0.4,1.2,2.3,6.8,7.1,6.9c0.1,0,0.1,0,0.2,0c5.9,0,7.5-5.4,7.9-6.9l-5.9-3.2L129,46.4z"
			/>
		<path class="st7" d="M144.5,46.3c0,0,1.8,7.2,7.4,7.3c5.6,0.1,7.8-4.5,8.3-7.2L154,43L144.5,46.3z"/>
		<path class="st8" d="M152.1,53.8c-0.1,0-0.1,0-0.2,0c-5.8-0.1-7.7-7.4-7.7-7.5l-0.1-0.2l9.9-3.4l6.5,3.4v0.2
			C159.7,50,157.1,53.8,152.1,53.8z M144.8,46.4c0.4,1.2,2.3,6.8,7.1,6.9c0.1,0,0.1,0,0.2,0c5.9,0,7.5-5.4,7.9-6.9l-5.9-3.2
			L144.8,46.4z"/>
		<path class="st7" d="M42,41c0,0,1.8,7.2,7.4,7.3c5.6,0.1,7.8-4.5,8.3-7.2l-6.2-3.3L42,41z"/>
		<path class="st8" d="M49.6,48.5c-0.1,0-0.1,0-0.2,0c-5.8-0.1-7.7-7.4-7.7-7.5l-0.1-0.2l9.9-3.4l6.5,3.4V41
			C57.2,44.7,54.7,48.5,49.6,48.5z M42.3,41.2c0.4,1.2,2.3,6.8,7.1,6.9c6,0.1,7.7-5.3,8-6.9L51.5,38L42.3,41.2z"/>
		<path class="st7" d="M57.7,41c0,0,1.8,7.2,7.4,7.3c5.6,0.1,7.8-4.5,8.3-7.2l-6.2-3.3L57.7,41z"/>
		<path class="st8" d="M65.4,48.5c-0.1,0-0.1,0-0.2,0c-5.8-0.1-7.7-7.4-7.7-7.5l-0.1-0.2l9.9-3.4l6.5,3.4V41
			C73,44.7,70.4,48.5,65.4,48.5z M58,41.2c0.4,1.2,2.3,6.8,7.1,6.9c0.1,0,0.1,0,0.2,0c5.9,0,7.5-5.4,7.9-6.9L67.3,38L58,41.2z"/>
		<path class="st7" d="M73.5,41c0,0,1.8,7.2,7.4,7.3c5.6,0.1,7.8-4.5,8.3-7.2L83,37.8L73.5,41z"/>
		<path class="st8" d="M81.1,48.5c-0.1,0-0.1,0-0.2,0c-5.8-0.1-7.7-7.4-7.7-7.5l-0.1-0.2l9.9-3.4l6.4,3.4V41
			C88.8,44.7,86.2,48.5,81.1,48.5z M73.8,41.2c0.4,1.2,2.3,6.8,7.1,6.9c0.1,0,0.1,0,0.2,0c5.9,0,7.5-5.4,7.9-6.9L83.1,38L73.8,41.2z
			"/>
		<path class="st7" d="M89.3,41c0,0,1.8,7.2,7.4,7.3c5.6,0.1,7.8-4.5,8.3-7.2l-6.2-3.3L89.3,41z"/>
		<path class="st8" d="M96.9,48.5c-0.1,0-0.1,0-0.2,0C90.9,48.4,89,41.1,89,41l-0.1-0.2l9.9-3.4l6.4,3.4V41
			C104.5,44.7,102,48.5,96.9,48.5z M89.6,41.2c0.4,1.2,2.3,6.8,7.1,6.9c0.1,0,0.1,0,0.2,0c5.9,0,7.5-5.4,7.9-6.9L98.9,38L89.6,41.2z
			"/>
		<path class="st7" d="M105,41c0,0,1.8,7.2,7.4,7.3c5.6,0.1,7.8-4.5,8.3-7.2l-6.2-3.3L105,41z"/>
		<path class="st8" d="M112.7,48.5c-0.1,0-0.1,0-0.2,0c-5.8-0.1-7.7-7.4-7.7-7.5l-0.1-0.2l9.9-3.4l6.4,3.4V41
			C120.3,44.7,117.7,48.5,112.7,48.5z M105.3,41.2c0.4,1.2,2.3,6.8,7.1,6.9c0.1,0,0.1,0,0.2,0c5.9,0,7.5-5.4,7.9-6.9l-5.9-3.2
			L105.3,41.2z"/>
		<path class="st7" d="M120.8,41c0,0,1.8,7.2,7.4,7.3c5.6,0.1,7.8-4.5,8.3-7.2l-6.2-3.3L120.8,41z"/>
		<path class="st8" d="M128.4,48.5c-0.1,0-0.1,0-0.2,0c-5.8-0.1-7.7-7.4-7.7-7.5l-0.1-0.2l9.9-3.4l6.5,3.4V41
			C136.1,44.7,133.5,48.5,128.4,48.5z M121.1,41.2c0.4,1.2,2.3,6.8,7.1,6.9c0.1,0,0.1,0,0.2,0c5.9,0,7.5-5.4,7.9-6.9l-5.9-3.2
			L121.1,41.2z"/>
		<path class="st7" d="M136.6,41c0,0,1.8,7.2,7.4,7.3c5.6,0.1,7.8-4.5,8.3-7.2l-6.2-3.3L136.6,41z"/>
		<path class="st8" d="M144.2,48.5c-0.1,0-0.1,0-0.2,0c-5.8-0.1-7.7-7.4-7.7-7.5l-0.1-0.2l9.9-3.4l6.5,3.4V41
			C151.8,44.7,149.3,48.5,144.2,48.5z M136.9,41.2c0.4,1.2,2.3,6.8,7.1,6.9c0.1,0,0.1,0,0.2,0c5.9,0,7.5-5.4,7.9-6.9l-5.9-3.2
			L136.9,41.2z"/>
		<path class="st7" d="M152,39.7c0,0,2.1,8.2,8.5,8.3c6.4,0.1,8.9-5.1,9.5-8.2l-7.1-3.8L152,39.7z"/>
		<path class="st8" d="M160,48.5c-0.1,0-0.1,0-0.2,0c-5.8-0.1-7.7-7.4-7.7-7.5l-0.1-0.2l9.9-3.4l6.5,3.4V41
			C167.6,44.7,165,48.5,160,48.5z M152.6,41.2c0.4,1.2,2.3,6.8,7.1,6.9c0.1,0,0.1,0,0.2,0c5.9,0,7.5-5.4,7.9-6.9l-5.9-3.2
			L152.6,41.2z"/>
		<path class="st7" d="M34.1,35.8c0,0,1.8,7.2,7.4,7.3c5.6,0.1,7.8-4.5,8.3-7.2l-6.2-3.3L34.1,35.8z"/>
		<path class="st8" d="M41.7,43.3c-0.1,0-0.1,0-0.2,0c-5.8-0.1-7.7-7.4-7.7-7.5l-0.1-0.2l9.9-3.4l6.5,3.4v0.2
			C49.4,39.5,46.8,43.3,41.7,43.3z M34.4,35.9c0.4,1.2,2.3,6.8,7.1,6.9c0.1,0,0.1,0,0.2,0c5.9,0,7.5-5.4,7.9-6.9l-5.9-3.2L34.4,35.9
			z"/>
		<path class="st7" d="M49.9,35.8c0,0,1.8,7.2,7.4,7.3c5.6,0.1,7.8-4.5,8.3-7.2l-6.2-3.3L49.9,35.8z"/>
		<path class="st8" d="M57.5,43.3c-0.1,0-0.1,0-0.2,0c-5.8-0.1-7.7-7.4-7.7-7.5l-0.1-0.2l9.9-3.4l6.5,3.4v0.2
			C65.1,39.5,62.5,43.3,57.5,43.3z M50.2,35.9c0.4,1.2,2.3,6.8,7.1,6.9c0.1,0,0.1,0,0.2,0c5.9,0,7.5-5.4,7.9-6.9l-5.9-3.2L50.2,35.9
			z"/>
		<path class="st7" d="M65.6,35.8c0,0,1.8,7.2,7.4,7.3c5.6,0.1,7.8-4.5,8.3-7.2l-6.2-3.3L65.6,35.8z"/>
		<path class="st8" d="M73.3,43.3c-0.1,0-0.1,0-0.2,0c-5.8-0.1-7.7-7.4-7.7-7.5l-0.1-0.2l9.9-3.4l6.4,3.4v0.2
			C80.9,39.5,78.3,43.3,73.3,43.3z M65.9,35.9c0.4,1.2,2.3,6.8,7.1,6.9c0.1,0,0.1,0,0.2,0c5.9,0,7.5-5.4,7.9-6.9l-5.9-3.2L65.9,35.9
			z"/>
		<path class="st7" d="M81.4,35.8c0,0,1.8,7.2,7.4,7.3c5.6,0.1,7.8-4.5,8.3-7.2l-6.2-3.3L81.4,35.8z"/>
		<path class="st8" d="M89,43.3c-0.1,0-0.1,0-0.2,0c-5.8-0.1-7.7-7.4-7.7-7.5L81,35.6l9.9-3.4l6.4,3.4v0.2
			C96.7,39.5,94.1,43.3,89,43.3z M81.7,35.9c0.4,1.2,2.3,6.8,7.1,6.9c0.1,0,0.1,0,0.2,0c5.9,0,7.5-5.4,7.9-6.9L91,32.7L81.7,35.9z"
			/>
		<path class="st7" d="M97.2,35.8c0,0,1.8,7.2,7.4,7.3c5.6,0.1,7.8-4.5,8.3-7.2l-6.2-3.3L97.2,35.8z"/>
		<path class="st8" d="M104.8,43.3c-0.1,0-0.1,0-0.2,0c-5.8-0.1-7.7-7.4-7.7-7.5l-0.1-0.2l9.9-3.4l6.4,3.4v0.2
			C112.4,39.5,109.8,43.3,104.8,43.3z M97.5,35.9c0.4,1.2,2.3,6.8,7.1,6.9c0.1,0,0.1,0,0.2,0c5.9,0,7.5-5.4,7.9-6.9l-5.9-3.2
			L97.5,35.9z"/>
		<path class="st7" d="M112.9,35.8c0,0,1.8,7.2,7.4,7.3c5.6,0.1,7.8-4.5,8.3-7.2l-6.2-3.3L112.9,35.8z"/>
		<path class="st8" d="M120.6,43.3c-0.1,0-0.1,0-0.2,0c-5.8-0.1-7.7-7.4-7.7-7.5l-0.1-0.2l9.9-3.4l6.5,3.4v0.2
			C128.2,39.5,125.6,43.3,120.6,43.3z M113.2,35.9c0.4,1.2,2.3,6.8,7.1,6.9c0.1,0,0.1,0,0.2,0c5.9,0,7.5-5.4,7.9-6.9l-5.9-3.2
			L113.2,35.9z"/>
		<path class="st7" d="M128.7,35.8c0,0,1.8,7.2,7.4,7.3c5.6,0.1,7.8-4.5,8.3-7.2l-6.2-3.3L128.7,35.8z"/>
		<path class="st8" d="M136.3,43.3c-0.1,0-0.1,0-0.2,0c-5.8-0.1-7.7-7.4-7.7-7.5l-0.1-0.2l9.9-3.4l6.5,3.4v0.2
			C144,39.5,141.4,43.3,136.3,43.3z M129,35.9c0.4,1.2,2.3,6.8,7.1,6.9c0.1,0,0.1,0,0.2,0c5.9,0,7.5-5.4,7.9-6.9l-5.9-3.2L129,35.9z
			"/>
		<path class="st7" d="M144.5,35.8c0,0,1.8,7.2,7.4,7.3c5.6,0.1,7.8-4.5,8.3-7.2l-6.2-3.3L144.5,35.8z"/>
		<path class="st8" d="M152.1,43.3c-0.1,0-0.1,0-0.2,0c-5.8-0.1-7.7-7.4-7.7-7.5l-0.1-0.2l9.9-3.4l6.5,3.4v0.2
			C159.7,39.5,157.1,43.3,152.1,43.3z M144.8,35.9c0.4,1.2,2.3,6.8,7.1,6.9c0.1,0,0.1,0,0.2,0c5.9,0,7.5-5.4,7.9-6.9l-5.9-3.2
			L144.8,35.9z"/>
		<path class="st7" d="M42,30.5c0,0,1.8,7.2,7.4,7.3c5.6,0.1,7.8-4.5,8.3-7.2l-6.2-3.3L42,30.5z"/>
		<path class="st8" d="M49.6,38c-0.1,0-0.1,0-0.2,0c-5.8-0.1-7.7-7.4-7.7-7.5l-0.1-0.2l9.9-3.4l6.5,3.4v0.2
			C57.2,34.2,54.7,38,49.6,38z M42.3,30.7c0.4,1.2,2.3,6.8,7.1,6.9c0.1,0,0.1,0,0.2,0c5.9,0,7.5-5.4,7.9-6.9l-5.9-3.2L42.3,30.7z"/>
		<path class="st7" d="M57.7,30.5c0,0,1.8,7.2,7.4,7.3c5.6,0.1,7.8-4.5,8.3-7.2l-6.2-3.3L57.7,30.5z"/>
		<path class="st8" d="M65.4,38c-0.1,0-0.1,0-0.2,0c-5.8-0.1-7.7-7.4-7.7-7.5l-0.1-0.2l9.9-3.4l6.5,3.4v0.2C73,34.2,70.4,38,65.4,38
			z M58,30.7c0.4,1.2,2.3,6.8,7.1,6.9c0.1,0,0.1,0,0.2,0c5.9,0,7.5-5.4,7.9-6.9l-5.9-3.2L58,30.7z"/>
		<path class="st7" d="M73.5,30.5c0,0,1.8,7.2,7.4,7.3c5.6,0.1,7.8-4.5,8.3-7.2L83,27.3L73.5,30.5z"/>
		<path class="st8" d="M81.1,38c-0.1,0-0.1,0-0.2,0c-5.8-0.1-7.7-7.4-7.7-7.5l-0.1-0.2l9.9-3.4l6.4,3.4v0.2
			C88.8,34.2,86.2,38,81.1,38z M73.8,30.7c0.4,1.2,2.3,6.8,7.1,6.9c0.1,0,0.1,0,0.2,0c5.9,0,7.5-5.4,7.9-6.9l-5.9-3.2L73.8,30.7z"/>
		<path class="st7" d="M89.3,30.5c0,0,1.8,7.2,7.4,7.3c5.6,0.1,7.8-4.5,8.3-7.2l-6.2-3.3L89.3,30.5z"/>
		<path class="st8" d="M96.9,38c-0.1,0-0.1,0-0.2,0c-5.8-0.1-7.7-7.4-7.7-7.5l-0.1-0.2l9.9-3.4l6.4,3.4v0.2
			C104.5,34.2,102,38,96.9,38z M89.6,30.7c0.4,1.2,2.3,6.8,7.1,6.9c0.1,0,0.1,0,0.2,0c5.9,0,7.5-5.4,7.9-6.9l-5.9-3.2L89.6,30.7z"/>
		<path class="st7" d="M105,30.5c0,0,1.8,7.2,7.4,7.3c5.6,0.1,7.8-4.5,8.3-7.2l-6.2-3.3L105,30.5z"/>
		<path class="st8" d="M112.7,38c-0.1,0-0.1,0-0.2,0c-5.8-0.1-7.7-7.4-7.7-7.5l-0.1-0.2l9.9-3.4l6.4,3.4v0.2
			C120.3,34.2,117.7,38,112.7,38z M105.3,30.7c0.4,1.2,2.3,6.8,7.1,6.9c0.1,0,0.1,0,0.2,0c5.9,0,7.5-5.4,7.9-6.9l-5.9-3.2
			L105.3,30.7z"/>
		<path class="st7" d="M120.8,30.5c0,0,1.8,7.2,7.4,7.3c5.6,0.1,7.8-4.5,8.3-7.2l-6.2-3.3L120.8,30.5z"/>
		<path class="st8" d="M128.4,38c-0.1,0-0.1,0-0.2,0c-5.8-0.1-7.7-7.4-7.7-7.5l-0.1-0.2l9.9-3.4l6.5,3.4v0.2
			C136.1,34.2,133.5,38,128.4,38z M121.1,30.7c0.4,1.2,2.3,6.8,7.1,6.9c0.1,0,0.1,0,0.2,0c5.9,0,7.5-5.4,7.9-6.9l-5.9-3.2
			L121.1,30.7z"/>
		<path class="st7" d="M136.6,30.5c0,0,1.8,7.2,7.4,7.3c5.6,0.1,7.8-4.5,8.3-7.2l-6.2-3.3L136.6,30.5z"/>
		<path class="st8" d="M144.2,38c-0.1,0-0.1,0-0.2,0c-5.8-0.1-7.7-7.4-7.7-7.5l-0.1-0.2l9.9-3.4l6.5,3.4v0.2
			C151.8,34.2,149.3,38,144.2,38z M136.9,30.7c0.4,1.2,2.3,6.8,7.1,6.9c0.1,0,0.1,0,0.2,0c5.9,0,7.5-5.4,7.9-6.9l-5.9-3.2
			L136.9,30.7z"/>
		<path class="st7" d="M152.3,30.5c0,0,1.8,7.2,7.4,7.3c5.6,0.1,7.8-4.5,8.3-7.2l-6.2-3.3L152.3,30.5z"/>
		<path class="st8" d="M160,38c-0.1,0-0.1,0-0.2,0c-5.8-0.1-7.7-7.4-7.7-7.5l-0.1-0.2l9.9-3.4l6.5,3.4v0.2C167.6,34.2,165,38,160,38
			z M152.6,30.7c0.4,1.2,2.3,6.8,7.1,6.9c0.1,0,0.1,0,0.2,0c5.9,0,7.5-5.4,7.9-6.9l-5.9-3.2L152.6,30.7z"/>
		<path class="st7" d="M34.1,25.2c0,0,1.8,7.2,7.4,7.3s7.8-4.5,8.3-7.2L43.6,22L34.1,25.2z"/>
		<path class="st8" d="M41.7,32.8c-0.1,0-0.1,0-0.2,0c-5.8-0.1-7.7-7.4-7.7-7.5l-0.1-0.2l9.9-3.4l6.5,3.4v0.2
			C49.4,28.9,46.8,32.8,41.7,32.8z M34.4,25.4c0.4,1.2,2.3,6.8,7.1,6.9c0.1,0,0.1,0,0.2,0c5.9,0,7.5-5.4,7.9-6.9l-5.9-3.2L34.4,25.4
			z"/>
		<path class="st7" d="M49.9,25.2c0,0,1.8,7.2,7.4,7.3s7.8-4.5,8.3-7.2L59.4,22L49.9,25.2z"/>
		<path class="st8" d="M57.5,32.8c-0.1,0-0.1,0-0.2,0c-5.8-0.1-7.7-7.4-7.7-7.5l-0.1-0.2l9.9-3.4l6.5,3.4v0.2
			C65.1,28.9,62.5,32.8,57.5,32.8z M50.2,25.4c0.4,1.2,2.3,6.8,7.1,6.9c0.1,0,0.1,0,0.2,0c5.9,0,7.5-5.4,7.9-6.9l-5.9-3.2L50.2,25.4
			z"/>
		<path class="st7" d="M65.6,25.2c0,0,1.8,7.2,7.4,7.3s7.8-4.5,8.3-7.2L75.1,22L65.6,25.2z"/>
		<path class="st8" d="M73.3,32.8c-0.1,0-0.1,0-0.2,0c-5.8-0.1-7.7-7.4-7.7-7.5l-0.1-0.2l9.9-3.4l6.4,3.4v0.2
			C80.9,28.9,78.3,32.8,73.3,32.8z M65.9,25.4c0.4,1.2,2.3,6.8,7.1,6.9c0.1,0,0.1,0,0.2,0c5.9,0,7.5-5.4,7.9-6.9l-5.9-3.2L65.9,25.4
			z"/>
		<path class="st7" d="M81.4,25.2c0,0,1.8,7.2,7.4,7.3c5.6,0.1,7.8-4.5,8.3-7.2L91,22L81.4,25.2z"/>
		<path class="st8" d="M89,32.8c-0.1,0-0.1,0-0.2,0c-5.8-0.1-7.7-7.4-7.7-7.5L81,25.1l9.9-3.4l6.4,3.4v0.2
			C96.7,28.9,94.1,32.8,89,32.8z M81.7,25.4c0.4,1.2,2.3,6.8,7.1,6.9c0.1,0,0.1,0,0.2,0c5.9,0,7.5-5.4,7.9-6.9L91,22.2L81.7,25.4z"
			/>
		<path class="st7" d="M97.2,25.2c0,0,1.8,7.2,7.4,7.3s7.8-4.5,8.3-7.2l-6.2-3.3L97.2,25.2z"/>
		<path class="st8" d="M104.8,32.8c-0.1,0-0.1,0-0.2,0c-5.8-0.1-7.7-7.4-7.7-7.5l-0.1-0.2l9.9-3.4l6.4,3.4v0.2
			C112.4,28.9,109.8,32.8,104.8,32.8z M97.5,25.4c0.4,1.2,2.3,6.8,7.1,6.9c0.1,0,0.1,0,0.2,0c5.9,0,7.5-5.4,7.9-6.9l-5.9-3.2
			L97.5,25.4z"/>
		<path class="st7" d="M112.9,25.2c0,0,1.8,7.2,7.4,7.3c5.6,0.1,7.8-4.5,8.3-7.2l-6.2-3.3L112.9,25.2z"/>
		<path class="st8" d="M120.6,32.8c-0.1,0-0.1,0-0.2,0c-5.8-0.1-7.7-7.4-7.7-7.5l-0.1-0.2l9.9-3.4l6.5,3.4v0.2
			C128.2,28.9,125.6,32.8,120.6,32.8z M113.2,25.4c0.4,1.2,2.3,6.8,7.1,6.9c0.1,0,0.1,0,0.2,0c5.9,0,7.5-5.4,7.9-6.9l-5.9-3.2
			L113.2,25.4z"/>
		<path class="st7" d="M128.7,25.2c0,0,1.8,7.2,7.4,7.3c5.6,0.1,7.8-4.5,8.3-7.2l-6.2-3.3L128.7,25.2z"/>
		<path class="st8" d="M136.3,32.8c-0.1,0-0.1,0-0.2,0c-5.8-0.1-7.7-7.4-7.7-7.5l-0.1-0.2l9.9-3.4l6.5,3.4v0.2
			C144,28.9,141.4,32.8,136.3,32.8z M129,25.4c0.4,1.2,2.3,6.8,7.1,6.9c0.1,0,0.1,0,0.2,0c5.9,0,7.5-5.4,7.9-6.9l-5.9-3.2L129,25.4z
			"/>
		<path class="st7" d="M144.5,25.2c0,0,1.8,7.2,7.4,7.3c5.6,0.1,7.8-4.5,8.3-7.2L154,22L144.5,25.2z"/>
		<path class="st8" d="M152.1,32.8c-0.1,0-0.1,0-0.2,0c-5.8-0.1-7.7-7.4-7.7-7.5l-0.1-0.2l9.9-3.4l6.5,3.4v0.2
			C159.7,28.9,157.1,32.8,152.1,32.8z M144.8,25.4c0.4,1.2,2.3,6.8,7.1,6.9c0.1,0,0.1,0,0.2,0c5.9,0,7.5-5.4,7.9-6.9l-5.9-3.2
			L144.8,25.4z"/>
		<path class="st7" d="M42,20c0,0,1.8,7.2,7.4,7.3c5.6,0.1,7.8-4.5,8.3-7.2l-6.2-3.3L42,20z"/>
		<path class="st8" d="M49.6,27.5c-0.1,0-0.1,0-0.2,0c-5.8-0.1-7.7-7.4-7.7-7.5l-0.1-0.2l9.9-3.4l6.5,3.4V20
			C57.2,23.7,54.7,27.5,49.6,27.5z M42.3,20.1c0.4,1.2,2.3,6.8,7.1,6.9c0.1,0,0.1,0,0.2,0c5.9,0,7.5-5.4,7.9-6.9l-5.9-3.2L42.3,20.1
			z"/>
		<path class="st7" d="M57.7,20c0,0,1.8,7.2,7.4,7.3c5.6,0.1,7.8-4.5,8.3-7.2l-6.2-3.3L57.7,20z"/>
		<path class="st8" d="M65.4,27.5c-0.1,0-0.1,0-0.2,0c-5.8-0.1-7.7-7.4-7.7-7.5l-0.1-0.2l9.9-3.4l6.5,3.4V20
			C73,23.7,70.4,27.5,65.4,27.5z M58,20.1c0.4,1.2,2.3,6.8,7.1,6.9c0.1,0,0.1,0,0.2,0c5.9,0,7.5-5.4,7.9-6.9l-5.9-3.2L58,20.1z"/>
		<path class="st7" d="M73.5,20c0,0,1.8,7.2,7.4,7.3c5.6,0.1,7.8-4.5,8.3-7.2L83,16.8L73.5,20z"/>
		<path class="st8" d="M81.1,27.5c-0.1,0-0.1,0-0.2,0c-5.8-0.1-7.7-7.4-7.7-7.5l-0.1-0.2l9.9-3.4l6.4,3.4V20
			C88.8,23.7,86.2,27.5,81.1,27.5z M73.8,20.1c0.4,1.2,2.3,6.8,7.1,6.9c0.1,0,0.1,0,0.2,0c5.9,0,7.5-5.4,7.9-6.9l-5.9-3.2L73.8,20.1
			z"/>
		<path class="st7" d="M89.3,20c0,0,1.8,7.2,7.4,7.3c5.6,0.1,7.8-4.5,8.3-7.2l-6.2-3.3L89.3,20z"/>
		<path class="st8" d="M96.9,27.5c-0.1,0-0.1,0-0.2,0C90.9,27.4,89,20.1,89,20l-0.1-0.2l9.9-3.4l6.4,3.4V20
			C104.5,23.7,102,27.5,96.9,27.5z M89.6,20.1c0.4,1.2,2.3,6.8,7.1,6.9c0.1,0,0.1,0,0.2,0c5.9,0,7.5-5.4,7.9-6.9l-5.9-3.2L89.6,20.1
			z"/>
		<path class="st7" d="M105,20c0,0,1.8,7.2,7.4,7.3c5.6,0.1,7.8-4.5,8.3-7.2l-6.2-3.3L105,20z"/>
		<path class="st8" d="M112.7,27.5c-0.1,0-0.1,0-0.2,0c-5.8-0.1-7.7-7.4-7.7-7.5l-0.1-0.2l9.9-3.4l6.4,3.4V20
			C120.3,23.7,117.7,27.5,112.7,27.5z M105.3,20.1c0.4,1.2,2.3,6.8,7.1,6.9c0.1,0,0.1,0,0.2,0c5.9,0,7.5-5.4,7.9-6.9l-5.9-3.2
			L105.3,20.1z"/>
		<path class="st7" d="M120.8,20c0,0,1.8,7.2,7.4,7.3c5.6,0.1,7.8-4.5,8.3-7.2l-6.2-3.3L120.8,20z"/>
		<path class="st8" d="M128.4,27.5c-0.1,0-0.1,0-0.2,0c-5.8-0.1-7.7-7.4-7.7-7.5l-0.1-0.2l9.9-3.4l6.5,3.4V20
			C136.1,23.7,133.5,27.5,128.4,27.5z M121.1,20.1c0.4,1.2,2.3,6.8,7.1,6.9c0.1,0,0.1,0,0.2,0c5.9,0,7.5-5.4,7.9-6.9l-5.9-3.2
			L121.1,20.1z"/>
		<path class="st7" d="M136.6,20c0,0,1.8,7.2,7.4,7.3c5.6,0.1,7.8-4.5,8.3-7.2l-6.2-3.3L136.6,20z"/>
		<path class="st8" d="M144.2,27.5c-0.1,0-0.1,0-0.2,0c-5.8-0.1-7.7-7.4-7.7-7.5l-0.1-0.2l9.9-3.4l6.5,3.4V20
			C151.8,23.7,149.3,27.5,144.2,27.5z M136.9,20.1c0.4,1.2,2.3,6.8,7.1,6.9c0.1,0,0.1,0,0.2,0c5.9,0,7.5-5.4,7.9-6.9l-5.9-3.2
			L136.9,20.1z"/>
		<path class="st7" d="M152.3,20c0,0,1.8,7.2,7.4,7.3c5.6,0.1,7.8-4.5,8.3-7.2l-6.2-3.3L152.3,20z"/>
		<path class="st8" d="M160,27.5c-0.1,0-0.1,0-0.2,0c-5.8-0.1-7.7-7.4-7.7-7.5l-0.1-0.2l9.9-3.4l6.5,3.4V20
			C167.6,23.7,165,27.5,160,27.5z M152.6,20.1c0.4,1.2,2.3,6.8,7.1,6.9c0.1,0,0.1,0,0.2,0c5.9,0,7.5-5.4,7.9-6.9l-5.9-3.2
			L152.6,20.1z"/>
		<path class="st7" d="M34.1,14.7c0,0,1.8,7.2,7.4,7.3s7.8-4.5,8.3-7.2l-6.2-3.3L34.1,14.7z"/>
		<path class="st8" d="M41.7,22.2c-0.1,0-0.1,0-0.2,0c-5.8-0.1-7.7-7.4-7.7-7.5l-0.1-0.2l9.9-3.4l6.5,3.4v0.2
			C49.4,18.4,46.8,22.2,41.7,22.2z M34.4,14.9c0.4,1.2,2.3,6.8,7.1,6.9c6.1,0.1,7.7-5.3,8-6.9l-5.9-3.2L34.4,14.9z"/>
		<path class="st7" d="M49.9,14.7c0,0,1.8,7.2,7.4,7.3s7.8-4.5,8.3-7.2l-6.2-3.3L49.9,14.7z"/>
		<path class="st8" d="M57.5,22.2c-0.1,0-0.1,0-0.2,0c-5.8-0.1-7.7-7.4-7.7-7.5l-0.1-0.2l9.9-3.4l6.5,3.4v0.2
			C65.1,18.4,62.5,22.2,57.5,22.2z M50.2,14.9c0.4,1.2,2.3,6.8,7.1,6.9c6.1,0.1,7.7-5.3,8-6.9l-5.9-3.2L50.2,14.9z"/>
		<path class="st7" d="M65.6,14.7c0,0,1.8,7.2,7.4,7.3s7.8-4.5,8.3-7.2l-6.2-3.3L65.6,14.7z"/>
		<path class="st8" d="M73.3,22.2c-0.1,0-0.1,0-0.2,0c-5.8-0.1-7.7-7.4-7.7-7.5l-0.1-0.2l9.9-3.4l6.4,3.4v0.2
			C80.9,18.4,78.3,22.2,73.3,22.2z M65.9,14.9c0.4,1.2,2.3,6.8,7.1,6.9c0.1,0,0.1,0,0.2,0c5.9,0,7.5-5.4,7.9-6.9l-5.9-3.2L65.9,14.9
			z"/>
		<path class="st7" d="M81.4,14.7c0,0,1.8,7.2,7.4,7.3c5.6,0.1,7.8-4.5,8.3-7.2l-6.2-3.3L81.4,14.7z"/>
		<path class="st8" d="M89,22.2c-0.1,0-0.1,0-0.2,0c-5.8-0.1-7.7-7.4-7.7-7.5L81,14.5l9.9-3.4l6.4,3.4v0.2
			C96.7,18.4,94.1,22.2,89,22.2z M81.7,14.9c0.4,1.2,2.3,6.8,7.1,6.9c0.1,0,0.1,0,0.2,0c5.9,0,7.5-5.4,7.9-6.9L91,11.7L81.7,14.9z"
			/>
		<path class="st7" d="M97.2,14.7c0,0,1.8,7.2,7.4,7.3s7.8-4.5,8.3-7.2l-6.2-3.3L97.2,14.7z"/>
		<path class="st8" d="M104.8,22.2c-0.1,0-0.1,0-0.2,0c-5.8-0.1-7.7-7.4-7.7-7.5l-0.1-0.2l9.9-3.4l6.4,3.4v0.2
			C112.4,18.4,109.8,22.2,104.8,22.2z M97.5,14.9c0.4,1.2,2.3,6.8,7.1,6.9c0.1,0,0.1,0,0.2,0c5.9,0,7.5-5.4,7.9-6.9l-5.9-3.2
			L97.5,14.9z"/>
		<path class="st7" d="M112.9,14.7c0,0,1.8,7.2,7.4,7.3c5.6,0.1,7.8-4.5,8.3-7.2l-6.2-3.3L112.9,14.7z"/>
		<path class="st8" d="M120.6,22.2c-0.1,0-0.1,0-0.2,0c-5.8-0.1-7.7-7.4-7.7-7.5l-0.1-0.2l9.9-3.4l6.5,3.4v0.2
			C128.2,18.4,125.6,22.2,120.6,22.2z M113.2,14.9c0.4,1.2,2.3,6.8,7.1,6.9c0.1,0,0.1,0,0.2,0c5.9,0,7.5-5.4,7.9-6.9l-5.9-3.2
			L113.2,14.9z"/>
		<path class="st7" d="M128.7,14.7c0,0,1.8,7.2,7.4,7.3c5.6,0.1,7.8-4.5,8.3-7.2l-6.2-3.3L128.7,14.7z"/>
		<path class="st8" d="M136.3,22.2c-0.1,0-0.1,0-0.2,0c-5.8-0.1-7.7-7.4-7.7-7.5l-0.1-0.2l9.9-3.4l6.5,3.4v0.2
			C144,18.4,141.4,22.2,136.3,22.2z M129,14.9c0.4,1.2,2.3,6.8,7.1,6.9c0.1,0,0.1,0,0.2,0c5.9,0,7.5-5.4,7.9-6.9l-5.9-3.2L129,14.9z
			"/>
		<path class="st7" d="M144.5,14.7c0,0,1.8,7.2,7.4,7.3c5.6,0.1,7.8-4.5,8.3-7.2l-6.2-3.3L144.5,14.7z"/>
		<path class="st8" d="M152.1,22.2c-0.1,0-0.1,0-0.2,0c-5.8-0.1-7.7-7.4-7.7-7.5l-0.1-0.2l9.9-3.4l6.5,3.4v0.2
			C159.7,18.4,157.1,22.2,152.1,22.2z M144.8,14.9c0.4,1.2,2.3,6.8,7.1,6.9c0.1,0,0.1,0,0.2,0c5.9,0,7.5-5.4,7.9-6.9l-5.9-3.2
			L144.8,14.9z"/>
		<path class="st7" d="M42,9.5c0,0,1.8,7.2,7.4,7.3c5.6,0.1,7.8-4.5,8.3-7.2l-6.2-3.3L42,9.5z"/>
		<path class="st8" d="M49.6,17c-0.1,0-0.1,0-0.2,0c-5.8-0.1-7.7-7.4-7.7-7.5l-0.1-0.2l9.9-3.4L58,9.3v0.2
			C57.2,13.1,54.7,17,49.6,17z M42.3,9.6c0.4,1.2,2.3,6.8,7.1,6.9c6,0.1,7.7-5.3,8-6.9l-5.9-3.2L42.3,9.6z"/>
		<path class="st7" d="M57.7,9.5c0,0,1.8,7.2,7.4,7.3c5.6,0.1,7.8-4.5,8.3-7.2l-6.2-3.3L57.7,9.5z"/>
		<path class="st8" d="M65.4,17c-0.1,0-0.1,0-0.2,0c-5.8-0.1-7.7-7.4-7.7-7.5l-0.1-0.2l9.9-3.4l6.5,3.4v0.2C73,13.1,70.4,17,65.4,17
			z M58,9.6c0.4,1.2,2.3,6.8,7.1,6.9c0.1,0,0.1,0,0.2,0c5.9,0,7.5-5.4,7.9-6.9l-5.9-3.2L58,9.6z"/>
		<path class="st7" d="M73.5,9.5c0,0,1.8,7.2,7.4,7.3c5.6,0.1,7.8-4.5,8.3-7.2L83,6.3L73.5,9.5z"/>
		<path class="st8" d="M81.1,17c-0.1,0-0.1,0-0.2,0c-5.8-0.1-7.7-7.4-7.7-7.5l-0.1-0.2L83,5.9l6.4,3.4v0.2
			C88.8,13.1,86.2,17,81.1,17z M73.8,9.6c0.4,1.2,2.3,6.8,7.1,6.9c0.1,0,0.1,0,0.2,0c5.9,0,7.5-5.4,7.9-6.9l-5.9-3.2L73.8,9.6z"/>
		<path class="st7" d="M89.3,9.5c0,0,1.8,7.2,7.4,7.3c5.6,0.1,7.8-4.5,8.3-7.2l-6.2-3.3L89.3,9.5z"/>
		<path class="st8" d="M96.9,17c-0.1,0-0.1,0-0.2,0C90.9,16.9,89,9.6,89,9.5l-0.1-0.2l9.9-3.4l6.4,3.4v0.2
			C104.5,13.1,102,17,96.9,17z M89.6,9.6c0.4,1.2,2.3,6.8,7.1,6.9c0.1,0,0.1,0,0.2,0c5.9,0,7.5-5.4,7.9-6.9l-5.9-3.2L89.6,9.6z"/>
		<path class="st7" d="M105,9.5c0,0,1.8,7.2,7.4,7.3c5.6,0.1,7.8-4.5,8.3-7.2l-6.2-3.3L105,9.5z"/>
		<path class="st8" d="M112.7,17c-0.1,0-0.1,0-0.2,0c-5.8-0.1-7.7-7.4-7.7-7.5l-0.1-0.2l9.9-3.4l6.4,3.4v0.2
			C120.3,13.1,117.7,17,112.7,17z M105.3,9.6c0.4,1.2,2.3,6.8,7.1,6.9c0.1,0,0.1,0,0.2,0c5.9,0,7.5-5.4,7.9-6.9l-5.9-3.2L105.3,9.6z
			"/>
		<path class="st7" d="M120.8,9.5c0,0,1.8,7.2,7.4,7.3c5.6,0.1,7.8-4.5,8.3-7.2l-6.2-3.3L120.8,9.5z"/>
		<path class="st8" d="M128.4,17c-0.1,0-0.1,0-0.2,0c-5.8-0.1-7.7-7.4-7.7-7.5l-0.1-0.2l9.9-3.4l6.5,3.4v0.2
			C136.1,13.1,133.5,17,128.4,17z M121.1,9.6c0.4,1.2,2.3,6.8,7.1,6.9c0.1,0,0.1,0,0.2,0c5.9,0,7.5-5.4,7.9-6.9l-5.9-3.2L121.1,9.6z
			"/>
		<path class="st7" d="M136.6,9.5c0,0,1.8,7.2,7.4,7.3c5.6,0.1,7.8-4.5,8.3-7.2l-6.2-3.3L136.6,9.5z"/>
		<path class="st8" d="M144.2,17c-0.1,0-0.1,0-0.2,0c-5.8-0.1-7.7-7.4-7.7-7.5l-0.1-0.2l9.9-3.4l6.5,3.4v0.2
			C151.8,13.1,149.3,17,144.2,17z M136.9,9.6c0.4,1.2,2.3,6.8,7.1,6.9c0.1,0,0.1,0,0.2,0c5.9,0,7.5-5.4,7.9-6.9l-5.9-3.2L136.9,9.6z
			"/>
		<path class="st7" d="M152.3,9.5c0,0,1.8,7.2,7.4,7.3c5.6,0.1,7.8-4.5,8.3-7.2l-6.2-3.3L152.3,9.5z"/>
		<path class="st8" d="M160,17c-0.1,0-0.1,0-0.2,0c-5.8-0.1-7.7-7.4-7.7-7.5L152,9.3l9.9-3.4l6.5,3.4v0.2C167.6,13.1,165,17,160,17z
			 M152.6,9.6c0.4,1.2,2.3,6.8,7.1,6.9c0.1,0,0.1,0,0.2,0c5.9,0,7.5-5.4,7.9-6.9l-5.9-3.2L152.6,9.6z"/>
		<path class="st7" d="M34.1,4.2c0,0,1.8,7.2,7.4,7.3s7.8-4.5,8.3-7.2L43.6,1L34.1,4.2z"/>
		<path class="st8" d="M41.7,11.7c-0.1,0-0.1,0-0.2,0c-5.8-0.1-7.7-7.4-7.7-7.5L33.7,4l9.9-3.4L50.1,4v0.2
			C49.4,7.9,46.8,11.7,41.7,11.7z M34.4,4.3c0.4,1.2,2.3,6.8,7.1,6.9c0.1,0,0.1,0,0.2,0c5.9,0,7.5-5.4,7.9-6.9l-5.9-3.2L34.4,4.3z"
			/>
		<path class="st7" d="M49.9,4.2c0,0,1.8,7.2,7.4,7.3s7.8-4.5,8.3-7.2L59.4,1L49.9,4.2z"/>
		<path class="st8" d="M57.5,11.7c-0.1,0-0.1,0-0.2,0c-5.8-0.1-7.7-7.4-7.7-7.5L49.5,4l9.9-3.4L65.9,4v0.2
			C65.1,7.9,62.5,11.7,57.5,11.7z M50.2,4.3c0.4,1.2,2.3,6.8,7.1,6.9c0.1,0,0.1,0,0.2,0c5.9,0,7.5-5.4,7.9-6.9l-5.9-3.2L50.2,4.3z"
			/>
		<path class="st7" d="M65.6,4.2c0,0,1.8,7.2,7.4,7.3s7.8-4.5,8.3-7.2L75.1,1L65.6,4.2z"/>
		<path class="st8" d="M73.3,11.7c-0.1,0-0.1,0-0.2,0c-5.8-0.1-7.7-7.4-7.7-7.5L65.3,4l9.9-3.4L81.6,4v0.2
			C80.9,7.9,78.3,11.7,73.3,11.7z M65.9,4.3c0.4,1.2,2.3,6.8,7.1,6.9c0.1,0,0.1,0,0.2,0c5.9,0,7.5-5.4,7.9-6.9l-5.9-3.2L65.9,4.3z"
			/>
		<path class="st7" d="M81.4,4.2c0,0,1.8,7.2,7.4,7.3c5.6,0.1,7.8-4.5,8.3-7.2L90.9,1L81.4,4.2z"/>
		<path class="st8" d="M89,11.7c-0.1,0-0.1,0-0.2,0c-5.8-0.1-7.7-7.4-7.7-7.5L81,4l9.9-3.4L97.3,4v0.2C96.7,7.9,94.1,11.7,89,11.7z
			 M81.7,4.3c0.4,1.2,2.3,6.8,7.1,6.9c0.1,0,0.1,0,0.2,0c5.9,0,7.5-5.4,7.9-6.9L91,1.1L81.7,4.3z"/>
		<path class="st7" d="M97.2,4.2c0,0,1.8,7.2,7.4,7.3s7.8-4.5,8.3-7.2L106.7,1L97.2,4.2z"/>
		<path class="st8" d="M104.8,11.7c-0.1,0-0.1,0-0.2,0c-5.8-0.1-7.7-7.4-7.7-7.5L96.8,4l9.9-3.4l6.4,3.4v0.2
			C112.4,7.9,109.8,11.7,104.8,11.7z M97.5,4.3c0.4,1.2,2.3,6.8,7.1,6.9c0.1,0,0.1,0,0.2,0c5.9,0,7.5-5.4,7.9-6.9l-5.9-3.2L97.5,4.3
			z"/>
		<path class="st7" d="M112.9,4.2c0,0,1.8,7.2,7.4,7.3c5.6,0.1,7.8-4.5,8.3-7.2L122.4,1L112.9,4.2z"/>
		<path class="st8" d="M120.6,11.7c-0.1,0-0.1,0-0.2,0c-5.8-0.1-7.7-7.4-7.7-7.5L112.6,4l9.9-3.4L129,4v0.2
			C128.2,7.9,125.6,11.7,120.6,11.7z M113.2,4.3c0.4,1.2,2.3,6.8,7.1,6.9c0.1,0,0.1,0,0.2,0c5.9,0,7.5-5.4,7.9-6.9l-5.9-3.2
			L113.2,4.3z"/>
		<path class="st7" d="M128.7,4.2c0,0,1.8,7.2,7.4,7.3c5.6,0.1,7.8-4.5,8.3-7.2L138.2,1L128.7,4.2z"/>
		<path class="st8" d="M136.3,11.7c-0.1,0-0.1,0-0.2,0c-5.8-0.1-7.7-7.4-7.7-7.5L128.3,4l9.9-3.4l6.5,3.4v0.2
			C144,7.9,141.4,11.7,136.3,11.7z M129,4.3c0.4,1.2,2.3,6.8,7.1,6.9c0.1,0,0.1,0,0.2,0c5.9,0,7.5-5.4,7.9-6.9l-5.9-3.2L129,4.3z"/>
		<path class="st7" d="M144.5,4.2c0,0,1.8,7.2,7.4,7.3c5.6,0.1,7.8-4.5,8.3-7.2L154,1L144.5,4.2z"/>
		<path class="st8" d="M152.1,11.7c-0.1,0-0.1,0-0.2,0c-5.8-0.1-7.7-7.4-7.7-7.5L144.1,4l9.9-3.4l6.5,3.4v0.2
			C159.7,7.9,157.1,11.7,152.1,11.7z M144.8,4.3c0.4,1.2,2.3,6.8,7.1,6.9c0.1,0,0.1,0,0.2,0c5.9,0,7.5-5.4,7.9-6.9l-5.9-3.2
			L144.8,4.3z"/>
		<path class="st7" d="M42-1.1c0,0,1.8,7.2,7.4,7.3C55,6.3,57.2,1.7,57.7-1l-6.2-3.3L42-1.1z"/>
		<path class="st8" d="M49.6,6.4c-0.1,0-0.1,0-0.2,0c-5.8-0.1-7.7-7.4-7.7-7.5l-0.1-0.2l9.9-3.4L58-1.3v0.2
			C57.2,2.6,54.7,6.4,49.6,6.4z M42.3-0.9c0.4,1.2,2.3,6.8,7.1,6.9c0.1,0,0.1,0,0.2,0c5.9,0,7.5-5.4,7.9-6.9l-5.9-3.2L42.3-0.9z"/>
		<path class="st7" d="M57.7-1.1c0,0,1.8,7.2,7.4,7.3c5.6,0.1,7.8-4.5,8.3-7.2l-6.2-3.3L57.7-1.1z"/>
		<path class="st8" d="M65.4,6.4c-0.1,0-0.1,0-0.2,0c-5.8-0.1-7.7-7.4-7.7-7.5l-0.1-0.2l9.9-3.4l6.5,3.4v0.2
			C73,2.6,70.4,6.4,65.4,6.4z M58-0.9c0.4,1.2,2.3,6.8,7.1,6.9c0.1,0,0.1,0,0.2,0c5.9,0,7.5-5.4,7.9-6.9l-5.9-3.2L58-0.9z"/>
		<path class="st7" d="M73.5-1.1c0,0,1.8,7.2,7.4,7.3c5.6,0.1,7.8-4.5,8.3-7.2L83-4.3L73.5-1.1z"/>
		<path class="st8" d="M81.1,6.4c-0.1,0-0.1,0-0.2,0c-5.8-0.1-7.7-7.4-7.7-7.5l-0.1-0.2L83-4.7l6.4,3.4v0.2
			C88.8,2.6,86.2,6.4,81.1,6.4z M73.8-0.9c0.4,1.2,2.3,6.8,7.1,6.9C81,6,81,6,81.1,6C87,6,88.6,0.6,89-0.9l-5.9-3.2L73.8-0.9z"/>
		<path class="st7" d="M89.3-1.1c0,0,1.8,7.2,7.4,7.3c5.6,0.1,7.8-4.5,8.3-7.2l-6.2-3.3L89.3-1.1z"/>
		<path class="st8" d="M96.9,6.4c-0.1,0-0.1,0-0.2,0C90.9,6.3,89-1,89-1.1l-0.1-0.2l9.9-3.4l6.4,3.4v0.2C104.5,2.6,102,6.4,96.9,6.4
			z M89.6-0.9C90,0.3,91.9,5.9,96.7,6c0.1,0,0.1,0,0.2,0c5.9,0,7.5-5.4,7.9-6.9l-5.9-3.2L89.6-0.9z"/>
		<path class="st7" d="M105-1.1c0,0,1.8,7.2,7.4,7.3c5.6,0.1,7.8-4.5,8.3-7.2l-6.2-3.3L105-1.1z"/>
		<path class="st8" d="M112.7,6.4c-0.1,0-0.1,0-0.2,0c-5.8-0.1-7.7-7.4-7.7-7.5l-0.1-0.2l9.9-3.4l6.4,3.4v0.2
			C120.3,2.6,117.7,6.4,112.7,6.4z M105.3-0.9c0.4,1.2,2.3,6.8,7.1,6.9c0.1,0,0.1,0,0.2,0c5.9,0,7.5-5.4,7.9-6.9l-5.9-3.2L105.3-0.9
			z"/>
		<path class="st7" d="M120.8-1.1c0,0,1.8,7.2,7.4,7.3c5.6,0.1,7.8-4.5,8.3-7.2l-6.2-3.3L120.8-1.1z"/>
		<path class="st8" d="M128.4,6.4c-0.1,0-0.1,0-0.2,0c-5.8-0.1-7.7-7.4-7.7-7.5l-0.1-0.2l9.9-3.4l6.5,3.4v0.2
			C136.1,2.6,133.5,6.4,128.4,6.4z M121.1-0.9c0.4,1.2,2.3,6.8,7.1,6.9c0.1,0,0.1,0,0.2,0c5.9,0,7.5-5.4,7.9-6.9l-5.9-3.2L121.1-0.9
			z"/>
		<path class="st7" d="M136.6-1.1c0,0,1.8,7.2,7.4,7.3c5.6,0.1,7.8-4.5,8.3-7.2l-6.2-3.3L136.6-1.1z"/>
		<path class="st8" d="M144.2,6.4c-0.1,0-0.1,0-0.2,0c-5.8-0.1-7.7-7.4-7.7-7.5l-0.1-0.2l9.9-3.4l6.5,3.4v0.2
			C151.8,2.6,149.3,6.4,144.2,6.4z M136.9-0.9c0.4,1.2,2.3,6.8,7.1,6.9c0.1,0,0.1,0,0.2,0c5.9,0,7.5-5.4,7.9-6.9l-5.9-3.2L136.9-0.9
			z"/>
		<path class="st7" d="M152.3-1.1c0,0,1.8,7.2,7.4,7.3c5.6,0.1,7.8-4.5,8.3-7.2l-6.2-3.3L152.3-1.1z"/>
		<path class="st8" d="M160,6.4c-0.1,0-0.1,0-0.2,0c-5.8-0.1-7.7-7.4-7.7-7.5L152-1.3l9.9-3.4l6.5,3.4v0.2
			C167.6,2.6,165,6.4,160,6.4z M152.6-0.9c0.4,1.2,2.3,6.8,7.1,6.9c0.1,0,0.1,0,0.2,0c5.9,0,7.5-5.4,7.9-6.9l-5.9-3.2L152.6-0.9z"/>
		<path class="st7" d="M34.1-6.3c0,0,1.8,7.2,7.4,7.3s7.8-4.5,8.3-7.2l-6.2-3.3L34.1-6.3z"/>
		<path class="st8" d="M41.7,1.2c-0.1,0-0.1,0-0.2,0c-5.8-0.1-7.7-7.4-7.7-7.5l-0.1-0.2l9.9-3.4l6.5,3.4v0.2
			C49.4-2.6,46.8,1.2,41.7,1.2z M34.4-6.2c0.4,1.2,2.3,6.8,7.1,6.9c0.1,0,0.1,0,0.2,0c5.9,0,7.5-5.4,7.9-6.9l-5.9-3.2L34.4-6.2z"/>
		<path class="st7" d="M49.9-6.3c0,0,1.8,7.2,7.4,7.3s7.8-4.5,8.3-7.2l-6.2-3.3L49.9-6.3z"/>
		<path class="st8" d="M57.5,1.2c-0.1,0-0.1,0-0.2,0c-5.8-0.1-7.7-7.4-7.7-7.5l-0.1-0.2l9.9-3.4l6.5,3.4v0.2
			C65.1-2.6,62.5,1.2,57.5,1.2z M50.2-6.2c0.4,1.2,2.3,6.8,7.1,6.9c0.1,0,0.1,0,0.2,0c5.9,0,7.5-5.4,7.9-6.9l-5.9-3.2L50.2-6.2z"/>
		<path class="st7" d="M65.6-6.3c0,0,1.8,7.2,7.4,7.3s7.8-4.5,8.3-7.2l-6.2-3.3L65.6-6.3z"/>
		<path class="st8" d="M73.3,1.2c-0.1,0-0.1,0-0.2,0c-5.8-0.1-7.7-7.4-7.7-7.5l-0.1-0.2l9.9-3.4l6.4,3.4v0.2
			C80.9-2.6,78.3,1.2,73.3,1.2z M65.9-6.2C66.3-5,68.2,0.6,73,0.7c0.1,0,0.1,0,0.2,0c5.9,0,7.5-5.4,7.9-6.9l-5.9-3.2L65.9-6.2z"/>
		<path class="st7" d="M81.4-6.3c0,0,1.8,7.2,7.4,7.3c5.6,0.1,7.8-4.5,8.3-7.2l-6.2-3.3L81.4-6.3z"/>
		<path class="st8" d="M89,1.2c-0.1,0-0.1,0-0.2,0c-5.8-0.1-7.7-7.4-7.7-7.5L81-6.5l9.9-3.4l6.4,3.4v0.2C96.7-2.6,94.1,1.2,89,1.2z
			 M81.7-6.2C82.1-5,84,0.6,88.8,0.7c0.1,0,0.1,0,0.2,0c5.9,0,7.5-5.4,7.9-6.9L91-9.4L81.7-6.2z"/>
		<path class="st7" d="M97.2-6.3c0,0,1.8,7.2,7.4,7.3s7.8-4.5,8.3-7.2l-6.2-3.3L97.2-6.3z"/>
		<path class="st8" d="M104.8,1.2c-0.1,0-0.1,0-0.2,0c-5.8-0.1-7.7-7.4-7.7-7.5l-0.1-0.2l9.9-3.4l6.4,3.4v0.2
			C112.4-2.6,109.8,1.2,104.8,1.2z M97.5-6.2c0.4,1.2,2.3,6.8,7.1,6.9c0.1,0,0.1,0,0.2,0c5.9,0,7.5-5.4,7.9-6.9l-5.9-3.2L97.5-6.2z"
			/>
		<path class="st7" d="M112.9-6.3c0,0,1.8,7.2,7.4,7.3c5.6,0.1,7.8-4.5,8.3-7.2l-6.2-3.3L112.9-6.3z"/>
		<path class="st8" d="M120.6,1.2c-0.1,0-0.1,0-0.2,0c-5.8-0.1-7.7-7.4-7.7-7.5l-0.1-0.2l9.9-3.4l6.5,3.4v0.2
			C128.2-2.6,125.6,1.2,120.6,1.2z M113.2-6.2c0.4,1.2,2.3,6.8,7.1,6.9c0.1,0,0.1,0,0.2,0c5.9,0,7.5-5.4,7.9-6.9l-5.9-3.2L113.2-6.2
			z"/>
		<path class="st7" d="M128.7-6.3c0,0,1.8,7.2,7.4,7.3c5.6,0.1,7.8-4.5,8.3-7.2l-6.2-3.3L128.7-6.3z"/>
		<path class="st8" d="M136.3,1.2c-0.1,0-0.1,0-0.2,0c-5.8-0.1-7.7-7.4-7.7-7.5l-0.1-0.2l9.9-3.4l6.5,3.4v0.2
			C144-2.6,141.4,1.2,136.3,1.2z M129-6.2c0.4,1.2,2.3,6.8,7.1,6.9c0.1,0,0.1,0,0.2,0c5.9,0,7.5-5.4,7.9-6.9l-5.9-3.2L129-6.2z"/>
		<path class="st7" d="M144.5-6.3c0,0,1.8,7.2,7.4,7.3c5.6,0.1,7.8-4.5,8.3-7.2L154-9.5L144.5-6.3z"/>
		<path class="st8" d="M152.1,1.2c-0.1,0-0.1,0-0.2,0c-5.8-0.1-7.7-7.4-7.7-7.5l-0.1-0.2l9.9-3.4l6.5,3.4v0.2
			C159.7-2.6,157.1,1.2,152.1,1.2z M144.8-6.2c0.4,1.2,2.3,6.8,7.1,6.9c0.1,0,0.1,0,0.2,0c5.9,0,7.5-5.4,7.9-6.9l-5.9-3.2L144.8-6.2
			z"/>
	</g>
</g>
<path class="st2" d="M64,100H23.2V40.4l20.4-20.2l20.4,23V100z"/>
<g class="st4">
	<g class="st4">
		<path class="st5" d="M23.1,42.3L44,20.2l20,23v3.9l-19.9-23L23.2,45.2V42"/>
	</g>
</g>
<path class="st3" d="M67.7,44.2L45.1,18.5c-0.5-0.6-1.5-0.6-2-0.1L17.8,44.2c-0.5,0.5-0.5,1.4,0,1.9s1.4,0.5,2,0l23.5-23.5
	c0.6-0.6,1.5-0.5,2,0.1L65.6,46c0.5,0.6,1.3,0.7,1.9,0.3C68.1,45.8,68.2,44.8,67.7,44.2z"/>
<path class="st9" d="M91.4,57.5H71.3v36h20.1V57.5z"/>
<path class="st10" d="M90,58.6H72.3v33.8H90V58.6z"/>
<path class="st11" d="M140.9,54.6h-27.3v22.7h27.3V54.6z"/>
<path class="st12" d="M121.1,66.6C121.1,66.6,121,66.6,121.1,66.6c-0.1-0.1-0.1-0.2-0.1-0.2l3-2.9c0,0,0.1,0,0.2,0c0,0,0,0.1,0,0.2
	L121.1,66.6C121.1,66.6,121.2,66.6,121.1,66.6z"/>
<path class="st12" d="M124.8,67.1C124.8,67.1,124.7,67.1,124.8,67.1c-0.1-0.1-0.1-0.2-0.1-0.2l3-2.9c0,0,0.1,0,0.2,0
	c0,0,0,0.1,0,0.2L124.8,67.1C124.8,67.1,124.9,67.1,124.8,67.1z"/>
<path class="st12" d="M119.7,69.6C119.7,69.6,119.6,69.6,119.7,69.6c-0.1-0.1-0.1-0.2-0.1-0.2l9.5-8.5c0.1,0,0.1,0,0.2,0
	c0,0.1,0,0.1,0,0.2L119.7,69.6C119.7,69.6,119.8,69.6,119.7,69.6z"/>
<path class="st12" d="M135,75.6C135,75.6,134.9,75.6,135,75.6c-0.1-0.1-0.1-0.2-0.1-0.2l3-2.9c0,0,0.1,0,0.2,0c0,0,0,0.1,0,0.2
	L135,75.6C135,75.6,135.1,75.6,135,75.6z"/>
<path class="st12" d="M130.3,74.8C130.3,74.8,130.3,74.7,130.3,74.8c-0.1-0.1-0.1-0.2-0.1-0.2l9.5-8.5c0.1,0,0.1,0,0.2,0
	c0,0.1,0,0.1,0,0.2L130.3,74.8C130.4,74.8,130.4,74.7,130.3,74.8z"/>
<path class="st13" d="M122.6,54.6h-0.9v22.7h0.9V54.6z"/>
<path class="st13" d="M132.7,54.6h-0.9v22.7h0.9V54.6z"/>
<path class="st14" d="M141.7,79.5h-29c-0.4,0-0.8-0.4-0.8-0.8V78c0-0.4,0.4-0.8,0.8-0.8h29c0.4,0,0.8,0.4,0.8,0.8v0.7
	C142.5,79.2,142.2,79.5,141.7,79.5z"/>
<path class="st13" d="M140.9,65.6h-27.3v0.8h27.3V65.6z"/>
<path class="st15" d="M104.4,47.1h-3.3v48.7h3.3V47.1z"/>
<path class="st15" d="M153.3,47.1H150v48.7h3.3V47.1z"/>
<path class="st15" d="M151.7,82h-48.9v2.5h48.9V82z"/>
<path class="st15" d="M110.4,83.2h-1.9v13.3h1.9V83.2z"/>
<path class="st15" d="M119.3,83.2h-1.9v13.3h1.9V83.2z"/>
<path class="st15" d="M128.1,83.2h-1.9v13.3h1.9V83.2z"/>
<path class="st15" d="M137,83.2h-1.9v13.3h1.9V83.2z"/>
<path class="st15" d="M145.9,83.2H144v13.3h1.9V83.2z"/>
<path class="st16" d="M157.7,95.9h-59v4.2h59V95.9z"/>
<path class="st1" d="M36.4,45.6c0-5.2,3.2-9.5,7.2-9.5s7.2,4.2,7.2,9.5"/>
<path class="st16" d="M51.3,45.6h-1c0-5-3-9-6.7-9c-3.7,0-6.7,4-6.7,9h-1c0-5.5,3.5-10,7.7-10C47.9,35.7,51.3,40.1,51.3,45.6z"/>
<path class="st15" d="M105.7,49.1h-5.9c-0.6,0-1-0.4-1-1c0-0.6,0.4-1,1-1h5.9c0.6,0,1,0.4,1,1C106.7,48.7,106.3,49.1,105.7,49.1z"/>
<path class="st15" d="M154.6,49.1h-5.9c-0.6,0-1-0.4-1-1c0-0.6,0.4-1,1-1h5.9c0.6,0,1,0.4,1,1C155.6,48.7,155.2,49.1,154.6,49.1z"/>
<path class="st15" d="M105.7,95.9h-5.9c-0.6,0-1-0.4-1-1c0-0.6,0.4-1,1-1h5.9c0.6,0,1,0.4,1,1C106.7,95.4,106.3,95.9,105.7,95.9z"/>
<path class="st15" d="M154.6,95.9h-5.9c-0.6,0-1-0.4-1-1c0-0.6,0.4-1,1-1h5.9c0.6,0,1,0.4,1,1C155.6,95.4,155.2,95.9,154.6,95.9z"/>
<path class="st7" d="M98.8,93.4H64v1.9h34.8V93.4z"/>
<path class="st17" d="M98.8,95.3H64v1.9h34.8V95.3z"/>
<path class="st18" d="M98.8,97.1H64V99h34.8V97.1z"/>
<path class="st17" d="M98.8,99H64v1.1h34.8V99z"/>
<path class="st19" d="M76,72.1C75.9,72.1,75.9,72.1,76,72.1C75.9,72,75.9,72,76,72.1l1.9-2H78v0.1L76,72.1z"/>
<path class="st19" d="M79.3,72.8c-0.1-0.1-0.1-0.1-0.1-0.1l2-1.9h0.1v0.1L79.3,72.8C79.4,72.8,79.4,72.8,79.3,72.8z"/>
<path class="st19" d="M78.3,88.7C78.2,88.7,78.2,88.7,78.3,88.7c-0.1-0.1-0.1-0.1-0.1-0.1l2-1.9h0.1v0.1L78.3,88.7z"/>
<path class="st19" d="M75.1,75C75.1,75,75,75,75.1,75C75,74.9,75,74.9,75.1,75l6.8-6.9H82v0.1L75.1,75z"/>
<g class="st20">
	<g class="st20">
		<path class="st21" d="M64,55.2H23.2v-5.4L64,49.7"/>
	</g>
</g>
<path class="st11" d="M54.3,63.5H33V90h21.3V63.5z"/>
<path class="st16" d="M64,54.6H23.1c-0.6,0-1.1-0.5-1.1-1.1v-3.3c0-0.6,0.5-1.1,1.1-1.1H64c0.6,0,1.1,0.5,1.1,1.1v3.3
	C65.1,54.1,64.7,54.6,64,54.6z"/>
<path class="st22" d="M27.4,58.6h-4.2v2.2h4.2V58.6z"/>
<path class="st22" d="M29.5,61.8h-4.2V64h4.2V61.8z"/>
<path class="st22" d="M60.7,96h-4.2v2.2h4.2V96z"/>
<path class="st22" d="M63.8,93.2h-4.2v2.2h4.2V93.2z"/>
<path class="st2" d="M86.3,51.2h-4.2v2.2h4.2V51.2z"/>
<path class="st2" d="M92.2,53.6H88v2.2h4.2V53.6z"/>
<path class="st2" d="M157.8,56.4h-2.1v2.2h2.1V56.4z"/>
<path class="st2" d="M157.8,87.6h-2.1v2.2h2.1V87.6z"/>
<path class="st22" d="M36.8,94.3h-4.2v2.2h4.2V94.3z"/>
<path class="st12" d="M39.4,77C39.4,77,39.3,77,39.4,77c-0.1-0.1-0.1-0.2-0.1-0.2l3-2.9c0,0,0.1,0,0.2,0c0,0,0,0.1,0,0.2L39.4,77z"
	/>
<path class="st12" d="M43.1,77.5C43,77.5,43,77.5,43.1,77.5C43,77.4,43,77.3,43,77.3l3-2.9c0,0,0.1,0,0.2,0c0,0,0,0.1,0,0.2
	L43.1,77.5z"/>
<path class="st12" d="M38,80C38,80,37.9,80,38,80c-0.1-0.1-0.1-0.2-0.1-0.2l9.5-8.5c0.1,0,0.1,0,0.2,0c0,0.1,0,0.1,0,0.2L38,80
	C38,80,38.1,80,38,80z"/>
<path class="st13" d="M44,63.5h-0.9v27.7H44V63.5z"/>
<path class="st13" d="M54.2,71.8H33v0.9h21.2V71.8z"/>
<path class="st13" d="M54.2,80.7H33v0.9h21.2V80.7z"/>
<path class="st14" d="M54,92.4H33.2c-0.7,0-1.3-0.6-1.3-1.3c0-0.7,0.6-1.3,1.3-1.3H54c0.7,0,1.3,0.6,1.3,1.3
	C55.2,91.9,54.7,92.4,54,92.4z"/>
<path class="st16" d="M51.8,47.4H35.4c-0.4,0-0.7-0.3-0.7-0.7V46c0-0.4,0.3-0.7,0.7-0.7h16.4c0.4,0,0.7,0.3,0.7,0.7v0.7
	C52.5,47,52.2,47.4,51.8,47.4z"/>
<path class="st23" d="M24.8,100h132.9l5.4,4H18L24.8,100z"/>
</svg>
