<svg width="130" height="125" viewBox="0 0 130 125" fill="none" xmlns="http://www.w3.org/2000/svg">
<path d="M34.6999 117C26.4999 120.5 16.5999 119.7 8.99989 115C4.69989 112.3 0.899894 107.9 0.699894 102.8C0.499894 97.7002 5.09989 92.4002 10.0999 93.4002C8.09989 89.9002 6.09989 86.3002 5.69989 82.3002C5.29989 78.3002 6.89989 73.8002 10.4999 72.0002C13.0999 70.7002 16.4999 71.0002 18.7999 72.9002C19.6999 66.1002 21.9999 59.2002 26.8999 54.5002C31.8999 49.8002 39.8999 48.0002 45.6999 51.6002C50.8999 54.9002 52.8999 61.3002 54.2999 67.3002C56.0999 75.0002 57.3999 82.9002 58.2999 90.8002C58.7999 95.5002 58.8999 100.9 55.3999 104.2" fill="#497C54"/>
<path d="M116.8 11.3H105V40.8H116.8V11.3Z" fill="#F37350"/>
<path d="M117.9 12.8001H104C103.2 12.8001 102.6 12.2001 102.6 11.4001V8.5001C102.6 7.7001 103.2 7.1001 104 7.1001H117.9C118.7 7.1001 119.3 7.7001 119.3 8.5001V11.4001C119.3 12.1001 118.6 12.8001 117.9 12.8001Z" fill="#C0584F"/>
<path d="M116.8 17.6001H105V18.7001H116.8V17.6001Z" fill="#C0584F"/>
<path d="M111.5 11.2002H110.4V18.2002H111.5V11.2002Z" fill="#C0584F"/>
<path d="M111.5 23.5H110.4V30.1H111.5V23.5Z" fill="#C0584F"/>
<path d="M116.8 23.5H105V24.6H116.8V23.5Z" fill="#C0584F"/>
<path d="M116.8 29.3H105V30.4001H116.8V29.3Z" fill="#C0584F"/>
<path d="M116.8 34.4001H105V35.5001H116.8V34.4001Z" fill="#C0584F"/>
<path d="M75.2999 3.90015L32.6999 46.3001V58.3001V114.1H122.7V58.3001V50.3001L75.2999 3.90015Z" fill="#F37350"/>
<g opacity="0.2">
<path opacity="0.2" d="M76.4999 1L32.6999 44.7V51.7L76.4999 10.2L122.7 54V49.6C123.9 49.6 124.4 48.2 123.6 47.4L76.4999 1Z" fill="#4C5777"/>
</g>
<path d="M126.3 114.1H29.1999V121.2H126.3V114.1Z" fill="#5A6A8C"/>
<path d="M78.7999 69H44.0999V97.8H78.7999V69Z" fill="#5CA09F"/>
<path d="M113.5 67.7H90.5999V114.1H113.5V67.7Z" fill="#85674D"/>
<path d="M111.6 70.7H92.3999V111.7H111.6V70.7Z" fill="#A68B6D"/>
<path d="M114.1 69.0001H89.9999C89.3999 69.0001 88.9999 68.6001 88.9999 68.0001V66.1001C88.9999 65.5001 89.3999 65.1001 89.9999 65.1001H114.1C114.7 65.1001 115.1 65.5001 115.1 66.1001V68.0001C115.1 68.6001 114.7 69.0001 114.1 69.0001Z" fill="#5A6A8C"/>
<path d="M74.4999 1.00005L27.4999 46.6C25.5999 48.4 26.8999 51.6 29.4999 51.6C30.2999 51.6 30.9999 51.3 31.4999 50.8L74.4999 10C75.5999 8.90005 77.3999 8.90005 78.4999 10L121.4 50.8C121.9 51.3 122.7 51.6 123.4 51.6C126 51.6 127.3 48.4 125.4 46.6L78.4999 1.00005C77.3999 -0.0999511 75.5999 -0.0999511 74.4999 1.00005Z" fill="#5A6A8C"/>
<path d="M45.4999 56.1001H37.7999V60.2001H45.4999V56.1001Z" fill="#C0584F"/>
<path d="M108.9 49.6001H101.2V53.7001H108.9V49.6001Z" fill="#C0584F"/>
<path d="M53.2999 52.1001H45.5999V56.2001H53.2999V52.1001Z" fill="#C0584F"/>
<path d="M38.9999 93.4001H32.6999V97.5001H38.9999V93.4001Z" fill="#C0584F"/>
<path d="M79.7999 67.7H43.0999V69H79.7999V67.7Z" fill="#5A6A8C"/>
<path d="M96.0999 87.0999C96.0999 87.0999 95.9999 87.0999 95.9999 86.9999C95.8999 86.8999 95.8999 86.7999 95.9999 86.6999L100.4 82.4C100.5 82.3 100.6 82.3 100.7 82.4C100.8 82.5 100.8 82.5999 100.7 82.6999L96.2999 86.9999C96.1999 87.0999 96.0999 87.0999 96.0999 87.0999Z" fill="#C4AA90"/>
<path d="M50.2999 80.6002C50.2999 80.6002 50.1999 80.6002 50.1999 80.5002C50.0999 80.4002 50.0999 80.3002 50.1999 80.2002L54.5999 75.9002C54.6999 75.8002 54.7999 75.8002 54.8999 75.9002C54.9999 76.0002 54.9999 76.1002 54.8999 76.2002L50.4999 80.5002C50.3999 80.6002 50.3999 80.6002 50.2999 80.6002Z" fill="#87CCC9"/>
<path d="M55.7999 81.3002C55.7999 81.3002 55.6999 81.3001 55.6999 81.2001C55.5999 81.1001 55.5999 81.0001 55.6999 80.9001L60.0999 76.6001C60.1999 76.5001 60.2999 76.5001 60.3999 76.6001C60.4999 76.7001 60.4999 76.8001 60.3999 76.9001L55.9999 81.2001C55.8999 81.3001 55.7999 81.3002 55.7999 81.3002Z" fill="#87CCC9"/>
<path d="M48.2999 85.0001C48.1999 85.0001 48.1999 85.0001 48.1999 84.9001C48.0999 84.8001 48.0999 84.7001 48.1999 84.6001L62.1999 72.1001C62.2999 72.0001 62.3999 72.0001 62.4999 72.1001C62.5999 72.2001 62.5999 72.3001 62.4999 72.4001L48.4999 84.9001C48.3999 85.0001 48.2999 85.0001 48.2999 85.0001Z" fill="#87CCC9"/>
<path d="M103.6 88.7C103.6 88.7 103.5 88.7 103.5 88.6C103.4 88.5 103.4 88.4001 103.5 88.3001L107.9 84C108 83.9 108.1 83.9 108.2 84C108.3 84.1 108.3 84.2001 108.2 84.3001L103.8 88.6C103.7 88.6 103.6 88.7 103.6 88.7Z" fill="#C4AA90"/>
<path d="M94.1999 93.5C94.1999 93.5 94.0999 93.5001 94.0999 93.4001C93.9999 93.3001 93.9999 93.2 94.0999 93.1L109.3 78C109.4 77.9 109.5 77.9 109.6 78C109.7 78.1 109.7 78.2001 109.6 78.3001L94.3999 93.4001C94.2999 93.5001 94.1999 93.5 94.1999 93.5Z" fill="#C4AA90"/>
<path d="M53.6999 69H52.4999V95.4H53.6999V69Z" fill="#5A6A8C"/>
<path d="M61.9999 69H60.7999V95.4H61.9999V69Z" fill="#5A6A8C"/>
<path d="M70.2999 69H69.0999V95.4H70.2999V69Z" fill="#5A6A8C"/>
<path d="M78.7999 82.8999H44.0999V83.8999H78.7999V82.8999Z" fill="#5A6A8C"/>
<path d="M86.479 36.0138C87.2871 31.1653 84.0117 26.5798 79.1632 25.7717C74.3147 24.9636 69.7292 28.239 68.9211 33.0875C68.113 37.936 71.3884 42.5215 76.2369 43.3296C81.0854 44.1377 85.6709 40.8623 86.479 36.0138Z" fill="#5CA09F"/>
<path d="M77.6999 44.7C72.0999 44.7 67.5999 40.1 67.5999 34.6C67.5999 29 72.1999 24.5 77.6999 24.5C83.2999 24.5 87.7999 29.1 87.7999 34.6C87.8999 40.1 83.2999 44.7 77.6999 44.7ZM77.6999 26.9C73.4999 26.9 69.9999 30.3 69.9999 34.6C69.9999 38.8 73.3999 42.3 77.6999 42.3C81.8999 42.3 85.3999 38.9 85.3999 34.6C85.3999 30.3 81.9999 26.9 77.6999 26.9Z" fill="#5A6A8C"/>
<path d="M78.8999 26.1001H76.5999V43.0001H78.8999V26.1001Z" fill="#5A6A8C"/>
<path d="M86.1534 35.6987V33.3987H69.2534V35.6987H86.1534Z" fill="#5A6A8C"/>
<path d="M48.1999 98C46.5999 97.7 45.3999 96.2 45.2999 94.6C45.2999 94.3 45.2999 94 45.3999 93.8C45.6999 93.3 46.2999 93 46.8999 93C47.4999 93 48.0999 93.3 48.5999 93.6C47.2999 91.9 46.2999 89.7 47.1999 87.7C47.3999 87.2 47.8999 86.7 48.3999 86.7C48.9999 86.7 49.3999 87.2 49.7999 87.7C50.5999 89 51.2999 90.3 51.8999 91.7C52.0999 90.2 52.5999 88.7 53.7999 87.9C53.9999 87.8 54.1999 87.7 54.3999 87.7C54.5999 87.7 54.7999 87.9 54.8999 88C55.9999 89.1 55.8999 90.8 55.6999 92.3C55.9999 91.3 57.3999 90.9 58.2999 91.4C59.2999 91.9 59.7999 92.9 59.9999 93.9C60.1999 94.7 60.0999 95.6 59.7999 96.4C59.3999 97.2 58.5999 97.7 57.7999 97.7" fill="#A0C152"/>
<path d="M61.1999 96.8001C60.8999 96.9001 60.6999 96.5001 60.6999 96.2001C60.3999 95.1001 60.4999 93.7001 61.4999 93.1001C62.0999 92.7001 62.7999 92.8001 63.4999 93.0001C64.0999 93.3001 64.6999 93.7001 65.1999 94.1001C65.0999 93.1001 65.3999 92.1001 66.0999 91.4001C66.7999 90.7001 67.9999 90.5001 68.7999 91.2001C69.4999 91.8001 69.5999 92.8001 70.3999 93.3001C70.4999 92.6001 70.2999 92.0001 70.1999 91.3001C70.1999 90.6001 70.2999 89.9001 70.7999 89.5001C71.5999 88.9001 72.7999 89.4001 73.2999 90.2001C73.7999 91.0001 73.7999 92.1001 73.6999 93.0001C73.8999 92.4001 74.1999 91.7001 74.7999 91.6001C75.2999 91.5001 75.8999 91.9001 76.1999 92.4001C77.0999 93.7001 76.8999 95.6001 75.7999 96.8001" fill="#A0C152"/>
<path d="M44.1999 95.4001H78.6999C79.8999 95.4001 80.8999 96.4001 80.8999 97.6001V101.4C80.8999 102.6 79.8999 103.6 78.6999 103.6H44.1999C42.9999 103.6 41.9999 102.6 41.9999 101.4V97.6001C41.9999 96.4001 42.9999 95.4001 44.1999 95.4001Z" fill="#5A6A8C"/>
<path opacity="0.2" d="M28.9606 121H126.084L130 125H24L28.9606 121Z" fill="#1C1C1C"/>
</svg>
